<svg xmlns="http://www.w3.org/2000/svg" width="32" height="32" viewBox="0 0 32 32"><g transform="translate(0 -1020.362)"><path fill="none" stroke="#000" stroke-linecap="round" stroke-linejoin="round" d="m 26.49644,1027.8658 0,21.5 c 0,0.831 -0.66899,1.5 -1.49998,1.5 l -18.00004,0 c -0.83099,0 -1.49998,-0.669 -1.49998,-1.5 l 0,-26 c 0,-0.831 0.66899,-1.5 1.49998,-1.5 l 13.50002,0 z"/><path d="M 5 24.003906 L 5 26.003906 L 5 28.003906 L 5 29.003906 C 5 30.111906 5.89198 31.003906 7 31.003906 L 25 31.003906 C 26.10802 31.003906 27 30.111906 27 29.003906 L 27 28.003906 L 27 26.003906 L 27 24.003906 L 25 24.003906 L 7 24.003906 L 5 24.003906 z M 15.460938 24.982422 A 0.50005 0.50005 0 0 1 15.511719 24.982422 A 0.50005 0.50005 0 0 1 15.998047 25.511719 L 15.998047 29.488281 A 0.50005 0.50005 0 1 1 14.998047 29.488281 L 14.998047 26.986328 L 14.396484 27.789062 A 0.50019256 0.50019256 0 0 1 13.664062 27.861328 A 0.50005 0.50005 0 0 1 13.632812 27.832031 A 0.50019256 0.50019256 0 0 1 13.628906 27.822266 A 0.50005 0.50005 0 0 1 13.599609 27.789062 A 0.50019256 0.50019256 0 0 1 13.595703 27.789062 L 12.994141 26.984375 L 12.994141 29.488281 A 0.50005 0.50005 0 1 1 11.994141 29.488281 L 11.994141 25.5 A 0.50005 0.50005 0 0 1 12.458984 24.994141 A 0.50005 0.50005 0 0 1 12.486328 24.994141 A 0.50005 0.50005 0 0 1 12.509766 24.994141 A 0.50005 0.50005 0 0 1 12.658203 25.019531 A 0.50005 0.50005 0 0 1 12.705078 25.037109 A 0.50005 0.50005 0 0 1 12.748047 25.060547 A 0.50005 0.50005 0 0 1 12.830078 25.119141 A 0.50005 0.50005 0 0 1 12.898438 25.191406 L 13.998047 26.658203 L 15.09375 25.195312 A 0.50005 0.50005 0 0 1 15.460938 24.988281 L 15.460938 24.982422 z M 8.453125 24.996094 A 0.50005 0.50005 0 0 1 8.4960938 24.996094 A 0.50005 0.50005 0 0 1 8.5039062 24.996094 A 0.50005 0.50005 0 0 1 8.546875 24.996094 L 9.5039062 24.996094 A 0.50005 0.50005 0 0 1 9.6171875 25.007812 C 10.383045 25.071312 10.996094 25.715194 10.996094 26.496094 C 10.996094 26.880994 10.843765 27.229294 10.601562 27.496094 C 10.84332 27.762894 10.996094 28.111694 10.996094 28.496094 C 10.996094 29.278494 10.380995 29.922375 9.6132812 29.984375 A 0.50005 0.50005 0 0 1 9.5039062 29.996094 L 8.6191406 29.996094 A 0.50005 0.50005 0 0 1 8.0625 29.744141 A 0.50005 0.50005 0 0 1 8.0410156 29.701172 A 0.50005 0.50005 0 0 0 8.0390625 29.701172 A 0.50005 0.50005 0 0 1 8.0039062 29.417969 L 8.0039062 27.589844 A 0.50005 0.50005 0 0 1 8.0039062 27.425781 L 8.0039062 25.582031 A 0.50005 0.50005 0 0 1 8.3964844 25.009766 A 0.50005 0.50005 0 0 1 8.4042969 25.009766 A 0.50005 0.50005 0 0 1 8.453125 25 L 8.453125 24.996094 z M 18.496094 25 C 19.318599 25 19.996094 25.6775 19.996094 26.5 C 19.996094 27.3225 19.318599 28 18.496094 28 C 18.320429 28 18.153342 27.96325 17.996094 27.90625 L 17.996094 29.494141 A 0.50005 0.50005 0 1 1 16.996094 29.494141 L 16.996094 26.494141 A 0.50005 0.50005 0 0 1 17.009766 26.369141 C 17.077961 25.607841 17.718322 25 18.496094 25 z M 18.496094 25.996094 C 18.216044 25.996094 17.999194 26.211234 17.996094 26.490234 L 17.996094 26.5 C 17.996094 26.7821 18.214029 27 18.496094 27 C 18.778158 27 18.996094 26.7821 18.996094 26.5 C 18.996094 26.218 18.778158 26 18.496094 26 L 18.496094 25.996094 z M 9.0039062 26 L 9.0039062 26.001953 L 9.0039062 27.009766 L 9.4960938 27.009766 L 9.4960938 27 C 9.7817423 27 9.9960938 26.7857 9.9960938 26.5 C 9.9960938 26.2144 9.7817424 26 9.4960938 26 L 9.0039062 26 z M 9.53125 28.005859 L 9.53125 28.007812 A 0.50005 0.50005 0 0 1 9.5039062 28.007812 L 9.0039062 28.007812 L 9.0039062 29 L 9.4960938 29 C 9.7817423 29 9.9960938 28.7857 9.9960938 28.5 C 9.9960938 28.227 9.7980835 28.023859 9.53125 28.005859 z " transform="translate(0 1020.362)"/><path stroke="#000" stroke-linecap="round" stroke-linejoin="round" d="m 26.49644,1027.8658 -4.49997,0 c -0.83099,0 -1.49998,-0.6691 -1.49998,-1.5 l 0,-4.5"/><path fill-rule="evenodd" d="m 7,1042.3622 5,-7 5,7 z"/><path fill-rule="evenodd" d="m 11,1042.3622 7,-10 7,10 z"/><circle cx="11" cy="1031.362" r="2"/></g></svg>