<svg xmlns="http://www.w3.org/2000/svg" width="32" height="32" viewBox="0 0 32 32"><g transform="translate(0 -1020.362)"><path fill="none" stroke="#000" stroke-linecap="round" stroke-linejoin="round" d="m 26.49644,1027.8658 0,21.5 c 0,0.831 -0.66899,1.5 -1.49998,1.5 l -18.00004,0 c -0.83099,0 -1.49998,-0.669 -1.49998,-1.5 l 0,-26 c 0,-0.831 0.66899,-1.5 1.49998,-1.5 l 13.50002,0 z"/><path d="M 5 24.003906 L 5 26.003906 L 5 28.003906 L 5 29.003906 C 5 30.111906 5.89198 31.003906 7 31.003906 L 25 31.003906 C 26.10802 31.003906 27 30.111906 27 29.003906 L 27 28.003906 L 27 26.003906 L 27 24.003906 L 25 24.003906 L 7 24.003906 L 5 24.003906 z M 13.5 24.984375 A 0.50005 0.50005 0 0 1 13.625 24.998047 L 14.521484 24.998047 A 0.50005 0.50005 0 0 1 14.671875 25.021484 C 15.975778 25.134684 17.021484 26.1893 17.021484 27.5 C 17.021484 28.8138 15.970605 29.869816 14.662109 29.978516 A 0.50005 0.50005 0 0 1 14.513672 30 L 13.515625 30 A 0.50005 0.50005 0 0 1 13.347656 29.972656 A 0.50005 0.50005 0 0 1 13.320312 29.962891 A 0.50005 0.50005 0 0 1 13.244141 29.923828 A 0.50005 0.50005 0 0 1 13.208984 29.900391 A 0.50005 0.50005 0 0 1 13.197266 29.890625 A 0.50005 0.50005 0 0 1 13.164062 29.863281 A 0.50005 0.50005 0 0 1 13.158203 29.853516 A 0.50005 0.50005 0 0 1 13.146484 29.839844 A 0.50005 0.50005 0 0 1 13.121094 29.8125 A 0.50005 0.50005 0 0 1 13.097656 29.783203 A 0.50005 0.50005 0 0 1 13.091797 29.773438 A 0.50005 0.50005 0 0 1 13.072266 29.742188 A 0.50005 0.50005 0 0 1 13.044922 29.685547 A 0.50005 0.50005 0 0 1 13.03125 29.650391 A 0.50005 0.50005 0 0 1 13.027344 29.636719 A 0.50005 0.50005 0 0 1 13.015625 29.591797 A 0.50005 0.50005 0 0 1 13.007812 29.457031 L 13.007812 25.494141 A 0.50005 0.50005 0 0 1 13.5 24.986328 L 13.5 24.984375 z M 18.462891 24.986328 A 0.50005 0.50005 0 0 1 18.513672 24.986328 L 19.513672 24.986328 A 0.50005 0.50005 0 0 1 19.625 24.998047 C 20.392678 25.059647 21.007812 25.703928 21.007812 26.486328 C 21.007812 27.052428 20.683297 27.543728 20.214844 27.798828 L 20.949219 29.271484 A 0.50006575 0.50006575 0 1 1 20.054688 29.71875 L 19.191406 27.994141 L 19.013672 27.994141 L 19.013672 29.494141 A 0.50005 0.50005 0 1 1 18.013672 29.494141 L 18.013672 27.574219 A 0.50005 0.50005 0 0 1 18.013672 27.414062 L 18.013672 25.566406 A 0.50005 0.50005 0 0 1 18.408203 24.996094 A 0.50005 0.50005 0 0 1 18.414062 24.996094 A 0.50005 0.50005 0 0 1 18.462891 24.986328 z M 10.449219 25 A 0.50005 0.50005 0 0 1 10.5 25 L 10.576172 25 L 10.611328 25 L 11.5 25 A 0.50005 0.50005 0 1 1 11.5 26 L 10.576172 26 C 9.683907 26 9 26.6702 9 27.5 C 9 28.3293 9.683965 29 10.576172 29 L 11.507812 29 A 0.50005 0.50005 0 1 1 11.507812 30 L 10.507812 30 A 0.50005 0.50005 0 0 1 10.363281 29.978516 C 9.0529751 29.871616 8 28.8151 8 27.5 C 8 26.1911 9.0425902 25.136484 10.34375 25.021484 A 0.50005 0.50005 0 0 1 10.449219 25 z M 19.013672 25.986328 L 19.013672 26.986328 L 19.425781 26.986328 A 0.50005 0.50005 0 0 1 19.458984 26.986328 A 0.50005 0.50005 0 0 1 19.507812 26.986328 C 19.793461 26.986328 20.007812 26.771928 20.007812 26.486328 C 20.007813 26.202728 19.796278 25.986328 19.513672 25.986328 L 19.013672 25.986328 z M 14.007812 26 L 14.007812 29 L 14.445312 29 C 15.337519 29 16.021484 28.3293 16.021484 27.5 C 16.021484 26.6703 15.337549 26 14.445312 26 L 14.007812 26 z " transform="translate(0 1020.362)"/><path stroke="#000" stroke-linecap="round" stroke-linejoin="round" d="m 26.49644,1027.8658 -4.49997,0 c -0.83099,0 -1.49998,-0.6691 -1.49998,-1.5 l 0,-4.5"/><path fill-rule="evenodd" style="line-height:normal;text-indent:0;text-align:start;text-decoration-line:none;text-decoration-style:solid;text-decoration-color:#000;text-transform:none;block-progression:tb;isolation:auto;mix-blend-mode:normal" d="m 17.857422,1030.1708 a 0.50005,0.50005 0 0 0 -0.347656,0.1465 l -5.63086,5.6308 -0.02539,0.025 a 0.50005,0.50005 0 0 0 -0.0293,0.033 0.50005,0.50005 0 0 0 -0.0059,0.01 0.50005,0.50005 0 0 0 -0.0078,0.01 0.50005,0.50005 0 0 0 -0.01953,0.029 0.50005,0.50005 0 0 0 -0.02539,0.043 0.50005,0.50005 0 0 0 -0.02148,0.045 0.50005,0.50005 0 0 0 -0.01172,0.031 0.50005,0.50005 0 0 0 -0.0059,0.019 0.50005,0.50005 0 0 0 -0.0098,0.039 0.50005,0.50005 0 0 0 0,0.01 l -0.707031,3.5293 a 0.50005,0.50005 0 0 0 0.58789,0.5878 l 3.496094,-0.6992 0.03906,-0.01 a 0.50005,0.50005 0 0 0 0.0098,-0 0.50005,0.50005 0 0 0 0.08008,-0.025 0.50005,0.50005 0 0 0 0.0059,-0 0.50005,0.50005 0 0 0 0.0078,-0 0.50005,0.50005 0 0 0 0.08008,-0.045 0.50005,0.50005 0 0 0 0.07227,-0.059 l 0.0039,-0.01 5.654297,-5.6504 a 0.50005,0.50005 0 0 0 0,-0.707 l -2.830039,-2.8281 a 0.50005,0.50005 0 0 0 -0.359375,-0.1465 z m 0.0059,1.207 0.707031,0.7071 -4.949218,4.9492 -0.707032,-0.7071 4.949219,-4.9492 z m 1.414063,1.4141 0.708984,0.707 -4.951172,4.9492 -0.707031,-0.707 4.949219,-4.9492 z m -6.763672,4.5488 1.507812,1.5078 -1.884765,0.377 0.376953,-1.8848 z" color="#000" font-family="sans-serif" font-weight="400" overflow="visible" white-space="normal"/></g></svg>