<svg xmlns="http://www.w3.org/2000/svg" width="32" height="32" viewBox="0 0 32 32"><g transform="translate(0 -1020.362)"><path fill="none" stroke="#000" stroke-linecap="round" stroke-linejoin="round" d="m 26.49644,1027.8658 0,21.5 c 0,0.831 -0.66899,1.5 -1.49998,1.5 l -18.00004,0 c -0.83099,0 -1.49998,-0.669 -1.49998,-1.5 l 0,-26 c 0,-0.831 0.66899,-1.5 1.49998,-1.5 l 13.50002,0 z"/><path d="M 5 24.003906 L 5 26.003906 L 5 28.003906 L 5 29.003906 C 5 30.111906 5.89198 31.003906 7 31.003906 L 25 31.003906 C 26.10802 31.003906 27 30.111906 27 29.003906 L 27 28.003906 L 27 26.003906 L 27 24.003906 L 25 24.003906 L 7 24.003906 L 5 24.003906 z M 10.453125 25.003906 A 0.50005 0.50005 0 0 1 10.503906 25.005859 L 10.580078 25.005859 L 10.615234 25.005859 L 11.503906 25.005859 A 0.50005 0.50005 0 1 1 11.503906 26.005859 L 10.580078 26.005859 C 9.6878428 26.005859 9.0039062 26.676159 9.0039062 27.505859 C 9.0039064 28.335259 9.6878717 29.005859 10.580078 29.005859 L 10.615234 29.005859 L 11.511719 29.005859 A 0.50005 0.50005 0 1 1 11.511719 30.005859 L 10.580078 30.005859 L 10.511719 30.005859 A 0.50005 0.50005 0 0 1 10.367188 29.982422 C 9.0568809 29.875522 8.0039062 28.819006 8.0039062 27.503906 C 8.0039063 26.195106 9.0464756 25.141191 10.347656 25.025391 A 0.50005 0.50005 0 0 1 10.453125 25.003906 z M 14.453125 25.003906 A 0.50005 0.50005 0 0 1 14.503906 25.003906 A 0.50005 0.50005 0 0 1 14.539062 25.003906 L 16.503906 25.003906 A 0.50005 0.50005 0 1 1 16.503906 26.003906 L 14.503906 26.003906 C 14.218258 26.003906 14.003906 26.218306 14.003906 26.503906 C 14.003906 26.789606 14.218258 27.003906 14.503906 27.003906 L 15.503906 27.003906 A 0.50005 0.50005 0 0 1 15.611328 27.013672 C 16.383642 27.070472 17.003906 27.718306 17.003906 28.503906 C 17.003906 29.290906 16.381492 29.937187 15.607422 29.992188 A 0.50005 0.50005 0 0 1 15.503906 30.003906 L 13.503906 30.003906 A 0.50005 0.50005 0 1 1 13.503906 29.003906 L 15.503906 29.003906 C 15.789555 29.003906 16.003906 28.789606 16.003906 28.503906 C 16.003906 28.218306 15.789555 28.003906 15.503906 28.003906 L 14.503906 28.003906 A 0.50005 0.50005 0 0 1 14.410156 27.994141 C 13.63146 27.944241 13.003906 27.294306 13.003906 26.503906 C 13.003906 25.720306 13.621128 25.075625 14.390625 25.015625 A 0.50005 0.50005 0 0 1 14.453125 25.003906 z M 19.445312 25.003906 A 0.50005 0.50005 0 0 1 19.496094 25.003906 A 0.50005 0.50005 0 0 1 19.53125 25.003906 L 21.496094 25.003906 A 0.50005 0.50005 0 1 1 21.496094 26.003906 L 19.496094 26.003906 C 19.210445 26.003906 18.996094 26.218306 18.996094 26.503906 C 18.996094 26.789606 19.210445 27.003906 19.496094 27.003906 L 20.496094 27.003906 A 0.50005 0.50005 0 0 1 20.603516 27.013672 C 21.375828 27.070472 21.996094 27.718306 21.996094 28.503906 C 21.996094 29.290906 21.373678 29.937187 20.599609 29.992188 A 0.50005 0.50005 0 0 1 20.496094 30.003906 L 18.496094 30.003906 A 0.50005 0.50005 0 1 1 18.496094 29.003906 L 20.496094 29.003906 C 20.781742 29.003906 20.996094 28.789606 20.996094 28.503906 C 20.996094 28.218306 20.781742 28.003906 20.496094 28.003906 L 19.496094 28.003906 A 0.50005 0.50005 0 0 1 19.402344 27.994141 C 18.623646 27.944241 17.996094 27.294306 17.996094 26.503906 C 17.996094 25.720306 18.613315 25.075625 19.382812 25.015625 A 0.50005 0.50005 0 0 1 19.445312 25.003906 z " transform="translate(0 1020.362)"/><path stroke="#000" stroke-linecap="round" stroke-linejoin="round" d="m 26.49644,1027.8658 -4.49997,0 c -0.83099,0 -1.49998,-0.6691 -1.49998,-1.5 l 0,-4.5"/><path style="line-height:normal;text-indent:0;text-align:start;text-decoration-line:none;text-decoration-style:solid;text-decoration-color:#000;text-transform:none;block-progression:tb;isolation:auto;mix-blend-mode:normal" d="m 13.507812,1030.3661 c -1.099351,0 -1.999999,0.9007 -2,2 l 0,0.9551 0,0.045 c 0,0.5627 -0.43735,1 -1,1 a 0.50005,0.50005 0 0 0 -0.498046,0.4063 0.50005,0.50005 0 0 0 0,0 0.50005,0.50005 0 0 0 0.148437,0.455 0.50005,0.50005 0 0 0 0.07813,0.061 0.50005,0.50005 0 0 0 0.138672,0.059 0.50005,0.50005 0 0 0 0.09766,0.016 0.50005,0.50005 0 0 0 0.03516,0 c 0.56265,0 1,0.4374 1,1 l 0,0.047 0,0.9531 c 0,1.0994 0.90065,2 2,2 a 0.50005,0.50005 0 1 0 0,-1 c -0.562647,0 -1,-0.4373 -1,-1 l 0,-0.9531 0,-0.047 c 0,-0.5983 -0.272971,-1.1325 -0.693359,-1.5 0.420928,-0.3675 0.69336,-0.9012 0.693359,-1.5 l 0,-0.045 0,-0.9551 c 0,-0.5626 0.437352,-1 1,-1 a 0.50005,0.50005 0 1 0 0,-1 z m 4.933594,0 a 0.50064429,0.50064429 0 0 0 0.05078,1 c 0.562647,0 1,0.4374 1,1 l 0,0.9551 0,0.045 c 0,0.5988 0.272431,1.1325 0.693359,1.5 -0.420388,0.3675 -0.69336,0.9017 -0.693359,1.5 l 0,0.047 0,0.9531 c 0,0.5627 -0.437353,1 -1,1 a 0.50005,0.50005 0 1 0 0,1 c 1.09935,0 2,-0.9006 2,-2 l 0,-0.9531 0,-0.047 c 0,-0.5626 0.43735,-1 1,-1 a 0.50005,0.50005 0 0 0 0.324218,-0.1133 0.50005,0.50005 0 0 0 0.03711,-0.035 0.50005,0.50005 0 0 0 -0.361328,-0.8516 c -0.56265,0 -1,-0.4373 -1,-1 l 0,-0.045 0,-0.9551 c 0,-1.0993 -0.90065,-2 -2,-2 a 0.50005,0.50005 0 0 0 -0.05078,0 z" color="#000" font-family="sans-serif" font-weight="400" overflow="visible" white-space="normal"/></g></svg>