<svg xmlns="http://www.w3.org/2000/svg" width="32" height="32" viewBox="0 0 32 32"><g transform="translate(0 -1020.362)"><path fill="none" stroke="#000" stroke-linecap="round" stroke-linejoin="round" d="m 26.49644,1027.8658 0,21.5 c 0,0.831 -0.66899,1.5 -1.49998,1.5 l -18.00004,0 c -0.83099,0 -1.49998,-0.669 -1.49998,-1.5 l 0,-26 c 0,-0.831 0.66899,-1.5 1.49998,-1.5 l 13.50002,0 z"/><path d="M 5 24.003906 L 5 26.003906 L 5 28.003906 L 5 29.003906 C 5 30.111906 5.89198 31.003906 7 31.003906 L 25 31.003906 C 26.10802 31.003906 27 30.111906 27 29.003906 L 27 28.003906 L 27 26.003906 L 27 24.003906 L 25 24.003906 L 7 24.003906 L 5 24.003906 z M 18.462891 24.994141 A 0.50005 0.50005 0 0 1 18.513672 24.994141 A 0.50005 0.50005 0 0 1 18.972656 25.326172 L 20.003906 28.076172 L 21.035156 25.326172 A 0.5002831 0.5002831 0 0 1 21.972656 25.675781 L 20.472656 29.675781 A 0.50005 0.50005 0 0 1 19.535156 29.675781 L 18.035156 25.675781 A 0.50005 0.50005 0 0 1 18.462891 24.994141 z M 10.445312 25.003906 L 10.445312 25.005859 A 0.50005 0.50005 0 0 1 10.496094 25.005859 L 11.496094 25.005859 A 0.50005 0.50005 0 1 1 11.496094 26.005859 L 10.574219 26.005859 C 9.6819828 26.005859 8.9960938 26.676159 8.9960938 27.505859 C 8.9960936 28.335159 9.6820116 29.005859 10.574219 29.005859 L 11.503906 29.005859 A 0.50005 0.50005 0 1 1 11.503906 30.005859 L 10.503906 30.005859 A 0.50005 0.50005 0 0 1 10.357422 29.982422 C 9.0487425 29.873722 7.9960938 28.817706 7.9960938 27.503906 C 7.9960936 26.195806 9.0393724 25.142091 10.339844 25.025391 A 0.50005 0.50005 0 0 1 10.445312 25.003906 z M 14.460938 25.003906 A 0.50005 0.50005 0 0 1 14.511719 25.003906 A 0.50005 0.50005 0 0 1 14.546875 25.003906 L 16.511719 25.003906 A 0.50005 0.50005 0 1 1 16.511719 26.003906 L 14.511719 26.003906 C 14.22607 26.003906 14.011719 26.218306 14.011719 26.503906 C 14.011719 26.789606 14.22607 27.003906 14.511719 27.003906 A 0.50005 0.50005 0 0 1 14.546875 27.003906 L 15.511719 27.003906 A 0.50005 0.50005 0 0 1 15.619141 27.013672 C 16.391453 27.070372 17.011719 27.718306 17.011719 28.503906 C 17.011719 29.290906 16.389303 29.937187 15.615234 29.992188 A 0.50005 0.50005 0 0 1 15.511719 30.003906 L 13.511719 30.003906 A 0.50005 0.50005 0 1 1 13.511719 29.003906 L 15.511719 29.003906 C 15.797367 29.003906 16.011719 28.789606 16.011719 28.503906 C 16.011719 28.218306 15.797367 28.003906 15.511719 28.003906 L 14.511719 28.003906 A 0.50005 0.50005 0 0 1 14.417969 27.994141 C 13.639271 27.944241 13.011719 27.294306 13.011719 26.503906 C 13.011719 25.720306 13.628939 25.075625 14.398438 25.015625 A 0.50005 0.50005 0 0 1 14.460938 25.003906 z " transform="translate(0 1020.362)"/><path stroke="#000" stroke-linecap="round" stroke-linejoin="round" d="m 26.49644,1027.8658 -4.49997,0 c -0.83099,0 -1.49998,-0.6691 -1.49998,-1.5 l 0,-4.5"/><path style="line-height:normal;text-indent:0;text-align:start;text-decoration-line:none;text-decoration-style:solid;text-decoration-color:#000;text-transform:none;block-progression:tb;isolation:auto;mix-blend-mode:normal" d="M8.5 1029.3613a.50005.50005 0 0 0-.5.5l0 2a.50005.50005 0 0 0 .5.5l5 0a.50005.50005 0 0 0 .5-.5l0-2a.50005.50005 0 0 0-.5-.5l-5 0zm.5 1l4 0 0 1-4 0 0-1zM8.5 1033.3613a.50005.50005 0 0 0-.5.5l0 2a.50005.50005 0 0 0 .5.5l5 0a.50005.50005 0 0 0 .5-.5l0-2a.50005.50005 0 0 0-.5-.5l-5 0zm.5 1l4 0 0 1-4 0 0-1z" color="#000" font-family="sans-serif" font-weight="400" overflow="visible" white-space="normal"/><path style="line-height:normal;text-indent:0;text-align:start;text-decoration-line:none;text-decoration-style:solid;text-decoration-color:#000;text-transform:none;block-progression:tb;isolation:auto;mix-blend-mode:normal" d="m 8.5,1035.3613 a 0.50005,0.50005 0 0 0 -0.5,0.5 l 0,2 a 0.50005,0.50005 0 0 0 0.5,0.5 l 5,0 a 0.50005,0.50005 0 0 0 0.5,-0.5 l 0,-2 a 0.50005,0.50005 0 0 0 -0.5,-0.5 l -5,0 z m 0.5,1 4,0 0,1 -4,0 0,-1 z" color="#000" font-family="sans-serif" font-weight="400" overflow="visible" white-space="normal"/><path style="line-height:normal;text-indent:0;text-align:start;text-decoration-line:none;text-decoration-style:solid;text-decoration-color:#000;text-transform:none;block-progression:tb;isolation:auto;mix-blend-mode:normal" d="m 8.5,1037.3613 a 0.50005,0.50005 0 0 0 -0.5,0.5 l 0,2 a 0.50005,0.50005 0 0 0 0.5,0.5 l 5,0 a 0.50005,0.50005 0 0 0 0.5,-0.5 l 0,-2 a 0.50005,0.50005 0 0 0 -0.5,-0.5 l -5,0 z m 0.5,1 4,0 0,1 -4,0 0,-1 z" color="#000" font-family="sans-serif" font-weight="400" overflow="visible" white-space="normal"/><path style="line-height:normal;text-indent:0;text-align:start;text-decoration-line:none;text-decoration-style:solid;text-decoration-color:#000;text-transform:none;block-progression:tb;isolation:auto;mix-blend-mode:normal" d="M8.5 1039.3613a.50005.50005 0 0 0-.5.5l0 2a.50005.50005 0 0 0 .5.5l5 0a.50005.50005 0 0 0 .5-.5l0-2a.50005.50005 0 0 0-.5-.5l-5 0zm.5 1l4 0 0 1-4 0 0-1zM18.5 1029.3613a.50005.50005 0 0 0-.5.5l0 2a.50005.50005 0 0 0 .5.5l5 0a.50005.50005 0 0 0 .5-.5l0-2a.50005.50005 0 0 0-.5-.5l-5 0zm.5 1l4 0 0 1-4 0 0-1zM18.5 1033.3613a.50005.50005 0 0 0-.5.5l0 2a.50005.50005 0 0 0 .5.5l5 0a.50005.50005 0 0 0 .5-.5l0-2a.50005.50005 0 0 0-.5-.5l-5 0zm.5 1l4 0 0 1-4 0 0-1z" color="#000" font-family="sans-serif" font-weight="400" overflow="visible" white-space="normal"/><path style="line-height:normal;text-indent:0;text-align:start;text-decoration-line:none;text-decoration-style:solid;text-decoration-color:#000;text-transform:none;block-progression:tb;isolation:auto;mix-blend-mode:normal" d="m 18.5,1035.3613 a 0.50005,0.50005 0 0 0 -0.5,0.5 l 0,2 a 0.50005,0.50005 0 0 0 0.5,0.5 l 5,0 a 0.50005,0.50005 0 0 0 0.5,-0.5 l 0,-2 a 0.50005,0.50005 0 0 0 -0.5,-0.5 l -5,0 z m 0.5,1 4,0 0,1 -4,0 0,-1 z" color="#000" font-family="sans-serif" font-weight="400" overflow="visible" white-space="normal"/><path style="line-height:normal;text-indent:0;text-align:start;text-decoration-line:none;text-decoration-style:solid;text-decoration-color:#000;text-transform:none;block-progression:tb;isolation:auto;mix-blend-mode:normal" d="m 18.5,1037.3613 a 0.50005,0.50005 0 0 0 -0.5,0.5 l 0,2 a 0.50005,0.50005 0 0 0 0.5,0.5 l 5,0 a 0.50005,0.50005 0 0 0 0.5,-0.5 l 0,-2 a 0.50005,0.50005 0 0 0 -0.5,-0.5 l -5,0 z m 0.5,1 4,0 0,1 -4,0 0,-1 z" color="#000" font-family="sans-serif" font-weight="400" overflow="visible" white-space="normal"/><path style="line-height:normal;text-indent:0;text-align:start;text-decoration-line:none;text-decoration-style:solid;text-decoration-color:#000;text-transform:none;block-progression:tb;isolation:auto;mix-blend-mode:normal" d="M18.5 1039.3613a.50005.50005 0 0 0-.5.5l0 2a.50005.50005 0 0 0 .5.5l5 0a.50005.50005 0 0 0 .5-.5l0-2a.50005.50005 0 0 0-.5-.5l-5 0zm.5 1l4 0 0 1-4 0 0-1zM13.5 1029.3613a.50005.50005 0 0 0-.5.5l0 2a.50005.50005 0 0 0 .5.5l5 0a.50005.50005 0 0 0 .5-.5l0-2a.50005.50005 0 0 0-.5-.5l-5 0zm.5 1l4 0 0 1-4 0 0-1zM13.5 1033.3613a.50005.50005 0 0 0-.5.5l0 2a.50005.50005 0 0 0 .5.5l5 0a.50005.50005 0 0 0 .5-.5l0-2a.50005.50005 0 0 0-.5-.5l-5 0zm.5 1l4 0 0 1-4 0 0-1z" color="#000" font-family="sans-serif" font-weight="400" overflow="visible" white-space="normal"/><path style="line-height:normal;text-indent:0;text-align:start;text-decoration-line:none;text-decoration-style:solid;text-decoration-color:#000;text-transform:none;block-progression:tb;isolation:auto;mix-blend-mode:normal" d="m 13.5,1035.3613 a 0.50005,0.50005 0 0 0 -0.5,0.5 l 0,2 a 0.50005,0.50005 0 0 0 0.5,0.5 l 5,0 a 0.50005,0.50005 0 0 0 0.5,-0.5 l 0,-2 a 0.50005,0.50005 0 0 0 -0.5,-0.5 l -5,0 z m 0.5,1 4,0 0,1 -4,0 0,-1 z" color="#000" font-family="sans-serif" font-weight="400" overflow="visible" white-space="normal"/><path style="line-height:normal;text-indent:0;text-align:start;text-decoration-line:none;text-decoration-style:solid;text-decoration-color:#000;text-transform:none;block-progression:tb;isolation:auto;mix-blend-mode:normal" d="m 13.5,1037.3613 a 0.50005,0.50005 0 0 0 -0.5,0.5 l 0,2 a 0.50005,0.50005 0 0 0 0.5,0.5 l 5,0 a 0.50005,0.50005 0 0 0 0.5,-0.5 l 0,-2 a 0.50005,0.50005 0 0 0 -0.5,-0.5 l -5,0 z m 0.5,1 4,0 0,1 -4,0 0,-1 z" color="#000" font-family="sans-serif" font-weight="400" overflow="visible" white-space="normal"/><path style="line-height:normal;text-indent:0;text-align:start;text-decoration-line:none;text-decoration-style:solid;text-decoration-color:#000;text-transform:none;block-progression:tb;isolation:auto;mix-blend-mode:normal" d="m 13.5,1039.3613 a 0.50005,0.50005 0 0 0 -0.5,0.5 l 0,2 a 0.50005,0.50005 0 0 0 0.5,0.5 l 5,0 a 0.50005,0.50005 0 0 0 0.5,-0.5 l 0,-2 a 0.50005,0.50005 0 0 0 -0.5,-0.5 l -5,0 z m 0.5,1 4,0 0,1 -4,0 0,-1 z" color="#000" font-family="sans-serif" font-weight="400" overflow="visible" white-space="normal"/></g></svg>