<svg xmlns="http://www.w3.org/2000/svg" width="32" height="32" viewBox="0 0 32 32"><g transform="translate(0 -1020.362)"><path fill="none" stroke="#000" stroke-linecap="round" stroke-linejoin="round" d="m 26.49822,1027.8658 0,21.5 c 0,0.831 -0.66899,1.5 -1.49998,1.5 l -18.00004,0 c -0.83099,0 -1.49998,-0.669 -1.49998,-1.5 l 0,-26 c 0,-0.831 0.66899,-1.5 1.49998,-1.5 l 13.50002,0 z"/><path d="M 4.9980469 24.003906 L 4.9980469 26.003906 L 4.9980469 28.003906 L 4.9980469 29.003906 C 4.9980469 30.111906 5.8900269 31.003906 6.9980469 31.003906 L 24.998047 31.003906 C 26.106067 31.003906 26.998047 30.111906 26.998047 29.003906 L 26.998047 28.003906 L 26.998047 26.003906 L 26.998047 24.003906 L 24.998047 24.003906 L 6.9980469 24.003906 L 4.9980469 24.003906 z M 8.484375 24.986328 L 8.484375 24.988281 A 0.50005 0.50005 0 0 1 8.6054688 25.001953 L 9.5058594 25.001953 A 0.50005 0.50005 0 0 1 9.65625 25.025391 C 10.960153 25.138491 12.005859 26.193206 12.005859 27.503906 C 12.005859 28.817706 10.954988 29.873522 9.6464844 29.982422 A 0.50005 0.50005 0 0 1 9.4980469 30.003906 L 8.4980469 30.003906 A 0.50005 0.50005 0 0 1 8.4628906 30.003906 A 0.50005 0.50005 0 0 1 8.3242188 29.976562 A 0.50005 0.50005 0 0 1 8.3085938 29.966797 A 0.50005 0.50005 0 0 1 8.3027344 29.966797 A 0.50005 0.50005 0 0 1 8.2265625 29.927734 A 0.50005 0.50005 0 0 1 8.1855469 29.898438 A 0.50005 0.50005 0 0 1 8.1484375 29.867188 A 0.50005 0.50005 0 0 1 8.1132812 29.832031 A 0.50005 0.50005 0 0 1 8.0820312 29.792969 A 0.50005 0.50005 0 0 1 8.0566406 29.751953 A 0.50005 0.50005 0 0 1 8.0332031 29.707031 A 0.50005 0.50005 0 0 1 8.015625 29.658203 A 0.50005 0.50005 0 0 1 8.0019531 29.609375 A 0.50005 0.50005 0 0 1 7.9941406 29.560547 A 0.50005 0.50005 0 0 1 7.9921875 29.546875 A 0.50005 0.50005 0 0 1 7.9921875 29.523438 A 0.50005 0.50005 0 0 1 7.9902344 29.503906 A 0.50005 0.50005 0 0 1 7.9902344 29.494141 L 7.9902344 25.494141 A 0.50005 0.50005 0 0 1 8.484375 24.986328 z M 13.490234 24.998047 L 13.490234 25.003906 A 0.50005 0.50005 0 0 1 13.998047 25.511719 L 13.998047 29.005859 L 15.494141 29.005859 A 0.50005 0.50005 0 1 1 15.494141 30.005859 L 13.505859 30.005859 A 0.50005 0.50005 0 0 1 13.470703 30.005859 A 0.50005 0.50005 0 0 1 13.332031 29.980469 A 0.50005 0.50005 0 0 1 13.316406 29.96875 A 0.50005 0.50005 0 0 1 13.001953 29.560547 A 0.50005 0.50005 0 0 1 13 29.546875 A 0.50005 0.50005 0 0 1 13 29.523438 A 0.50005 0.50005 0 0 1 12.998047 29.503906 A 0.50005 0.50005 0 0 1 12.998047 29.494141 L 12.998047 25.505859 A 0.50005 0.50005 0 0 1 13.490234 24.998047 z M 17.490234 24.998047 L 17.490234 25.003906 A 0.50005 0.50005 0 0 1 17.998047 25.511719 L 17.998047 29.005859 L 19.494141 29.005859 A 0.50005 0.50005 0 1 1 19.494141 30.005859 L 17.505859 30.005859 A 0.50005 0.50005 0 0 1 17.470703 30.005859 A 0.50005 0.50005 0 0 1 17.332031 29.980469 A 0.50005 0.50005 0 0 1 17.316406 29.96875 A 0.50005 0.50005 0 0 1 17.001953 29.560547 A 0.50005 0.50005 0 0 1 17 29.546875 A 0.50005 0.50005 0 0 1 17 29.523438 A 0.50005 0.50005 0 0 1 16.998047 29.503906 A 0.50005 0.50005 0 0 1 16.998047 29.494141 L 16.998047 25.505859 A 0.50005 0.50005 0 0 1 17.490234 24.998047 z M 8.9902344 26 L 8.9902344 29 L 9.4296875 29 C 10.321894 29 11.005859 28.3293 11.005859 27.5 C 11.005859 26.6703 10.321923 26 9.4296875 26 L 8.9902344 26 z " transform="translate(0 1020.362)"/><path stroke="#000" stroke-linecap="round" stroke-linejoin="round" d="m 26.49466,1027.8658 -4.49997,0 c -0.83099,0 -1.49998,-0.6691 -1.49998,-1.5 l 0,-4.5"/><path style="line-height:normal;text-indent:0;text-align:start;text-decoration-line:none;text-decoration-style:solid;text-decoration-color:#000;text-transform:none;block-progression:tb;isolation:auto;mix-blend-mode:normal" d="m 15.248047,1030.3602 0,0 a 0.50005,0.50005 0 0 0 -0.496094,0.4453 l -0.09375,0.8262 c -0.11898,0.043 -0.235232,0.091 -0.349609,0.1445 l -0.650391,-0.5176 a 0.50005,0.50005 0 0 0 -0.664062,0.037 l -1.060547,1.0586 a 0.50005,0.50005 0 0 0 -0.03906,0.6661 l 0.519531,0.6503 c -0.05365,0.1139 -0.101846,0.2313 -0.144531,0.3497 l -0.828125,0.094 a 0.50005,0.50005 0 0 0 -0.443362,0.4961 l 0,1.5 a 0.50005,0.50005 0 0 0 0.443359,0.498 l 0.828125,0.092 c 0.04291,0.119 0.09055,0.2353 0.144531,0.3497 l -0.519531,0.6503 a 0.50005,0.50005 0 0 0 0.03906,0.6661 l 1.060547,1.0605 a 0.50005,0.50005 0 0 0 0.664062,0.037 l 0.650391,-0.5176 c 0.114238,0.054 0.230794,0.1001 0.349609,0.1426 l 0.09375,0.8281 a 0.50005,0.50005 0 0 0 0.496097,0.4434 l 1.5,0 a 0.50005,0.50005 0 0 0 0.496094,-0.4434 l 0.09375,-0.8261 c 0.119137,-0.043 0.235085,-0.092 0.349609,-0.1465 l 0.650391,0.5195 a 0.50005,0.50005 0 0 0 0.666015,-0.037 l 1.060547,-1.0605 a 0.50005,0.50005 0 0 0 0.03711,-0.6661 l -0.519532,-0.6523 c 0.05334,-0.1133 0.10205,-0.2279 0.144531,-0.3457 l 0.828126,-0.094 a 0.50005,0.50005 0 0 0 0.443359,-0.498 l 0,-1.5 a 0.50005,0.50005 0 0 0 -0.443359,-0.4961 l -0.828126,-0.096 c -0.04272,-0.1182 -0.09087,-0.2339 -0.144531,-0.3476 l 0.519531,-0.6524 a 0.50005,0.50005 0 0 0 -0.03711,-0.6641 l -1.060547,-1.0605 a 0.50005,0.50005 0 0 0 -0.666015,-0.035 l -0.65039,0.5157 c -0.114238,-0.054 -0.230794,-0.098 -0.349609,-0.1407 l -0.09375,-0.83 a 0.50005,0.50005 0 0 0 -0.496094,-0.4454 l -1.5,0 z m 0.447265,1.002 0.605469,0 0.07617,0.6719 a 0.50005,0.50005 0 0 0 0.371094,0.4277 c 0.269996,0.07 0.529181,0.1788 0.769531,0.3203 a 0.50005,0.50005 0 0 0 0.566406,-0.041 l 0.527344,-0.4199 0.429688,0.4277 -0.421875,0.5293 a 0.50005,0.50005 0 0 0 -0.03906,0.5664 c 0.141841,0.2403 0.250026,0.4976 0.320312,0.7676 a 0.50005,0.50005 0 0 0 0.427734,0.3711 l 0.669922,0.074 0,0.6074 -0.671875,0.076 a 0.50005,0.50005 0 0 0 -0.427734,0.3711 c -0.07003,0.27 -0.176815,0.5292 -0.31836,0.7695 a 0.50005,0.50005 0 0 0 0.03906,0.5645 l 0.421875,0.5293 -0.429688,0.4277 -0.527344,-0.4199 a 0.50005,0.50005 0 0 0 -0.566406,-0.039 c -0.240308,0.1418 -0.499494,0.2481 -0.769531,0.3184 a 0.50005,0.50005 0 0 0 -0.371094,0.4277 l -0.07617,0.67 -0.605469,0 -0.07617,-0.67 a 0.50005,0.50005 0 0 0 -0.371094,-0.4277 c -0.269997,-0.07 -0.529181,-0.1788 -0.769531,-0.3203 a 0.50005,0.50005 0 0 0 -0.564454,0.041 l -0.529296,0.4199 -0.429688,-0.4277 0.421875,-0.5293 a 0.50005,0.50005 0 0 0 0.03906,-0.5664 c -0.141834,-0.2403 -0.250015,-0.4976 -0.32031,-0.7676 a 0.50005,0.50005 0 0 0 -0.427734,-0.3711 l -0.669922,-0.076 0,-0.6054 0.671875,-0.076 a 0.50005,0.50005 0 0 0 0.427734,-0.3711 c 0.07002,-0.27 0.176807,-0.5291 0.31836,-0.7695 a 0.50005,0.50005 0 0 0 -0.03906,-0.5645 l -0.421875,-0.5293 0.429688,-0.4277 0.529296,0.4199 a 0.50005,0.50005 0 0 0 0.564454,0.039 c 0.240303,-0.1418 0.49949,-0.2481 0.769531,-0.3184 a 0.50005,0.50005 0 0 0 0.371094,-0.4277 l 0.07617,-0.6719 z m 0.302735,2 c -1.098647,0 -2,0.9014 -2,2 0,1.0987 0.901353,2 2,2 1.098647,0 2,-0.9013 2,-2 0,-1.0986 -0.901353,-2 -2,-2 z m 0,1 c 0.558207,0 1,0.4418 1,1 0,0.5582 -0.441793,1 -1,1 -0.558207,0 -1,-0.4418 -1,-1 0,-0.5582 0.441793,-1 1,-1 z" color="#000" font-family="sans-serif" font-weight="400" overflow="visible" white-space="normal"/></g></svg>