<svg xmlns="http://www.w3.org/2000/svg" width="32" height="32" viewBox="0 0 32 32"><g transform="translate(0 -1020.362)"><path fill="none" stroke="#000" stroke-linecap="round" stroke-linejoin="round" d="m 26.49644,1027.8658 0,21.5 c 0,0.831 -0.66899,1.5 -1.49998,1.5 l -18.00004,0 c -0.83099,0 -1.49998,-0.669 -1.49998,-1.5 l 0,-26 c 0,-0.831 0.66899,-1.5 1.49998,-1.5 l 13.50002,0 z"/><path d="M 5 24.003906 L 5 26.003906 L 5 28.003906 L 5 29.003906 C 5 30.111906 5.89198 31.003906 7 31.003906 L 25 31.003906 C 26.10802 31.003906 27 30.111906 27 29.003906 L 27 28.003906 L 27 26.003906 L 27 24.003906 L 25 24.003906 L 7 24.003906 L 5 24.003906 z M 8.4882812 24.986328 L 8.4882812 24.990234 A 0.50005 0.50005 0 0 1 8.6132812 25.005859 L 9.5097656 25.005859 A 0.50005 0.50005 0 0 1 9.6601562 25.027344 C 10.964251 25.140444 12.011719 26.195159 12.011719 27.505859 C 12.011719 28.819059 10.960124 29.874675 9.6523438 29.984375 A 0.50005 0.50005 0 0 1 9.5039062 30.005859 L 8.5039062 30.005859 A 0.50005 0.50005 0 0 1 8.46875 30.005859 A 0.50005 0.50005 0 0 1 8.3300781 29.978516 A 0.50005 0.50005 0 0 1 8.3144531 29.96875 A 0.50005 0.50005 0 0 1 8 29.560547 A 0.50005 0.50005 0 0 1 7.9980469 29.546875 A 0.50005 0.50005 0 0 1 7.9960938 29.523438 A 0.50005 0.50005 0 0 1 7.9960938 29.503906 A 0.50005 0.50005 0 0 1 7.9960938 29.494141 L 7.9960938 25.494141 A 0.50005 0.50005 0 0 1 8.4882812 24.986328 z M 19.548828 24.986328 L 19.548828 24.994141 A 0.44626335 0.44626335 0 0 1 19.964844 25.619141 L 18.414062 29.728516 A 0.44626335 0.44626335 0 0 1 17.578125 29.716797 L 16.496094 26.751953 L 15.410156 29.710938 A 0.44703951 0.44703951 0 0 1 14.572266 29.724609 L 13.015625 25.617188 A 0.44703951 0.44703951 0 0 1 13.441406 25.005859 L 13.441406 24.994141 A 0.44703951 0.44703951 0 0 1 13.851562 25.289062 L 14.982422 28.275391 L 16.066406 25.316406 A 0.44626335 0.44626335 0 0 1 16.076172 25.292969 A 0.44737342 0.44737342 0 0 1 16.082031 25.277344 A 0.44626335 0.44626335 0 0 1 16.101562 25.236328 A 0.44737342 0.44737342 0 0 1 16.103516 25.226562 A 0.44626335 0.44626335 0 0 1 16.332031 25.027344 A 0.44737342 0.44737342 0 0 0 16.333984 25.027344 A 0.44626335 0.44626335 0 0 1 16.509766 24.998047 A 0.44737342 0.44737342 0 0 1 16.929688 25.335938 L 18.003906 28.279297 L 19.130859 25.296875 A 0.44626335 0.44626335 0 0 1 19.548828 24.986328 z M 22.570312 24.998047 L 24.496094 24.998047 A 0.50005 0.50005 0 1 1 24.496094 25.998047 L 22.570312 25.998047 C 22.243739 25.998047 21.996094 26.245666 21.996094 26.572266 L 21.996094 28.423828 C 21.996094 28.750428 22.243793 28.998047 22.570312 28.998047 L 23.421875 28.998047 C 23.748394 28.998047 23.996094 28.750428 23.996094 28.423828 L 23.996094 28.388672 L 23.996094 27.998047 L 23.503906 27.998047 A 0.50005 0.50005 0 1 1 23.503906 26.998047 L 24.488281 26.998047 L 24.490234 26.998047 A 0.50005 0.50005 0 0 1 24.587891 27.007812 A 0.50005 0.50005 0 0 1 24.623047 27.017578 A 0.50005 0.50005 0 0 1 24.636719 27.017578 A 0.50005 0.50005 0 0 1 24.671875 27.029297 A 0.50005 0.50005 0 0 1 24.683594 27.029297 A 0.50005 0.50005 0 0 1 24.716797 27.046875 A 0.50005 0.50005 0 0 1 24.730469 27.056641 A 0.50005 0.50005 0 0 1 24.761719 27.074219 A 0.50005 0.50005 0 0 1 24.773438 27.083984 A 0.50005 0.50005 0 0 1 24.802734 27.105469 A 0.50005 0.50005 0 0 1 24.8125 27.115234 A 0.50005 0.50005 0 0 1 24.90625 27.214844 A 0.50005 0.50005 0 0 1 24.914062 27.226562 A 0.50005 0.50005 0 0 1 24.931641 27.255859 A 0.50005 0.50005 0 0 1 24.939453 27.269531 A 0.50005 0.50005 0 0 1 24.996094 27.544922 L 24.996094 28.429688 L 24.996094 28.498047 A 0.50005 0.50005 0 0 1 24.972656 28.65625 C 24.860279 29.41265 24.207439 30.003906 23.421875 30.003906 L 22.570312 30.003906 C 21.707018 30.003906 20.996094 29.292987 20.996094 28.429688 L 20.996094 26.578125 C 20.996094 25.714825 21.707072 25.003906 22.570312 25.003906 L 22.570312 24.998047 z M 8.9960938 26 L 8.9960938 29 L 9.4335938 29 C 10.3258 29 11.011719 28.3293 11.011719 27.5 C 11.011719 26.6703 10.325829 26 9.4335938 26 L 8.9960938 26 z " transform="translate(0 1020.362)"/><path stroke="#000" stroke-linecap="round" stroke-linejoin="round" d="m 26.49644,1027.8658 -4.49997,0 c -0.83099,0 -1.49998,-0.6691 -1.49998,-1.5 l 0,-4.5"/><path style="line-height:normal;text-indent:0;text-align:start;text-decoration-line:none;text-decoration-style:solid;text-decoration-color:#000;text-transform:none;block-progression:tb;isolation:auto;mix-blend-mode:normal" d="m 15.396484,1028.3622 0,3.5 -1.896484,0 0,1.8984 -3.5,0 0,1.2051 3.5,0 0,1.3965 0,0.5 1.896484,0 0,3.5 1.207032,0 0,-3.5 1.896484,0 0,-1.8965 3.5,0 0,-1.2051 -3.5,0 0,-1.8984 -1.896484,0 0,-3.5 -1.207032,0 z m -0.896484,4.5 3,0 0,3 -3,0 0,-3 z m 1,1 0,1 1,0 0,-1 -1,0 z" color="#000" font-family="sans-serif" font-weight="400" overflow="visible" white-space="normal"/></g></svg>