<svg xmlns="http://www.w3.org/2000/svg" width="32" height="32" viewBox="0 0 32 32"><g transform="translate(0 -1020.362)"><path fill="none" stroke="#000" stroke-linecap="round" stroke-linejoin="round" d="m 26.49644,1027.8658 0,21.5 c 0,0.831 -0.66899,1.5 -1.49998,1.5 l -18.00004,0 c -0.83099,0 -1.49998,-0.669 -1.49998,-1.5 l 0,-26 c 0,-0.831 0.66899,-1.5 1.49998,-1.5 l 13.50002,0 z"/><path d="M 5 24.003906 L 5 26.003906 L 5 28.003906 L 5 29.003906 C 5 30.111906 5.89198 31.003906 7 31.003906 L 25 31.003906 C 26.10802 31.003906 27 30.111906 27 29.003906 L 27 28.003906 L 27 26.003906 L 27 24.003906 L 25 24.003906 L 7 24.003906 L 5 24.003906 z M 13.517578 24.986328 A 0.50005 0.50005 0 0 1 13.900391 25.193359 L 14.998047 26.658203 L 16.095703 25.193359 A 0.50005 0.50005 0 0 1 16.464844 24.988281 A 0.50005 0.50005 0 0 1 16.896484 25.792969 L 15.623047 27.494141 L 16.896484 29.193359 A 0.50019555 0.50019555 0 0 1 16.095703 29.792969 L 14.998047 28.328125 L 13.900391 29.792969 A 0.50019595 0.50019595 0 0 1 13.099609 29.193359 L 14.373047 27.494141 L 13.099609 25.792969 A 0.50005 0.50005 0 0 1 13.466797 24.988281 A 0.50005 0.50005 0 0 1 13.517578 24.988281 L 13.517578 24.986328 z M 8.453125 24.994141 A 0.50005 0.50005 0 0 1 8.4921875 24.994141 A 0.50005 0.50005 0 0 1 8.5039062 24.994141 A 0.50005 0.50005 0 0 1 8.5429688 24.994141 L 11.492188 24.994141 A 0.50005 0.50005 0 1 1 11.492188 25.994141 L 9 25.994141 L 9 26.994141 L 10.492188 26.994141 A 0.50005 0.50005 0 1 1 10.492188 27.994141 L 9 27.994141 L 9 28.994141 L 11.492188 28.994141 A 0.50005 0.50005 0 1 1 11.492188 29.994141 L 8.5566406 29.994141 A 0.50005 0.50005 0 0 1 8.3242188 29.962891 A 0.50005 0.50005 0 0 0 8.3222656 29.962891 A 0.50005 0.50005 0 0 0 8.3203125 29.962891 A 0.50005 0.50005 0 0 1 8.3125 29.962891 A 0.50005 0.50005 0 0 1 8.2324219 29.921875 A 0.50005 0.50005 0 0 1 8.2246094 29.921875 A 0.50005 0.50005 0 0 1 8.1914062 29.896484 A 0.50005 0.50005 0 0 1 8.1835938 29.886719 A 0.50005 0.50005 0 0 1 8.1699219 29.875 A 0.50005 0.50005 0 0 1 8.1484375 29.855469 A 0.50005 0.50005 0 0 1 8.1386719 29.845703 A 0.50005 0.50005 0 0 1 8.1132812 29.816406 A 0.50005 0.50005 0 0 1 8.0839844 29.777344 A 0.50005 0.50005 0 0 1 8.0585938 29.734375 A 0.50005 0.50005 0 0 1 8 29.441406 L 8 27.554688 A 0.50005 0.50005 0 0 1 8 27.441406 L 8 25.554688 A 0.50005 0.50005 0 0 1 8.2988281 25.046875 A 0.50005 0.50005 0 0 1 8.3457031 25.027344 A 0.50005 0.50005 0 0 1 8.3554688 25.027344 A 0.50005 0.50005 0 0 1 8.375 25.017578 A 0.50005 0.50005 0 0 1 8.4042969 25.007812 A 0.50005 0.50005 0 0 1 8.4414062 24.998047 A 0.50005 0.50005 0 0 1 8.453125 24.998047 L 8.453125 24.994141 z M 18.453125 24.996094 A 0.50005 0.50005 0 0 1 18.492188 24.996094 A 0.50005 0.50005 0 0 1 18.503906 24.996094 A 0.50005 0.50005 0 0 1 18.542969 24.996094 L 21.492188 24.996094 A 0.50005 0.50005 0 1 1 21.492188 25.996094 L 19 25.996094 L 19 26.996094 L 20.492188 26.996094 A 0.50005 0.50005 0 1 1 20.492188 27.996094 L 19 27.996094 L 19 28.996094 L 21.492188 28.996094 A 0.50005 0.50005 0 1 1 21.492188 29.996094 L 18.556641 29.996094 A 0.50005 0.50005 0 0 1 18.324219 29.964844 A 0.50005 0.50005 0 0 0 18.322266 29.964844 A 0.50005 0.50005 0 0 0 18.320312 29.964844 A 0.50005 0.50005 0 0 1 18.232422 29.921875 A 0.50005 0.50005 0 0 1 18.224609 29.921875 A 0.50005 0.50005 0 0 1 18.191406 29.898438 A 0.50005 0.50005 0 0 1 18.183594 29.888672 A 0.50005 0.50005 0 0 1 18.169922 29.875 A 0.50005 0.50005 0 0 1 18.148438 29.855469 A 0.50005 0.50005 0 0 1 18.138672 29.845703 A 0.50005 0.50005 0 0 1 18 29.441406 L 18 27.554688 A 0.50005 0.50005 0 0 1 18 27.441406 L 18 25.554688 A 0.50005 0.50005 0 0 1 18.345703 25.027344 A 0.50005 0.50005 0 0 1 18.355469 25.027344 A 0.50005 0.50005 0 0 1 18.375 25.017578 A 0.50005 0.50005 0 0 1 18.402344 25.007812 A 0.50005 0.50005 0 0 0 18.404297 25.007812 A 0.50005 0.50005 0 0 1 18.453125 24.998047 L 18.453125 24.996094 z " transform="translate(0 1020.362)"/><path stroke="#000" stroke-linecap="round" stroke-linejoin="round" d="m 26.49644,1027.8658 -4.49997,0 c -0.83099,0 -1.49998,-0.6691 -1.49998,-1.5 l 0,-4.5"/><path style="line-height:normal;text-indent:0;text-align:start;text-decoration-line:none;text-decoration-style:solid;text-decoration-color:#000;text-transform:none;block-progression:tb;isolation:auto;mix-blend-mode:normal" d="m 9.5,1029.3622 a 0.50005,0.50005 0 0 0 -0.5,0.5 l 0,8 a 0.50005,0.50005 0 0 0 0.5,0.5 l 2.5,0 0,3.5 a 0.50005,0.50005 0 0 0 0.5,0.5 l 9,0 a 0.50005,0.50005 0 0 0 0.5,-0.5 l 0,-8 a 0.50005,0.50005 0 0 0 -0.5,-0.5 l -2.5,0 0,-3.5 a 0.50005,0.50005 0 0 0 -0.5,-0.5 l -9,0 z m 0.5,1 8,0 0,1 -8,0 0,-1 z m 0,2 8,0 0,1 -5.5,0 a 0.50005,0.50005 0 0 0 -0.5,0.5 l 0,3.5 -2,0 0,-5 z m 3,2 8,0 0,1 -8,0 0,-1 z m 0,2 8,0 0,5 -8,0 0,-5 z" color="#000" font-family="sans-serif" font-weight="400" overflow="visible" white-space="normal"/></g></svg>