<svg xmlns="http://www.w3.org/2000/svg" width="32" height="32" viewBox="0 0 32 32"><g transform="translate(0 -1020.362)"><path fill="none" stroke="#000" stroke-linecap="round" stroke-linejoin="round" d="m 26.49644,1027.8658 0,21.5 c 0,0.831 -0.66899,1.5 -1.49998,1.5 l -18.00004,0 c -0.83099,0 -1.49998,-0.669 -1.49998,-1.5 l 0,-26 c 0,-0.831 0.66899,-1.5 1.49998,-1.5 l 13.50002,0 z"/><path stroke="#000" stroke-linecap="round" stroke-linejoin="round" d="m 26.49644,1027.8658 -4.49997,0 c -0.83099,0 -1.49998,-0.6691 -1.49998,-1.5 l 0,-4.5"/><path d="M 5.0039062 24.003906 L 5.0039062 27.003906 L 5.1855469 27.003906 C 5.0745969 27.317906 5.0039062 27.651006 5.0039062 28.003906 C 5.0039062 29.665906 6.3419063 31.003906 8.0039062 31.003906 L 24.003906 31.003906 C 25.665906 31.003906 27.003906 29.665906 27.003906 28.003906 C 27.003906 27.651006 26.933206 27.317906 26.822266 27.003906 L 27.003906 27.003906 L 27.003906 24.003906 L 5.0039062 24.003906 z M 9.578125 24.990234 L 11.503906 24.990234 A 0.50005 0.50005 0 1 1 11.503906 25.990234 L 9.578125 25.990234 C 9.2515498 25.990234 9.0039062 26.237853 9.0039062 26.564453 L 9.0039062 28.416016 C 9.0039065 28.742616 9.2516058 28.990234 9.578125 28.990234 L 10.429688 28.990234 C 10.756206 28.990234 11.003906 28.742616 11.003906 28.416016 L 11.003906 27.990234 L 10.509766 27.990234 A 0.50005 0.50005 0 1 1 10.509766 26.990234 L 11.496094 26.990234 A 0.50005 0.50005 0 0 1 11.53125 26.990234 A 0.50005 0.50005 0 0 1 11.595703 27 A 0.50005 0.50005 0 0 1 11.628906 27.009766 A 0.50005 0.50005 0 0 1 11.644531 27.009766 A 0.50005 0.50005 0 0 1 11.677734 27.021484 A 0.50005 0.50005 0 0 1 11.839844 27.121094 A 0.50005 0.50005 0 0 1 11.845703 27.130859 A 0.50005 0.50005 0 0 1 11.857422 27.142578 A 0.50005 0.50005 0 0 1 11.880859 27.167969 A 0.50005 0.50005 0 0 1 11.890625 27.179688 A 0.50005 0.50005 0 0 1 11.912109 27.207031 A 0.50005 0.50005 0 0 1 11.957031 27.287109 A 0.50005 0.50005 0 0 1 11.960938 27.296875 A 0.50005 0.50005 0 0 1 11.966797 27.3125 A 0.50005 0.50005 0 0 1 11.978516 27.34375 A 0.50005 0.50005 0 0 1 12.001953 27.457031 A 0.50005 0.50005 0 0 1 12.003906 27.492188 A 0.50005 0.50005 0 0 1 12.003906 27.501953 A 0.50005 0.50005 0 0 1 12.003906 27.511719 L 12.003906 28.498047 A 0.50005 0.50005 0 0 1 11.980469 28.65625 C 11.868092 29.41265 11.21525 30.003906 10.429688 30.003906 L 9.578125 30.003906 C 8.7148282 30.003906 8.0039062 29.292987 8.0039062 28.429688 L 8.0039062 26.578125 C 8.0039064 25.714825 8.7148842 25.003906 9.578125 25.003906 L 9.578125 24.990234 z M 13.496094 25.003906 A 0.50005 0.50005 0 0 1 14.003906 25.509766 L 14.003906 29.498047 A 0.50005 0.50005 0 1 1 13.003906 29.498047 L 13.003906 25.509766 A 0.50005 0.50005 0 0 1 13.496094 25.003906 z M 16.578125 25.003906 L 17.503906 25.003906 A 0.50005 0.50005 0 1 1 17.503906 26.003906 L 16.578125 26.003906 C 16.25155 26.003906 16.003906 26.251525 16.003906 26.578125 L 16.003906 27.003906 L 17.003906 27.003906 A 0.50005 0.50005 0 1 1 17.003906 28.003906 L 16.003906 28.003906 L 16.003906 29.503906 A 0.50005 0.50005 0 1 1 15.003906 29.503906 L 15.003906 27.535156 A 0.50005 0.50005 0 0 1 15.003906 27.460938 L 15.003906 26.578125 C 15.003906 25.714825 15.714884 25.003906 16.578125 25.003906 z " transform="translate(0 1020.362)"/><path fill-rule="evenodd" d="m 7,1042.3658 5,-7 5,7 z"/><path fill-rule="evenodd" d="m 11,1042.3658 7,-10 7,10 z"/><circle cx="11" cy="1031.366" r="2"/></g></svg>