<svg xmlns="http://www.w3.org/2000/svg" width="32" height="32" viewBox="0 0 32 32"><g transform="translate(0 -1020.362)"><path fill="none" stroke="#000" stroke-linecap="round" stroke-linejoin="round" d="m 26.49644,1027.8658 0,21.5 c 0,0.831 -0.66899,1.5 -1.49998,1.5 l -18.00004,0 c -0.83099,0 -1.49998,-0.669 -1.49998,-1.5 l 0,-26 c 0,-0.831 0.66899,-1.5 1.49998,-1.5 l 13.50002,0 z"/><path d="M 5 24.003906 L 5 26.003906 L 5 28.003906 L 5 29.003906 C 5 30.111906 5.89198 31.003906 7 31.003906 L 25 31.003906 C 26.10802 31.003906 27 30.111906 27 29.003906 L 27 28.003906 L 27 26.003906 L 27 24.003906 L 25 24.003906 L 7 24.003906 L 5 24.003906 z M 8.4824219 24.994141 A 0.50005 0.50005 0 0 1 8.9902344 25.5 L 8.9902344 29.494141 A 0.50005 0.50005 0 1 1 7.9902344 29.494141 L 7.9902344 25.5 A 0.50005 0.50005 0 0 1 8.4824219 24.994141 z M 11.439453 25.003906 A 0.50005 0.50005 0 0 1 11.490234 25.003906 A 0.50005 0.50005 0 0 1 11.525391 25.003906 L 13.490234 25.003906 A 0.50005 0.50005 0 1 1 13.490234 26.003906 L 11.490234 26.003906 C 11.204586 26.003906 10.990234 26.218306 10.990234 26.503906 C 10.990234 26.789606 11.204586 27.003906 11.490234 27.003906 A 0.50005 0.50005 0 0 1 11.525391 27.003906 L 12.490234 27.003906 A 0.50005 0.50005 0 0 1 12.597656 27.013672 C 13.36997 27.070372 13.990234 27.718306 13.990234 28.503906 C 13.990234 29.290906 13.36782 29.937187 12.59375 29.992188 A 0.50005 0.50005 0 0 1 12.490234 30.003906 L 10.490234 30.003906 A 0.50005 0.50005 0 1 1 10.490234 29.003906 L 12.490234 29.003906 C 12.775883 29.003906 12.990234 28.789606 12.990234 28.503906 C 12.990234 28.218306 12.775883 28.003906 12.490234 28.003906 L 11.490234 28.003906 A 0.50005 0.50005 0 0 1 11.396484 27.994141 C 10.617788 27.944241 9.9902344 27.294306 9.9902344 26.503906 C 9.9902344 25.720306 10.607457 25.075625 11.376953 25.015625 A 0.50005 0.50005 0 0 1 11.439453 25.003906 z M 17.490234 25.003906 C 18.865024 25.003906 19.990234 26.129106 19.990234 27.503906 C 19.990234 28.878706 18.865024 30.003906 17.490234 30.003906 C 16.115445 30.003906 14.990235 28.878706 14.990234 27.503906 C 14.990235 26.129106 16.115445 25.003906 17.490234 25.003906 z M 17.490234 26.003906 C 16.655885 26.003906 15.990234 26.669606 15.990234 27.503906 C 15.990234 28.338306 16.655885 29.003906 17.490234 29.003906 C 18.324584 29.003906 18.990234 28.338306 18.990234 27.503906 C 18.990234 26.669606 18.324584 26.003906 17.490234 26.003906 z " transform="translate(0 1020.362)"/><path stroke="#000" stroke-linecap="round" stroke-linejoin="round" d="m 26.49644,1027.8658 -4.49997,0 c -0.83099,0 -1.49998,-0.6691 -1.49998,-1.5 l 0,-4.5"/><path style="line-height:normal;text-indent:0;text-align:start;text-decoration-line:none;text-decoration-style:solid;text-decoration-color:#000;text-transform:none;block-progression:tb;isolation:auto;mix-blend-mode:normal" d="m 15.996094,1029.3622 c -3.307786,0 -6.0000003,2.6922 -6.0000002,6 0,3.3078 2.6922142,6 6.0000002,6 3.307786,0 6,-2.6922 6,-6 0,-3.3078 -2.692214,-6 -6,-6 z m 0,1 c 2.767346,0 5,2.2327 5,5 0,2.7674 -2.232654,5 -5,5 -2.767346,0 -5,-2.2326 -5,-5 0,-2.7673 2.232654,-5 5,-5 z m 0,3 c -1.098647,0 -2,0.9014 -2,2 0,1.0987 0.901353,2 2,2 1.098647,0 2,-0.9013 2,-2 0,-1.0986 -0.901353,-2 -2,-2 z m 0,1 c 0.558207,0 1,0.4418 1,1 0,0.5582 -0.441793,1 -1,1 -0.558207,0 -1,-0.4418 -1,-1 0,-0.5582 0.441793,-1 1,-1 z" color="#000" font-family="sans-serif" font-weight="400" overflow="visible" white-space="normal"/></g></svg>