<svg xmlns="http://www.w3.org/2000/svg" width="32" height="32" viewBox="0 0 32 32"><g transform="translate(0 -1020.362)"><path fill="none" stroke="#000" stroke-linecap="round" stroke-linejoin="round" d="m 26.49644,1027.8658 0,21.5 c 0,0.831 -0.66899,1.5 -1.49998,1.5 l -18.00004,0 c -0.83099,0 -1.49998,-0.669 -1.49998,-1.5 l 0,-26 c 0,-0.831 0.66899,-1.5 1.49998,-1.5 l 13.50002,0 z"/><path d="M 5 24.003906 L 5 26.003906 L 5 28.003906 L 5 29.003906 C 5 30.111906 5.89198 31.003906 7 31.003906 L 25 31.003906 C 26.10802 31.003906 27 30.111906 27 29.003906 L 27 28.003906 L 27 26.003906 L 27 24.003906 L 25 24.003906 L 7 24.003906 L 5 24.003906 z M 10.496094 24.998047 A 0.50005 0.50005 0 0 1 11.003906 25.505859 L 11.003906 28.498047 C 11.003906 28.498047 11.00392 28.507812 11.003906 28.507812 A 0.50005 0.50005 0 0 1 10.988281 28.640625 C 10.914937 29.396825 10.277845 30 9.5039062 30 C 8.6815617 30 8.0039062 29.3224 8.0039062 28.5 A 0.50005 0.50005 0 0 1 8.4960938 27.994141 A 0.50005 0.50005 0 0 1 9.0039062 28.5 C 9.0039062 28.7857 9.2182769 29 9.5039062 29 C 9.7895372 29 10.003906 28.7857 10.003906 28.5 L 10.003906 25.507812 A 0.50005 0.50005 0 0 1 10.496094 25 L 10.496094 24.998047 z M 13.445312 25 A 0.50005 0.50005 0 0 1 13.496094 25 A 0.50005 0.50005 0 0 1 13.53125 25 L 15.496094 25 A 0.50005 0.50005 0 1 1 15.496094 26 L 13.496094 26 C 13.210445 26 12.996094 26.2144 12.996094 26.5 C 12.996094 26.7857 13.210445 27 13.496094 27 A 0.50005 0.50005 0 0 1 13.53125 27 L 14.496094 27 A 0.50005 0.50005 0 0 1 14.603516 27.009766 C 15.375828 27.066566 15.996094 27.7144 15.996094 28.5 C 15.996094 29.287 15.373678 29.933281 14.599609 29.988281 A 0.50005 0.50005 0 0 1 14.496094 30 L 12.496094 30 A 0.50005 0.50005 0 1 1 12.496094 29 L 14.496094 29 C 14.781742 29 14.996094 28.7857 14.996094 28.5 C 14.996094 28.2144 14.781742 28 14.496094 28 L 13.496094 28 A 0.50005 0.50005 0 0 1 13.402344 27.990234 C 12.623646 27.940334 11.996094 27.2904 11.996094 26.5 C 11.996094 25.7164 12.613316 25.071719 13.382812 25.011719 A 0.50005 0.50005 0 0 1 13.445312 25 z " transform="translate(0 1020.362)"/><path stroke="#000" stroke-linecap="round" stroke-linejoin="round" d="m 26.49644,1027.8658 -4.49997,0 c -0.83099,0 -1.49998,-0.6691 -1.49998,-1.5 l 0,-4.5"/><path style="line-height:normal;text-indent:0;text-align:start;text-decoration-line:none;text-decoration-style:solid;text-decoration-color:#000;text-transform:none;block-progression:tb;isolation:auto;mix-blend-mode:normal" d="m 13.507812,1030.3661 c -1.099351,0 -1.999999,0.9007 -2,2 l 0,0.9551 0,0.045 c 0,0.5627 -0.43735,1 -1,1 a 0.50005,0.50005 0 0 0 -0.09961,0.01 0.50005,0.50005 0 0 0 -0.386719,0.3516 0.50005,0.50005 0 0 0 -0.01172,0.047 0.50005,0.50005 0 0 0 0,0 0.50005,0.50005 0 0 0 0.498046,0.5918 c 0.56265,0 1,0.4374 1,1 l 0,0.047 0,0.9531 c 0,1.0994 0.90065,2 2,2 a 0.50005,0.50005 0 1 0 0,-1 c -0.562647,0 -1,-0.4373 -1,-1 l 0,-0.9531 0,-0.047 c 0,-0.5983 -0.272971,-1.1325 -0.693359,-1.5 0.420928,-0.3674 0.693359,-0.9012 0.693359,-1.5 l 0,-0.045 0,-0.9551 c 0,-0.5626 0.437352,-1 1,-1 a 0.50005,0.50005 0 1 0 0,-1 z m 4.933594,0 a 0.50064429,0.50064429 0 0 0 0.05078,1 c 0.562647,0 1,0.4374 1,1 l 0,0.9551 0,0.045 c 0,0.5988 0.272431,1.1325 0.693359,1.5 -0.420388,0.3675 -0.69336,0.9017 -0.693359,1.5 l 0,0.047 0,0.9531 c 0,0.5627 -0.437353,1 -1,1 a 0.50005,0.50005 0 1 0 0,1 c 1.09935,0 2,-0.9006 2,-2 l 0,-0.9531 0,-0.047 c 0,-0.5626 0.43735,-1 1,-1 a 0.50005,0.50005 0 0 0 0.324218,-0.1133 0.50005,0.50005 0 0 0 0.03711,-0.035 0.50005,0.50005 0 0 0 -0.361328,-0.8516 c -0.56265,0 -1.000002,-0.4373 -1,-1 l 0,-0.045 0,-0.9551 c 0,-1.0993 -0.90065,-2 -2,-2 a 0.50005,0.50005 0 0 0 -0.05078,0 z M 16,1031.8602 a 1,1 0 0 0 -1,1 1,1 0 0 0 1,1 1,1 0 0 0 1,-1 1,1 0 0 0 -1,-1 z m 0,3 a 1,1 0 0 0 -1,1 1,1 0 0 0 0.507812,0.8711 l -0.449218,0.9024 a 0.50005,0.50005 0 1 0 0.894531,0.4453 l 0.75,-1.5078 a 1,1 0 0 0 0.294922,-0.6719 0.50005,0.50005 0 0 0 0,-0.01 1,1 0 0 0 0.002,-0.033 1,1 0 0 0 -1,-1 z" color="#000" font-family="sans-serif" font-weight="400" overflow="visible" white-space="normal"/></g></svg>