<svg xmlns="http://www.w3.org/2000/svg" width="32" height="32" viewBox="0 0 32 32"><g transform="translate(0 -1020.362)"><path fill="none" stroke="#000" stroke-linecap="round" stroke-linejoin="round" d="m 26.49644,1027.8658 0,21.5 c 0,0.831 -0.66899,1.5 -1.49998,1.5 l -18.00004,0 c -0.83099,0 -1.49998,-0.669 -1.49998,-1.5 l 0,-26 c 0,-0.831 0.66899,-1.5 1.49998,-1.5 l 13.50002,0 z"/><path fill-rule="evenodd" style="line-height:normal;text-indent:0;text-align:start;text-decoration-line:none;text-decoration-style:solid;text-decoration-color:#000;text-transform:none;block-progression:tb;isolation:auto;mix-blend-mode:normal" d="M 15.492188,1029.3622 A 0.50005,0.50005 0 0 0 15,1029.87 l 0,0.4922 -4.5,0 a 0.50005,0.50005 0 0 0 -0.5,0.5 l 0,7 a 0.50005,0.50005 0 0 0 0.5,0.5 l 2.304688,0 -0.779297,2.3359 a 0.50028181,0.50028181 0 0 0 0.949218,0.3164 l 0.884766,-2.6523 1.140625,0 a 0.50005,0.50005 0 0 0 0,0 l 0,2.998 a 0.50005,0.50005 0 1 0 1,0 l 0,-2.998 a 0.50005,0.50005 0 0 0 0,-0 l 1.140625,0 0.884766,2.6523 a 0.50028181,0.50028181 0 0 0 0.949218,-0.3164 l -0.779297,-2.3359 2.304688,0 a 0.50005,0.50005 0 0 0 0.5,-0.5 l 0,-7 a 0.50005,0.50005 0 0 0 -0.5,-0.5 l -4.5,0 0,-0.4922 a 0.50005,0.50005 0 0 0 -0.507812,-0.5078 z m -4.492188,2 9,0 0,6 -2.392578,0 a 0.50005,0.50005 0 0 0 -0.128906,-0.012 0.50005,0.50005 0 0 0 -0.08984,0.012 l -3.777344,0 a 0.50005,0.50005 0 0 0 -0.105469,-0.012 0.50005,0.50005 0 0 0 -0.115234,0.012 l -2.390625,0 0,-6 z" color="#000" font-family="sans-serif" font-weight="400" overflow="visible" white-space="normal"/><path d="M 5 24.003906 L 5 26.003906 L 5 28.003906 L 5 29.003906 C 5 30.111906 5.89198 31.003906 7 31.003906 L 25 31.003906 C 26.10802 31.003906 27 30.111906 27 29.003906 L 27 28.003906 L 27 26.003906 L 27 24.003906 L 25 24.003906 L 7 24.003906 L 5 24.003906 z M 17.488281 24.994141 A 0.50005 0.50005 0 0 1 17.574219 25.003906 L 18.496094 25.003906 A 0.50005 0.50005 0 1 1 18.496094 26.003906 L 17.996094 26.003906 L 17.996094 29.498047 A 0.50005 0.50005 0 1 1 16.996094 29.498047 L 16.996094 26.003906 L 16.496094 26.003906 A 0.50005 0.50005 0 1 1 16.496094 25.003906 L 17.414062 25.003906 A 0.50005 0.50005 0 0 1 17.488281 24.994141 z M 9.4960938 25.003906 L 9.4960938 25.007812 C 10.318599 25.007812 10.996094 25.685313 10.996094 26.507812 C 10.996094 27.330312 10.318599 28.007812 9.4960938 28.007812 C 9.3204293 28.007812 9.1533422 27.971063 8.9960938 27.914062 L 8.9960938 29.501953 A 0.50005 0.50005 0 1 1 7.9960938 29.501953 L 7.9960938 26.507812 L 7.9960938 26.498047 A 0.50005 0.50005 0 0 1 8.0097656 26.373047 C 8.0100556 26.373047 8.0114013 26.363281 8.0117188 26.363281 C 8.0846156 25.606581 8.7216929 25.003906 9.4960938 25.003906 z M 13.496094 25.003906 C 14.318599 25.003906 14.996094 25.681406 14.996094 26.503906 C 14.996094 27.326406 14.318599 28.003906 13.496094 28.003906 C 13.320429 28.003906 13.153342 27.967156 12.996094 27.910156 L 12.996094 29.498047 A 0.50005 0.50005 0 1 1 11.996094 29.498047 L 11.996094 26.498047 A 0.50005 0.50005 0 0 1 12.009766 26.373047 C 12.077961 25.611747 12.718322 25.003906 13.496094 25.003906 z M 9.4960938 26 C 9.2160445 26 8.9991738 26.215141 8.9960938 26.494141 L 8.9960938 26.503906 C 8.9960938 26.786006 9.2140291 27.003906 9.4960938 27.003906 C 9.7781584 27.003906 9.9960938 26.786006 9.9960938 26.503906 C 9.9960938 26.221906 9.7781583 26.003906 9.4960938 26.003906 L 9.4960938 26 z M 13.496094 26 C 13.216044 26 12.999194 26.215141 12.996094 26.494141 L 12.996094 26.503906 C 12.996094 26.786006 13.214029 27.003906 13.496094 27.003906 C 13.778158 27.003906 13.996094 26.786006 13.996094 26.503906 C 13.996094 26.221906 13.778158 26.003906 13.496094 26.003906 L 13.496094 26 z " transform="translate(0 1020.362)"/><path stroke="#000" stroke-linecap="round" stroke-linejoin="round" d="m 26.49644,1027.8658 -4.49997,0 c -0.83099,0 -1.49998,-0.6691 -1.49998,-1.5 l 0,-4.5"/></g></svg>