<svg xmlns="http://www.w3.org/2000/svg" width="32" height="32" viewBox="0 0 32 32"><g transform="translate(0 -1020.362)"><path fill="none" stroke="#000" stroke-linecap="round" stroke-linejoin="round" d="m 26.49644,1027.8658 0,21.5 c 0,0.831 -0.66899,1.5 -1.49998,1.5 l -18.00004,0 c -0.83099,0 -1.49998,-0.669 -1.49998,-1.5 l 0,-26 c 0,-0.831 0.66899,-1.5 1.49998,-1.5 l 13.50002,0 z"/><path d="M 5 24.003906 L 5 26.003906 L 5 28.003906 L 5 29.003906 C 5 30.111906 5.89198 31.003906 7 31.003906 L 25 31.003906 C 26.10802 31.003906 27 30.111906 27 29.003906 L 27 28.003906 L 27 26.003906 L 27 24.003906 L 25 24.003906 L 7 24.003906 L 5 24.003906 z M 9.4921875 25 L 9.4921875 25.003906 C 10.314692 25.003906 10.992188 25.681406 10.992188 26.503906 C 10.992186 27.326406 10.314692 28.003906 9.4921875 28.003906 C 9.316523 28.003906 9.149436 27.967156 8.9921875 27.910156 L 8.9921875 29.498047 A 0.50005 0.50005 0 1 1 7.9921875 29.498047 L 7.9921875 26.503906 L 7.9921875 26.494141 A 0.50005 0.50005 0 0 1 8.0058594 26.376953 C 8.0703285 25.611853 8.7117738 25 9.4921875 25 z M 13.441406 25 A 0.50005 0.50005 0 0 1 13.492188 25 A 0.50005 0.50005 0 0 1 13.527344 25 L 15.492188 25 A 0.50005 0.50005 0 1 1 15.492188 26 L 13.492188 26 C 13.206539 26 12.992188 26.2144 12.992188 26.5 C 12.992188 26.7857 13.206539 27 13.492188 27 A 0.50005 0.50005 0 0 1 13.527344 27 L 14.492188 27 A 0.50005 0.50005 0 0 1 14.599609 27.009766 C 15.371922 27.066466 15.992188 27.7144 15.992188 28.5 C 15.992187 29.287 15.369772 29.933281 14.595703 29.988281 A 0.50005 0.50005 0 0 1 14.492188 30 L 12.492188 30 A 0.50005 0.50005 0 1 1 12.492188 29 L 14.492188 29 C 14.777836 29 14.992188 28.7857 14.992188 28.5 C 14.992188 28.2144 14.777836 28 14.492188 28 L 13.492188 28 A 0.50005 0.50005 0 0 1 13.398438 27.990234 C 12.61974 27.940334 11.992188 27.2904 11.992188 26.5 C 11.992187 25.7164 12.609409 25.071719 13.378906 25.011719 A 0.50005 0.50005 0 0 1 13.441406 25 z M 17.478516 25 A 0.50005 0.50005 0 0 1 17.611328 25.015625 L 18.5 25.015625 A 0.50005 0.50005 0 0 1 18.650391 25.035156 C 19.954294 25.148356 21 26.202872 21 27.513672 C 21 28.827372 19.949125 29.883488 18.640625 29.992188 A 0.50005 0.50005 0 0 1 18.492188 30.013672 L 17.492188 30.013672 A 0.50005 0.50005 0 0 1 17.394531 30.003906 A 0.50005 0.50005 0 0 1 17.359375 29.994141 A 0.50005 0.50005 0 0 1 17.257812 29.955078 A 0.50005 0.50005 0 0 1 17.25 29.955078 A 0.50005 0.50005 0 0 1 16.986328 29.472656 L 16.986328 25.507812 A 0.50005 0.50005 0 0 1 17.478516 25 z M 9.4921875 25.996094 C 9.2121383 25.996094 8.9952675 26.211234 8.9921875 26.490234 L 8.9921875 26.5 C 8.9921875 26.7821 9.2101228 27 9.4921875 27 C 9.7742523 27 9.9921875 26.7821 9.9921875 26.5 C 9.9921875 26.218 9.7742523 26 9.4921875 26 L 9.4921875 25.996094 z M 17.986328 26.015625 L 17.986328 29.015625 L 18.423828 29.015625 C 19.316035 29.015625 20 28.344925 20 27.515625 C 20 26.685925 19.316064 26.015625 18.423828 26.015625 L 17.986328 26.015625 z " transform="translate(0 1020.362)"/><path stroke="#000" stroke-linecap="round" stroke-linejoin="round" d="m 26.49644,1027.8658 -4.49997,0 c -0.83099,0 -1.49998,-0.6691 -1.49998,-1.5 l 0,-4.5"/><path fill-rule="evenodd" style="line-height:normal;text-indent:0;text-align:start;text-decoration-line:none;text-decoration-style:solid;text-decoration-color:#000;text-transform:none;block-progression:tb;isolation:auto;mix-blend-mode:normal" d="m 18.126953,1028.5419 c -0.342611,-0.01 -0.710025,0.141 -0.986328,0.4258 a 0.50005,0.50005 0 0 0 -0.02734,0.029 c 0,0 -2.481234,3.0291 -5.177734,6.5078 -0.41881,0.028 -0.856054,0.046 -1.160156,0.334 -0.393047,0.3716 -0.553357,0.922 -0.460938,1.455 0.0011,-0 0.0028,-0 0.0039,-0.01 a 0.50005,0.50005 0 0 1 0.03125,-0.053 c -0.05692,0.082 -0.03897,0.076 -0.0332,0.068 0.0042,0.023 6.5e-4,0.047 0.0059,0.07 l -0.0098,-0.064 c -3.54e-4,9e-4 0.0044,-0.01 0.0039,-0.01 -5.89e-4,-0 -0.0014,-0.01 -0.002,-0.01 -0.197425,0.3771 -0.5322403,0.6607 -0.9296874,0.791 a 0.50005,0.50005 0 0 0 -0.2871094,0.2442 l -0.015625,0.029 a 0.50005,0.50005 0 0 0 -0.015625,0.4297 c 0.4916328,1.1383 1.7375608,1.7555 2.9414058,1.459 1.159059,-0.2854 1.968053,-1.3317 1.984376,-2.5176 l -0.0332,0.078 0.03906,-0.2148 c 0.0018,0.046 -0.0052,0.091 -0.0059,0.1367 l 0.146484,-0.3477 5.085937,-6.6504 c 0.235722,-0.3065 0.317256,-0.6867 0.259766,-1.0175 -0.0574,-0.3307 -0.233618,-0.6134 -0.470617,-0.8202 -0.236999,-0.2068 -0.544107,-0.3458 -0.886719,-0.3516 z m -0.01758,0.998 0,0 c 0.07584,0 0.17059,0.038 0.248047,0.1055 0.07746,0.068 0.129263,0.1597 0.142578,0.2363 0.01331,0.077 0.0084,0.1365 -0.06836,0.2363 l -4.783203,6.2559 c -0.0302,-0.057 -0.04657,-0.1199 -0.08203,-0.1739 -0.130855,-0.1989 -0.303831,-0.3693 -0.505859,-0.5097 2.529765,-3.2496 4.781723,-6.0056 4.802734,-6.0313 0.103674,-0.1051 0.171439,-0.1223 0.246094,-0.1211 z m -5.908203,6.834 a 0.50005,0.50005 0 0 0 0.02148,0 0.50005,0.50005 0 0 0 0.0059,0 c 0.252902,0.09 0.387844,0.2015 0.501953,0.375 0.114108,0.1734 0.200358,0.4284 0.251953,0.7813 a 0.50036078,0.50036078 0 0 0 0.01563,0.07 0.50005,0.50005 0 0 0 0,0.025 c 0.02986,0.7722 -0.488966,1.4619 -1.230469,1.6445 -0.634825,0.1564 -1.215152,-0.1484 -1.574219,-0.6621 0.373926,-0.2419 0.781823,-0.4489 0.994141,-0.8496 0.08338,-0.1396 0.103451,-0.2463 0.113281,-0.3242 0.01096,-0.087 0.01332,-0.1266 0.0078,-0.2071 a 0.50005,0.50005 0 0 0 -0.0098,-0.074 c -0.05521,-0.247 0.006,-0.4424 0.164063,-0.5918 0.158043,-0.1495 0.425534,-0.2383 0.738281,-0.1914 z" color="#000" font-family="sans-serif" font-weight="400" overflow="visible" white-space="normal"/></g></svg>