<svg xmlns="http://www.w3.org/2000/svg" width="32" height="32" viewBox="0 0 32 32"><g transform="translate(0 -1020.362)"><path fill="none" stroke="#000" stroke-linecap="round" stroke-linejoin="round" d="m 26.49644,1027.8658 0,21.5 c 0,0.831 -0.66899,1.5 -1.49998,1.5 l -18.00004,0 c -0.83099,0 -1.49998,-0.669 -1.49998,-1.5 l 0,-26 c 0,-0.831 0.66899,-1.5 1.49998,-1.5 l 13.50002,0 z"/><path d="M 5 24.003906 L 5 26.003906 L 5 28.003906 L 5 29.003906 C 5 30.111906 5.89198 31.003906 7 31.003906 L 25 31.003906 C 26.10802 31.003906 27 30.111906 27 29.003906 L 27 28.003906 L 27 26.003906 L 27 24.003906 L 25 24.003906 L 7 24.003906 L 5 24.003906 z M 13.458984 24.998047 A 0.50005 0.50005 0 0 1 13.509766 24.998047 A 0.50005 0.50005 0 0 1 13.951172 25.28125 L 15.503906 28.386719 L 17.056641 25.28125 A 0.50005814 0.50005814 0 0 1 17.951172 25.728516 L 15.951172 29.728516 A 0.50005 0.50005 0 0 1 15.056641 29.728516 L 13.056641 25.728516 A 0.50005 0.50005 0 0 1 13.458984 24.998047 z M 9.4492188 25.003906 A 0.50005 0.50005 0 0 1 9.5 25.003906 A 0.50005 0.50005 0 0 1 9.5351562 25.003906 L 11.5 25.003906 A 0.50005 0.50005 0 1 1 11.5 26.003906 L 9.5 26.003906 C 9.2143514 26.003906 9 26.218306 9 26.503906 C 9 26.789606 9.2143514 27.003906 9.5 27.003906 L 10.5 27.003906 A 0.50005 0.50005 0 0 1 10.607422 27.013672 C 11.379735 27.070372 12 27.718306 12 28.503906 C 12 29.290906 11.377585 29.937388 10.603516 29.992188 A 0.50005 0.50005 0 0 1 10.5 30.003906 L 8.5 30.003906 A 0.50005 0.50005 0 1 1 8.5 29.003906 L 10.5 29.003906 C 10.785649 29.003906 11 28.789606 11 28.503906 C 11 28.218306 10.785649 28.003906 10.5 28.003906 L 9.5 28.003906 A 0.50005 0.50005 0 0 1 9.40625 27.994141 C 8.6275532 27.944241 8 27.294306 8 26.503906 C 8 25.720306 8.6172218 25.074831 9.3867188 25.019531 A 0.50005 0.50005 0 0 1 9.4492188 25.007812 L 9.4492188 25.003906 z M 20.574219 25.003906 L 22.5 25.003906 A 0.50005 0.50005 0 1 1 22.5 26.003906 L 20.574219 26.003906 C 20.247644 26.003906 20 26.251525 20 26.578125 L 20 28.429688 C 20 28.756288 20.247898 29.004187 20.574219 28.992188 L 21.425781 28.992188 C 21.7523 28.992188 22 28.744569 22 28.417969 L 22 28.382812 L 22 27.992188 L 21.507812 27.992188 A 0.50005 0.50005 0 1 1 21.507812 26.992188 L 22.492188 26.992188 A 0.50005 0.50005 0 0 1 22.527344 26.992188 A 0.50005 0.50005 0 0 1 22.576172 27.001953 A 0.50005 0.50005 0 0 1 22.591797 27.001953 A 0.50005 0.50005 0 0 1 22.625 27.011719 A 0.50005 0.50005 0 0 1 22.640625 27.011719 A 0.50005 0.50005 0 0 1 22.673828 27.023438 A 0.50005 0.50005 0 0 1 22.71875 27.042969 A 0.50005 0.50005 0 0 1 22.763672 27.066406 A 0.50005 0.50005 0 0 1 22.804688 27.095703 A 0.50005 0.50005 0 0 1 22.835938 27.119141 A 0.50005 0.50005 0 0 1 22.841797 27.130859 A 0.50005 0.50005 0 0 1 22.853516 27.142578 A 0.50005 0.50005 0 0 1 22.876953 27.167969 A 0.50005 0.50005 0 0 1 22.886719 27.179688 A 0.50005 0.50005 0 0 1 22.908203 27.205078 A 0.50005 0.50005 0 0 1 22.953125 27.285156 A 0.50005 0.50005 0 0 1 22.957031 27.296875 A 0.50005 0.50005 0 0 1 22.962891 27.3125 A 0.50005 0.50005 0 0 1 22.974609 27.34375 A 0.50005 0.50005 0 0 1 22.988281 27.392578 A 0.50005 0.50005 0 0 1 22.996094 27.441406 A 0.50005 0.50005 0 0 1 22.998047 27.457031 A 0.50005 0.50005 0 0 1 23 27.492188 A 0.50005 0.50005 0 0 1 23 27.501953 A 0.50005 0.50005 0 0 1 23 27.511719 L 23 28.429688 L 23 28.498047 A 0.50005 0.50005 0 0 1 22.976562 28.65625 C 22.864185 29.41265 22.211345 30.003906 21.425781 30.003906 L 20.574219 30.003906 C 19.710922 30.003906 19 29.292987 19 28.429688 L 19 26.578125 C 19 25.714825 19.710978 25.003712 20.574219 25.007812 L 20.574219 25.003906 z " transform="translate(0 1020.362)"/><path stroke="#000" stroke-linecap="round" stroke-linejoin="round" d="m 26.49644,1027.8658 -4.49997,0 c -0.83099,0 -1.49998,-0.6691 -1.49998,-1.5 l 0,-4.5"/><path style="line-height:normal;text-indent:0;text-align:start;text-decoration-line:none;text-decoration-style:solid;text-decoration-color:#000;text-transform:none;block-progression:tb;isolation:auto;mix-blend-mode:normal" d="m 13.5,1031.3661 0,2 -2.59375,0 c -0.208482,-0.579 -0.759409,-1 -1.40625,-1 -0.8225048,0 -1.5,0.6775 -1.5,1.5 0,0.8225 0.6774952,1.5 1.5,1.5 0.64619,0 1.197277,-0.4219 1.40625,-1 l 1.388672,0 c -2.02776,1.1786 -3.2949007,3.2474 -3.294922,5.5 l 0,0.5 1,0 0,-0.5 c 1.8e-5,-1.9509 1.123713,-3.7623 2.984375,-4.7539 0.167278,-0.089 0.341739,-0.1613 0.515625,-0.2344 l 0,0.9883 0,0.5 5,0 0,-1.4883 c 0.173886,0.073 0.348347,0.1453 0.515625,0.2344 1.860662,0.9916 2.984357,2.803 2.984375,4.7539 l 0,0.5 1,0 0,-0.5 c -2.1e-5,-2.2526 -1.267162,-4.3214 -3.294922,-5.5 l 1.388672,0 c 0.208973,0.5781 0.76006,1 1.40625,1 0.822505,0 1.5,-0.6775 1.5,-1.5 0,-0.8225 -0.677495,-1.5 -1.5,-1.5 -0.646841,0 -1.197768,0.421 -1.40625,1 l -2.59375,0 0,-2 -5,0 z m 1,1 3,0 0,1 -1.46875,0 c -0.02086,-10e-5 -0.04164,-10e-5 -0.0625,0 l -1.46875,0 0,-1 z m -5,1 c 0.2820647,0 0.5,0.218 0.5,0.5 0,0.2821 -0.2179353,0.5 -0.5,0.5 -0.2820647,0 -0.5,-0.2179 -0.5,-0.5 0,-0.282 0.2179353,-0.5 0.5,-0.5 z m 13,0 c 0.282065,0 0.5,0.218 0.5,0.5 0,0.2821 -0.217935,0.5 -0.5,0.5 -0.282065,0 -0.5,-0.2179 -0.5,-0.5 0,-0.282 0.217935,-0.5 0.5,-0.5 z m -6.5,1.002 c 0.504127,0 1.008568,0.06 1.5,0.1757 l 0,0.8223 -3,0 0,-0.8223 c 0.491432,-0.1159 0.995873,-0.1757 1.5,-0.1757 z" color="#000" font-family="sans-serif" font-weight="400" overflow="visible" white-space="normal"/></g></svg>