<svg xmlns="http://www.w3.org/2000/svg" width="32" height="32" viewBox="0 0 32 32"><g transform="translate(0 -1020.362)"><path fill-rule="evenodd" style="line-height:normal;text-indent:0;text-align:start;text-decoration-line:none;text-decoration-style:solid;text-decoration-color:#000;text-transform:none;block-progression:tb;isolation:auto;mix-blend-mode:normal" d="m 6.9960938,1021.3652 c -1.0993446,0 -2.0000001,0.9007 -2,2 l 0,26 c 0,1.0994 0.9006554,2 2,2 l 18.0000002,0 c 1.099344,0 2,-0.9006 2,-2 l 0,-21.5 a 0.50004997,0.50004997 0 0 0 -0.146485,-0.3535 l -6,-6 a 0.50004997,0.50004997 0 0 0 -0.353515,-0.1465 l -13.5000002,0 z m 0,1 13.2929682,0 5.707032,5.7071 0,21.2929 c 0,0.5627 -0.437365,1 -1,1 l -18.0000002,0 c -0.5626355,0 -1.0000001,-0.4373 -1,-1 l 0,-26 c 0,-0.5626 0.4373645,-1 1,-1 z" color="#000" font-family="sans-serif" font-weight="400" overflow="visible" white-space="normal"/><path d="M 5 24.003906 L 5 26.003906 L 5 28.003906 L 5 29.003906 C 5 30.111906 5.89198 31.003906 7 31.003906 L 25 31.003906 C 26.10802 31.003906 27 30.111906 27 29.003906 L 27 28.003906 L 27 26.003906 L 27 24.003906 L 25 24.003906 L 7 24.003906 L 5 24.003906 z M 16.464844 24.990234 A 0.50005 0.50005 0 0 1 16.515625 24.990234 A 0.50005 0.50005 0 0 1 16.998047 25.550781 L 16.998047 29.496094 A 0.50005 0.50005 0 1 1 15.998047 29.496094 L 15.998047 26.996094 L 15.400391 27.794922 A 0.50005 0.50005 0 0 1 14.521484 27.689453 L 13.998047 26.992188 L 13.998047 29.496094 A 0.50005 0.50005 0 1 1 12.998047 29.496094 L 12.998047 25.505859 A 0.50005 0.50005 0 0 1 13.490234 25 A 0.50005 0.50005 0 0 1 13.898438 25.199219 L 13.902344 25.199219 L 15 26.664062 L 16.097656 25.199219 A 0.50005 0.50005 0 0 1 16.464844 24.992188 L 16.464844 24.990234 z M 8.4667969 24.992188 A 0.50005 0.50005 0 0 1 8.5175781 24.992188 A 0.50005 0.50005 0 0 1 8.9003906 25.199219 L 9.9980469 26.664062 L 11.095703 25.199219 A 0.50005 0.50005 0 0 1 11.462891 24.992188 A 0.50005 0.50005 0 0 1 11.513672 24.992188 A 0.50005 0.50005 0 0 1 11.896484 25.796875 L 10.623047 27.498047 L 11.896484 29.199219 A 0.50005 0.50005 0 1 1 11.095703 29.796875 L 9.9980469 28.332031 L 8.9003906 29.796875 A 0.50005 0.50005 0 1 1 8.0996094 29.199219 L 9.3730469 27.498047 L 8.0996094 25.796875 A 0.50005 0.50005 0 0 1 8.4667969 24.992188 z M 18.490234 25.001953 L 18.490234 25.009766 A 0.50005 0.50005 0 0 1 18.998047 25.515625 L 18.998047 29.011719 L 20.494141 29.011719 A 0.50005 0.50005 0 1 1 20.494141 30.011719 L 18.505859 30.011719 A 0.50005 0.50005 0 0 1 18.470703 30.011719 A 0.50005 0.50005 0 0 1 18.332031 29.984375 A 0.50005 0.50005 0 0 1 18.316406 29.974609 A 0.50005 0.50005 0 0 1 18.001953 29.566406 A 0.50005 0.50005 0 0 1 18 29.552734 A 0.50005 0.50005 0 0 1 18 29.527344 A 0.50005 0.50005 0 0 1 17.998047 29.507812 A 0.50005 0.50005 0 0 1 17.998047 29.498047 L 17.998047 25.507812 A 0.50005 0.50005 0 0 1 18.490234 25.001953 z " transform="translate(0 1020.362)"/><path stroke="#000" stroke-linecap="round" stroke-linejoin="round" d="m 26.496439,1027.8658 -4.49997,0 c -0.83099,0 -1.49998,-0.6691 -1.49998,-1.5 l 0,-4.5"/><path fill-rule="evenodd" style="line-height:normal;text-indent:0;text-align:start;text-decoration-line:none;text-decoration-style:solid;text-decoration-color:#000;text-transform:none;block-progression:tb;isolation:auto;mix-blend-mode:normal" d="m 18.326172,1031.3661 a 0.50004997,0.50004997 0 0 0 -0.441406,0.2559 l -4.638672,7.9882 a 0.50004997,0.50004997 0 1 0 0.863281,0.502 L 18.75,1032.1239 a 0.50004997,0.50004997 0 0 0 -0.423828,-0.7578 z m -6.800781,0.9981 a 0.50005,0.50005 0 0 0 -0.345703,0.1503 l -3.0039068,2.9707 -0.023437,0.021 a 0.50005,0.50005 0 0 0 -0.013672,0.014 0.50005,0.50005 0 0 0 -0.033203,0.037 0.50005,0.50005 0 0 0 -0.027344,0.041 0.50005,0.50005 0 0 0 -0.025391,0.043 0.50005,0.50005 0 0 0 0.1386718,0.623 l 2.988282,2.9551 a 0.50005,0.50005 0 1 0 0.703124,-0.7109 l -2.6718745,-2.6426 2.6718745,-2.6406 a 0.50005,0.50005 0 0 0 -0.357421,-0.8613 z m 8.929687,0 a 0.50005,0.50005 0 0 0 -0.341797,0.8613 l 2.671875,2.6406 -2.671875,2.6426 a 0.50005,0.50005 0 1 0 0.701172,0.7109 l 2.990235,-2.9551 a 0.50005,0.50005 0 0 0 0.105468,-0.6816 0.50005,0.50005 0 0 0 -0.0059,-0.01 0.50005,0.50005 0 0 0 -0.02539,-0.031 0.50005,0.50005 0 0 0 -0.0059,-0.01 0.50005,0.50005 0 0 0 -0.02734,-0.029 0.50005,0.50005 0 0 0 -0.002,0 l -0.01941,-0.02 a 0.50005,0.50005 0 0 0 -0.01563,-0.014 l -2.994141,-2.959 a 0.50005,0.50005 0 0 0 -0.359375,-0.1503 z" color="#000" font-family="sans-serif" font-weight="400" overflow="visible" white-space="normal"/></g></svg>