<svg xmlns="http://www.w3.org/2000/svg" width="32" height="32" viewBox="0 0 32 32"><g transform="translate(0 -1020.362)"><path fill="none" stroke="#000" stroke-linecap="round" stroke-linejoin="round" d="m 26.49822,1027.8658 0,21.5 c 0,0.831 -0.66899,1.5 -1.49998,1.5 l -18.00004,0 c -0.83099,0 -1.49998,-0.669 -1.49998,-1.5 l 0,-26 c 0,-0.831 0.66899,-1.5 1.49998,-1.5 l 13.50002,0 z"/><path d="M 4.9980469 24.003906 L 4.9980469 26.003906 L 4.9980469 28.003906 L 4.9980469 29.003906 C 4.9980469 30.111906 5.8900269 31.003906 6.9980469 31.003906 L 24.998047 31.003906 C 26.106067 31.003906 26.998047 30.111906 26.998047 29.003906 L 26.998047 28.003906 L 26.998047 26.003906 L 26.998047 24.003906 L 24.998047 24.003906 L 6.9980469 24.003906 L 4.9980469 24.003906 z M 11.511719 24.986328 A 0.50005 0.50005 0 0 1 11.658203 25.013672 A 0.50005 0.50005 0 0 1 11.675781 25.023438 A 0.50005 0.50005 0 0 1 11.705078 25.035156 A 0.50005 0.50005 0 0 1 11.720703 25.044922 A 0.50005 0.50005 0 0 1 11.75 25.060547 A 0.50005 0.50005 0 0 1 11.865234 25.835938 L 9.5019531 28.992188 L 11.494141 28.992188 A 0.50005 0.50005 0 1 1 11.494141 29.992188 L 8.5058594 29.992188 A 0.50005 0.50005 0 0 1 8.4472656 29.992188 A 0.50019268 0.50019268 0 0 1 8.4375 29.992188 A 0.50005 0.50005 0 0 1 8.1347656 29.154297 L 10.498047 26 L 8.5058594 26 A 0.50005 0.50005 0 1 1 8.5058594 25 L 11.460938 25 A 0.50005 0.50005 0 0 1 11.511719 25 L 11.511719 24.986328 z M 13.490234 24.990234 A 0.50005 0.50005 0 0 1 13.998047 25.496094 L 13.998047 29.498047 A 0.50005 0.50005 0 1 1 12.998047 29.498047 L 12.998047 25.496094 A 0.50005 0.50005 0 0 1 13.490234 24.990234 z M 16.498047 25.009766 L 16.498047 25.015625 C 17.320552 25.015625 17.998047 25.693125 17.998047 26.515625 C 17.998047 27.338125 17.320552 28.015625 16.498047 28.015625 C 16.322382 28.015625 16.155295 27.978875 15.998047 27.921875 L 15.998047 29.509766 A 0.50005 0.50005 0 1 1 14.998047 29.509766 L 14.998047 26.513672 L 14.998047 26.503906 A 0.50005 0.50005 0 0 1 15.011719 26.378906 C 15.012019 26.378906 15.013355 26.369141 15.013672 26.369141 C 15.086569 25.612441 15.723646 25.009766 16.498047 25.009766 z M 16.498047 26.005859 C 16.217997 26.005859 16.001147 26.221 15.998047 26.5 L 15.998047 26.509766 C 15.998047 26.791866 16.215982 27.009766 16.498047 27.009766 C 16.780112 27.009766 16.998047 26.791866 16.998047 26.509766 C 16.998047 26.227766 16.780112 26.009766 16.498047 26.009766 L 16.498047 26.005859 z " transform="translate(0 1020.362)"/><path stroke="#000" stroke-linecap="round" stroke-linejoin="round" d="m 26.49466,1027.8658 -4.49997,0 c -0.83099,0 -1.49998,-0.6691 -1.49998,-1.5 l 0,-4.5"/><path fill-rule="evenodd" style="line-height:normal;text-indent:0;text-align:start;text-decoration-line:none;text-decoration-style:solid;text-decoration-color:#000;text-transform:none;block-progression:tb;isolation:auto;mix-blend-mode:normal" d="m 15.498047,1027.3622 0,1 -1,0 0,1 1,0 0,1 -1,0 0,1 1,0 0,1 -1,0 0,1 1,0 0,1 -1,0 0,1 1,0 0,1 -1,0 0,1 1,0 0,1 -0.5,0 a 0.50004997,0.50004997 0 0 0 -0.5,0.5 l 0,0.9648 a 0.50004997,0.50004997 0 0 0 0,0.035 l 0,0.5 0,0.5 c 0,0.8224 0.677649,1.5 1.5,1.5 0.822351,0 1.5,-0.6776 1.5,-1.5 l 0,-0.4668 a 0.50004997,0.50004997 0 0 0 0,-0.033 l 0,-0.5 0,-1 a 0.50004997,0.50004997 0 0 0 -0.5,-0.5 l -0.5,0 0,-1 1,0 0,-1 -1,0 0,-1 1,0 0,-1 -1,0 0,-1 1,0 0,-1 -1,0 0,-1 1,0 0,-1 -1,0 0,-1 1,0 0,-1 -1,0 0,-1 -1,0 z m 0,12 1,0 0,0.5 0,1 c 0,0.2857 -0.214351,0.5 -0.5,0.5 -0.285649,0 -0.5,-0.2143 -0.5,-0.5 l 0,-0.4668 a 0.50004997,0.50004997 0 0 0 0,-0.033 l 0,-0.5 0,-0.5 z" color="#000" font-family="sans-serif" font-weight="400" overflow="visible" white-space="normal"/></g></svg>