<svg height="512" viewBox="0 0 64 64" width="512" xmlns="http://www.w3.org/2000/svg"><g id="Server_Wrong" data-name="Server Wrong"><rect fill="#57a4ff" height="16" rx="2" width="58" x="3" y="43"/><path d="m61 45v12a2.006 2.006 0 0 1 -2 2h-2a2.006 2.006 0 0 0 2-2v-12a2.006 2.006 0 0 0 -2-2h2a2.006 2.006 0 0 1 2 2z" fill="#2488ff"/><rect fill="#57a4ff" height="16" rx="2" width="58" x="3" y="23"/><path d="m61 25v12a2.006 2.006 0 0 1 -2 2h-2a2.006 2.006 0 0 0 2-2v-12a2.006 2.006 0 0 0 -2-2h2a2.006 2.006 0 0 1 2 2z" fill="#2488ff"/><rect fill="#57a4ff" height="16" rx="2" width="58" x="3" y="3"/><path d="m61 5v12a2.006 2.006 0 0 1 -2 2h-2a2.006 2.006 0 0 0 2-2v-12a2.006 2.006 0 0 0 -2-2h2a2.006 2.006 0 0 1 2 2z" fill="#2488ff"/><path d="m50 19h6v4h-6z" fill="#c0ab91"/><path d="m50 39h6v4h-6z" fill="#c0ab91"/><g fill="#c6c5ca"><path d="m33 27h4v8h-4z"/><path d="m33 7h4v8h-4z"/><path d="m25 47h4v8h-4z"/><path d="m25 27h4v8h-4z"/><path d="m25 7h4v8h-4z"/><path d="m17 47h4v8h-4z"/><path d="m17 27h4v8h-4z"/><path d="m17 7h4v8h-4z"/></g><path d="m8 39h6v4h-6z" fill="#c0ab91"/><path d="m8 19h6v4h-6z" fill="#c0ab91"/><circle cx="10" cy="11" fill="#ffde55" r="3"/><circle cx="10" cy="31" fill="#ffde55" r="3"/><circle cx="10" cy="51" fill="#ffde55" r="3"/><circle cx="45" cy="51" fill="#ff7956" r="10"/><path d="m55 51a10 10 0 0 1 -10 10c-.33 0-.66-.02-.98-.05a10 10 0 0 0 0-19.9c.32-.03.65-.05.98-.05a10 10 0 0 1 10 10z" fill="#ff6243"/><path d="m59 20a3 3 0 0 0 3-3v-12a3 3 0 0 0 -3-3h-54a3 3 0 0 0 -3 3v12a3 3 0 0 0 3 3h2v2h-2a3 3 0 0 0 -3 3v12a3 3 0 0 0 3 3h2v2h-2a3 3 0 0 0 -3 3v12a3 3 0 0 0 3 3h33.7a10.938 10.938 0 0 0 12.61 0h7.69a3 3 0 0 0 3-3v-12a3 3 0 0 0 -3-3h-2v-2h2a3 3 0 0 0 3-3v-12a3 3 0 0 0 -3-3h-2v-2zm-55-3v-12a1 1 0 0 1 1-1h54a1 1 0 0 1 1 1v12a1 1 0 0 1 -1 1h-54a1 1 0 0 1 -1-1zm11 5v-2h34v2zm-6-2h4v2h-4zm0 20h4v2h-4zm-5 17v-12a1 1 0 0 1 1-1h31.521a10.979 10.979 0 0 0 0 14h-31.521a1 1 0 0 1 -1-1zm32-6a9 9 0 1 1 9 9 9.01 9.01 0 0 1 -9-9zm24-6v12a1 1 0 0 1 -1 1h-5.521a10.979 10.979 0 0 0 0-14h5.521a1 1 0 0 1 1 1zm-5-3h-3.695a10.938 10.938 0 0 0 -12.605 0h-23.7v-2h40zm5-17v12a1 1 0 0 1 -1 1h-54a1 1 0 0 1 -1-1v-12a1 1 0 0 1 1-1h54a1 1 0 0 1 1 1zm-5-3h-4v-2h4z"/><path d="m10 7a4 4 0 1 0 4 4 4 4 0 0 0 -4-4zm0 6a2 2 0 1 1 2-2 2 2 0 0 1 -2 2z"/><path d="m21 6h-4a1 1 0 0 0 -1 1v8a1 1 0 0 0 1 1h4a1 1 0 0 0 1-1v-8a1 1 0 0 0 -1-1zm-1 8h-2v-6h2z"/><path d="m29 6h-4a1 1 0 0 0 -1 1v8a1 1 0 0 0 1 1h4a1 1 0 0 0 1-1v-8a1 1 0 0 0 -1-1zm-1 8h-2v-6h2z"/><path d="m37 6h-4a1 1 0 0 0 -1 1v8a1 1 0 0 0 1 1h4a1 1 0 0 0 1-1v-8a1 1 0 0 0 -1-1zm-1 8h-2v-6h2z"/><path d="m40 6h14v2h-14z"/><path d="m56 6h2v2h-2z"/><path d="m10 47a4 4 0 1 0 4 4 4 4 0 0 0 -4-4zm0 6a2 2 0 1 1 2-2 2 2 0 0 1 -2 2z"/><path d="m21 46h-4a1 1 0 0 0 -1 1v8a1 1 0 0 0 1 1h4a1 1 0 0 0 1-1v-8a1 1 0 0 0 -1-1zm-1 8h-2v-6h2z"/><path d="m29 46h-4a1 1 0 0 0 -1 1v8a1 1 0 0 0 1 1h4a1 1 0 0 0 1-1v-8a1 1 0 0 0 -1-1zm-1 8h-2v-6h2z"/><path d="m56 46h2v2h-2z"/><path d="m40 10h14v2h-14z"/><path d="m56 10h2v2h-2z"/><path d="m40 14h14v2h-14z"/><path d="m56 14h2v2h-2z"/><path d="m10 35a4 4 0 1 0 -4-4 4 4 0 0 0 4 4zm0-6a2 2 0 1 1 -2 2 2 2 0 0 1 2-2z"/><path d="m17 36h4a1 1 0 0 0 1-1v-8a1 1 0 0 0 -1-1h-4a1 1 0 0 0 -1 1v8a1 1 0 0 0 1 1zm1-8h2v6h-2z"/><path d="m25 36h4a1 1 0 0 0 1-1v-8a1 1 0 0 0 -1-1h-4a1 1 0 0 0 -1 1v8a1 1 0 0 0 1 1zm1-8h2v6h-2z"/><path d="m33 36h4a1 1 0 0 0 1-1v-8a1 1 0 0 0 -1-1h-4a1 1 0 0 0 -1 1v8a1 1 0 0 0 1 1zm1-8h2v6h-2z"/><path d="m40 26h14v2h-14z"/><path d="m56 26h2v2h-2z"/><path d="m40 30h14v2h-14z"/><path d="m56 30h2v2h-2z"/><path d="m40 34h14v2h-14z"/><path d="m56 34h2v2h-2z"/><path d="m58 52v-2h-2v1 1z"/><path d="m56 54h2v2h-2z"/><path d="m49.293 45.293-4.293 4.293-4.293-4.293-1.414 1.414 4.293 4.293-4.293 4.293 1.414 1.414 4.293-4.293 4.293 4.293 1.414-1.414-4.293-4.293 4.293-4.293z"/></g></svg>