<svg xmlns="http://www.w3.org/2000/svg" width="32" height="32" viewBox="0 0 32 32"><g transform="translate(0 -1020.362)"><path fill="none" stroke="#000" stroke-linecap="round" stroke-linejoin="round" d="m 26.49644,1027.8658 0,21.5 c 0,0.831 -0.66899,1.5 -1.49998,1.5 l -18.00004,0 c -0.83099,0 -1.49998,-0.669 -1.49998,-1.5 l 0,-26 c 0,-0.831 0.66899,-1.5 1.49998,-1.5 l 13.50002,0 z"/><path d="M 4.9960938 24.003906 L 4.9960938 26.003906 L 4.9960938 28.003906 L 4.9960938 29.003906 C 4.9960938 30.111906 5.8880738 31.003906 6.9960938 31.003906 L 24.996094 31.003906 C 26.104114 31.003906 26.996094 30.111906 26.996094 29.003906 L 26.996094 28.003906 L 26.996094 26.003906 L 26.996094 24.003906 L 24.996094 24.003906 L 6.9960938 24.003906 L 4.9960938 24.003906 z M 10.503906 25 A 0.50005 0.50005 0 0 1 10.947266 25.277344 L 12.947266 29.277344 A 0.50006619 0.50006619 0 1 1 12.052734 29.724609 L 11.695312 29.007812 L 9.3046875 29.007812 L 8.9472656 29.724609 A 0.50006584 0.50006584 0 1 1 8.0527344 29.277344 L 10.052734 25.277344 A 0.50005 0.50005 0 0 1 10.503906 25 z M 16.503906 25 A 0.50005 0.50005 0 0 1 16.947266 25.277344 L 18.947266 29.277344 A 0.50006619 0.50006619 0 1 1 18.052734 29.724609 L 17.695312 29.007812 L 15.304688 29.007812 L 14.947266 29.724609 A 0.50006619 0.50006619 0 1 1 14.052734 29.277344 L 16.052734 25.277344 A 0.50005 0.50005 0 0 1 16.503906 25 z M 22.445312 25 A 0.50005 0.50005 0 0 1 22.496094 25.001953 L 23.496094 25.001953 A 0.50005 0.50005 0 1 1 23.496094 26.001953 L 22.574219 26.001953 C 21.681983 26.001953 20.996094 26.672253 20.996094 27.501953 C 20.996094 28.331253 21.682012 29.001953 22.574219 29.001953 L 23.503906 29.001953 A 0.50005 0.50005 0 1 1 23.503906 30.001953 L 22.503906 30.001953 A 0.50005 0.50005 0 0 1 22.357422 29.978516 C 21.048742 29.869816 19.996094 28.8138 19.996094 27.5 C 19.996094 26.1919 21.039372 25.138184 22.339844 25.021484 A 0.50005 0.50005 0 0 1 22.445312 25 z M 10.5 26.619141 L 9.8046875 28.007812 L 11.195312 28.007812 L 10.5 26.619141 z M 16.5 26.619141 L 15.804688 28.007812 L 17.195312 28.007812 L 16.5 26.619141 z " transform="translate(0 1020.362)"/><path stroke="#000" stroke-linecap="round" stroke-linejoin="round" d="m 26.49644,1027.8658 -4.49997,0 c -0.83099,0 -1.49998,-0.6691 -1.49998,-1.5 l 0,-4.5"/><path fill-rule="evenodd" style="line-height:normal;text-indent:0;text-align:start;text-decoration-line:none;text-decoration-style:solid;text-decoration-color:#000;text-transform:none;block-progression:tb;isolation:auto;mix-blend-mode:normal" d="m 20.492188,1029.3602 a 0.50005,0.50005 0 0 0 -0.146485,0.024 l -7.939453,1.6289 a 0.50046239,0.50046239 0 0 0 -0.398438,0.4551 0.50046239,0.50046239 0 0 0 0,0 0.50005,0.50005 0 0 0 -0.0078,0.096 l 0,3.2441 a 0.50004997,0.50004997 0 0 0 0,0.252 l 0,3.582 c -0.295903,-0.1736 -0.634503,-0.2793 -1,-0.2793 -1.0986472,0 -2,0.9014 -2,2 0,1.0987 0.9013528,2 2,2 1.060451,0 1.928609,-0.8422 1.988281,-1.8887 A 0.50005,0.50005 0 0 0 13,1040.3661 l 0,-5.0215 7,-1.4375 0,2.7383 c -0.295903,-0.1736 -0.634503,-0.2793 -1,-0.2793 -1.098647,0 -2,0.9014 -2,2 0,1.0987 0.901353,2 2,2 1.060451,0 1.928609,-0.8422 1.988281,-1.8887 A 0.50005,0.50005 0 0 0 21,1038.3661 l 0,-8.5 a 0.50005,0.50005 0 0 0 -0.507812,-0.5059 z M 20,1030.4755 l 0,2.4121 -7,1.4375 0,-2.4121 7,-1.4375 z m -1,6.8906 c 0.558207,0 1,0.4418 1,1 0,0.5582 -0.441793,1 -1,1 -0.558207,0 -1,-0.4418 -1,-1 0,-0.5582 0.441793,-1 1,-1 z m -8,2 c 0.558207,0 1,0.4418 1,1 0,0.5582 -0.441793,1 -1,1 -0.558207,0 -1,-0.4418 -1,-1 0,-0.5582 0.441793,-1 1,-1 z" color="#000" font-family="sans-serif" font-weight="400" overflow="visible" white-space="normal"/></g></svg>