<svg xmlns="http://www.w3.org/2000/svg" width="32" height="32" viewBox="0 0 32 32"><g transform="translate(0 -1020.362)"><path fill="none" stroke="#000" stroke-linecap="round" stroke-linejoin="round" d="m 26.49644,1027.8658 0,21.5 c 0,0.831 -0.66899,1.5 -1.49998,1.5 l -18.00004,0 c -0.83099,0 -1.49998,-0.669 -1.49998,-1.5 l 0,-26 c 0,-0.831 0.66899,-1.5 1.49998,-1.5 l 13.50002,0 z"/><path d="M 5 24.003906 L 5 26.003906 L 5 28.003906 L 5 29.003906 C 5 30.111906 5.89198 31.003906 7 31.003906 L 25 31.003906 C 26.10802 31.003906 27 30.111906 27 29.003906 L 27 28.003906 L 27 26.003906 L 27 24.003906 L 25 24.003906 L 7 24.003906 L 5 24.003906 z M 10.496094 24.998047 A 0.50005 0.50005 0 0 1 10.939453 25.275391 L 12.939453 29.275391 A 0.50005 0.50005 0 1 1 12.044922 29.720703 L 11.6875 29.003906 L 9.296875 29.003906 L 8.9394531 29.720703 A 0.50005 0.50005 0 1 1 8.0449219 29.275391 L 10.044922 25.275391 A 0.50005 0.50005 0 0 1 10.496094 24.998047 z M 14.474609 24.998047 A 0.50005 0.50005 0 0 1 14.982422 25.503906 L 14.982422 29.494141 A 0.50005 0.50005 0 1 1 13.982422 29.494141 L 13.982422 25.503906 A 0.50005 0.50005 0 0 1 14.474609 24.998047 z M 10.492188 26.611328 L 9.796875 28 L 11.1875 28 L 10.492188 26.611328 z " transform="translate(0 1020.362)"/><path stroke="#000" stroke-linecap="round" stroke-linejoin="round" d="m 26.49644,1027.8658 -4.49997,0 c -0.83099,0 -1.49998,-0.6691 -1.49998,-1.5 l 0,-4.5"/><path style="line-height:normal;text-indent:0;text-align:start;text-decoration-line:none;text-decoration-style:solid;text-decoration-color:#000;text-transform:none;block-progression:tb;isolation:auto;mix-blend-mode:normal" d="m 22.572266,1029.3661 c -0.822503,0 -1.499995,0.6775 -1.5,1.5 3e-6,0.602 0.363809,1.1235 0.880859,1.3613 -0.384593,1.6805 -1.818813,2.9522 -3.599609,3.1055 -0.245936,-1.1211 -1.247391,-1.9668 -2.439454,-1.9668 -1.204224,0 -2.216469,0.8618 -2.449218,2 l -3.464844,0 0,-0.5 a 0.50005,0.50005 0 0 0 -0.5,-0.5 l -2,0 a 0.50005,0.50005 0 0 0 -0.5,0.5 l 0,2 a 0.50005,0.50005 0 0 0 0.5,0.5 l 2,0 a 0.50005,0.50005 0 0 0 0.5,-0.5 l 0,-0.5 1.134766,0 c -1.013572,0.7212 -1.7401202,1.7967 -2.0039066,3.0508 -0.6457628,0.167 -1.1308551,0.7545 -1.1308594,1.4492 5.1e-6,0.8225 0.6774971,1.5 1.5,1.5 0.822503,0 1.499995,-0.6775 1.5,-1.5 -4e-6,-0.5985 -0.360703,-1.1177 -0.873047,-1.3574 0.381074,-1.5918 1.704499,-2.8089 3.369141,-3.043 0.27181,1.0859 1.251035,1.9004 2.417968,1.9004 1.202906,0 2.209205,-0.8637 2.44336,-2 l 3.642578,0 0,0.5 a 0.50005,0.50005 0 0 0 0.5,0.5 l 2,0 a 0.50005,0.50005 0 0 0 0.5,-0.5 l 0,-2 a 0.50005,0.50005 0 0 0 -0.5,-0.5 l -2,0 a 0.50005,0.50005 0 0 0 -0.5,0.5 l 0,0.5 -1.025391,0 c 0.999729,-0.7273 1.728274,-1.7993 1.978516,-3.0566 0.639741,-0.1712 1.119136,-0.753 1.119141,-1.4434 -5e-6,-0.8225 -0.677498,-1.5 -1.5,-1.5 z m 0,1 c 0.282061,0 0.499998,0.218 0.5,0.5 -2e-6,0.2821 -0.217939,0.5 -0.5,0.5 -0.282062,0 -0.499999,-0.2179 -0.5,-0.5 1e-6,-0.282 0.217938,-0.5 0.5,-0.5 z m -6.658204,4 c 0.834334,0 1.499971,0.6657 1.5,1.5 1.3e-5,0.8344 -0.665636,1.5 -1.5,1.5 -0.834361,0 -1.500011,-0.6656 -1.5,-1.5 3.1e-5,-0.8343 0.665669,-1.5 1.5,-1.5 z m -7.914062,1 1,0 0,1 -1,0 0,-1 z m 15,0 1,0 0,1 -1,0 0,-1 z m -13.5,5 c 0.2820616,0 0.4999983,0.218 0.5,0.5 -1.7e-6,0.2821 -0.2179384,0.5 -0.5,0.5 -0.2820615,0 -0.4999983,-0.2179 -0.5,-0.5 1.7e-6,-0.282 0.2179385,-0.5 0.5,-0.5 z" color="#000" font-family="sans-serif" font-weight="400" overflow="visible" white-space="normal"/></g></svg>