<svg xmlns="http://www.w3.org/2000/svg" width="32" height="32" viewBox="0 0 32 32"><g transform="translate(0 -1020.362)"><path fill="none" stroke="#000" stroke-linecap="round" stroke-linejoin="round" d="m 26.49644,1027.8658 0,21.5 c 0,0.831 -0.66899,1.5 -1.49998,1.5 l -18.00004,0 c -0.83099,0 -1.49998,-0.669 -1.49998,-1.5 l 0,-26 c 0,-0.831 0.66899,-1.5 1.49998,-1.5 l 13.50002,0 z"/><path d="M 5 24.003906 L 5 26.003906 L 5 28.003906 L 5 29.003906 C 5 30.111906 5.89198 31.003906 7 31.003906 L 25 31.003906 C 26.10802 31.003906 27 30.111906 27 29.003906 L 27 28.003906 L 27 26.003906 L 27 24.003906 L 25 24.003906 L 7 24.003906 L 5 24.003906 z M 10.503906 24.994141 A 0.50005 0.50005 0 0 1 10.947266 25.271484 L 12.947266 29.271484 A 0.50006619 0.50006619 0 0 1 12.052734 29.71875 L 11.693359 29 L 9.3066406 29 L 8.9472656 29.71875 A 0.50006584 0.50006584 0 1 1 8.0527344 29.271484 L 10.052734 25.271484 A 0.50005 0.50005 0 0 1 10.503906 24.994141 z M 13.458984 24.994141 A 0.50005 0.50005 0 0 1 13.509766 24.994141 A 0.50005 0.50005 0 0 1 13.96875 25.326172 L 15 28.076172 L 16.03125 25.326172 A 0.5002831 0.5002831 0 0 1 16.96875 25.675781 L 15.46875 29.675781 A 0.50005 0.50005 0 0 1 14.53125 29.675781 L 13.03125 25.675781 A 0.50005 0.50005 0 0 1 13.458984 24.994141 z M 18.488281 24.994141 A 0.50005 0.50005 0 0 1 18.996094 25.501953 L 18.996094 29.490234 A 0.50005 0.50005 0 1 1 17.996094 29.490234 L 17.996094 25.501953 A 0.50005 0.50005 0 0 1 18.488281 24.994141 z M 10.5 26.609375 L 10.5 26.613281 L 9.8066406 27.996094 L 11.193359 27.996094 L 10.5 26.609375 z " transform="translate(0 1020.362)"/><path stroke="#000" stroke-linecap="round" stroke-linejoin="round" d="m 26.49644,1027.8658 -4.49997,0 c -0.83099,0 -1.49998,-0.6691 -1.49998,-1.5 l 0,-4.5"/><path style="line-height:normal;text-indent:0;text-align:start;text-decoration-line:none;text-decoration-style:solid;text-decoration-color:#000;text-transform:none;block-progression:tb;isolation:auto;mix-blend-mode:normal" d="m 13.507812,1030.8251 0,0 A 0.50004997,0.50004997 0 0 0 13,1031.327 l 0,7.0723 a 0.50004997,0.50004997 0 0 0 0.789062,0.4082 l 4.992188,-3.5371 a 0.50004997,0.50004997 0 0 0 0,-0.8144 l -4.992188,-3.5372 a 0.50004997,0.50004997 0 0 0 -0.28125,-0.094 z M 14,1032.2938 l 3.628906,2.5704 -3.628906,2.5683 0,-5.1387 z" color="#000" font-family="sans-serif" font-weight="400" overflow="visible" white-space="normal"/></g></svg>