<svg xmlns="http://www.w3.org/2000/svg" width="32" height="32" viewBox="0 0 32 32"><g transform="translate(0 -1020.362)"><path fill="#fff" style="line-height:normal;text-indent:0;text-align:start;text-decoration-line:none;text-decoration-style:solid;text-decoration-color:#000;text-transform:none;block-progression:tb;isolation:auto;mix-blend-mode:normal" d="m 8.4296875,1045.3652 a 0.50004997,0.50004997 0 1 0 0,1 c 0.8922355,0 1.5781245,0.6703 1.5781245,1.5 0,0.8294 -0.6859179,1.5 -1.5781245,1.5 a 0.50004997,0.50004997 0 1 0 0,1 c 1.4090774,0 2.5781245,-1.1133 2.5781245,-2.5 0,-1.3869 -1.169076,-2.5 -2.5781245,-2.5 z" color="#000" font-family="sans-serif" font-weight="400" overflow="visible" white-space="normal"/><path fill="none" stroke="#000" stroke-linecap="round" stroke-linejoin="round" d="m 26.496439,1027.8658 0,21.5 c 0,0.831 -0.66899,1.5 -1.49998,1.5 l -18.00004,0 c -0.83099,0 -1.49998,-0.669 -1.49998,-1.5 l 0,-26 c 0,-0.831 0.66899,-1.5 1.49998,-1.5 l 13.50002,0 z"/><path d="m 4.999999,1044.3658 0,2 0,2 0,1 c 0,1.108 0.89198,2 2,2 l 18,0 c 1.10802,0 2,-0.892 2,-2 l 0,-1 0,-2 0,-2 -2,0 -18,0 -2,0 z"/><path stroke="#000" stroke-linecap="round" stroke-linejoin="round" d="m 26.496439,1027.8658 -4.49997,0 c -0.83099,0 -1.49998,-0.6691 -1.49998,-1.5 l 0,-4.5"/><path fill-rule="evenodd" style="line-height:normal;text-indent:0;text-align:start;text-decoration-line:none;text-decoration-style:solid;text-decoration-color:#000;text-transform:none;block-progression:tb;isolation:auto;mix-blend-mode:normal" d="m 7.4570312,1024.3622 a 0.50064427,0.50064427 0 0 0 0.050781,1 l 4.9921878,0 a 0.50005,0.50005 0 1 0 0,-1 l -4.9921875,0 a 0.50005,0.50005 0 0 0 -0.050781,0 z m 0,2 a 0.50064427,0.50064427 0 0 0 0.050781,1 l 8.9999998,0 a 0.50005,0.50005 0 1 0 0,-1 l -8.9999995,0 a 0.50005,0.50005 0 0 0 -0.050781,0 z m 0,3 a 0.50064427,0.50064427 0 0 0 0.050781,1 l 3.9999998,0 a 0.50005,0.50005 0 1 0 0,-1 l -3.9999995,0 a 0.50005,0.50005 0 0 0 -0.050781,0 z m 5.9999998,0 a 0.50064426,0.50064426 0 0 0 0.05078,1 l 1,0 a 0.50005,0.50005 0 1 0 0,-1 l -1,0 a 0.50005,0.50005 0 0 0 -0.05078,0 z m 3,0 a 0.50064426,0.50064426 0 0 0 0.05078,1 l 7.992189,0 a 0.50005,0.50005 0 1 0 0,-1 l -7.992188,0 a 0.50005,0.50005 0 0 0 -0.05078,0 z m -8.9999998,2 a 0.50064427,0.50064427 0 0 0 0.050781,1 l 5.9999998,0 a 0.50005,0.50005 0 1 0 0,-1 l -5.9999998,0 a 0.50005,0.50005 0 0 0 -0.050781,0 z m 7.9999998,0 a 0.50064426,0.50064426 0 0 0 0.05078,1 l 1,0 a 0.50005,0.50005 0 1 0 0,-1 l -1,0 a 0.50005,0.50005 0 0 0 -0.05078,0 z m 3,0 a 0.50064426,0.50064426 0 0 0 0.05078,1 l 5.992189,0 a 0.50005,0.50005 0 1 0 0,-1 l -5.992188,0 a 0.50005,0.50005 0 0 0 -0.05078,0 z m -10.9999998,2 a 0.50064427,0.50064427 0 0 0 0.050781,1 l 7.9999998,0 a 0.50005,0.50005 0 1 0 0,-1 l -7.9999998,0 a 0.50005,0.50005 0 0 0 -0.050781,0 z m 9.9999998,0 a 0.50064426,0.50064426 0 0 0 0.05078,1 l 1,0 a 0.50005,0.50005 0 1 0 0,-1 l -1,0 a 0.50005,0.50005 0 0 0 -0.05078,0 z m 3,0 a 0.50064426,0.50064426 0 0 0 0.05078,1 l 3.992189,0 a 0.50005,0.50005 0 1 0 0,-1 l -3.992188,0 a 0.50005,0.50005 0 0 0 -0.05078,0 z m -12.9999998,2 a 0.50064427,0.50064427 0 0 0 0.050781,1 l 3.9999998,0 a 0.50005,0.50005 0 1 0 0,-1 l -3.9999998,0 a 0.50005,0.50005 0 0 0 -0.050781,0 z m 5.9999998,0 a 0.50064426,0.50064426 0 0 0 0.05078,1 l 1,0 a 0.50005,0.50005 0 1 0 0,-1 l -1,0 a 0.50005,0.50005 0 0 0 -0.05078,0 z m 3,0 a 0.50064426,0.50064426 0 0 0 0.05078,1 l 4.53125,0 3.460939,0 a 0.50005,0.50005 0 0 0 0,-1 l -3.425781,0 -4.566407,0 a 0.50005,0.50005 0 0 0 -0.05078,0 z" color="#000" font-family="sans-serif" font-weight="400" overflow="visible" white-space="normal"/><path fill="#fff" fill-rule="evenodd" style="line-height:normal;text-indent:0;text-align:start;text-decoration-line:none;text-decoration-style:solid;text-decoration-color:#000;text-transform:none;block-progression:tb;isolation:auto;mix-blend-mode:normal" d="M21.507812 1045.3652a.50005.50005 0 1 0 0 1l1 0a.50005.50005 0 1 0 0-1l-1 0zM21.515625 1049.3652a.50005.50005 0 1 0 0 1l1 0a.50005.50005 0 1 0 0-1l-1 0z" color="#000" font-family="sans-serif" font-weight="400" overflow="visible" white-space="normal"/><path fill="#fff" style="line-height:normal;text-indent:0;text-align:start;text-decoration-line:none;text-decoration-style:solid;text-decoration-color:#000;text-transform:none;block-progression:tb;isolation:auto;mix-blend-mode:normal" d="M21.583984 1045.3652c-1.409048 0-2.576172 1.1131-2.576172 2.5 0 1.3867 1.167095 2.5 2.576172 2.5a.50004997.50004997 0 1 0 0-1c-.892206 0-1.576171-.6706-1.576172-1.5 0-.8297.683937-1.5 1.576172-1.5a.50004997.50004997 0 1 0 0-1zM15.507812 1045.3613c1.37479 0 2.5 1.1252 2.5 2.5 0 1.3748-1.12521 2.5-2.5 2.5-1.374789 0-2.499999-1.1252-2.5-2.5.000001-1.3748 1.125211-2.5 2.5-2.5zm0 1c-.834349 0-1.499999.6657-1.5 1.5.000001.8344.665651 1.5 1.5 1.5.83435 0 1.5-.6656 1.5-1.5 0-.8343-.66565-1.5-1.5-1.5z" color="#000" font-family="sans-serif" font-weight="400" overflow="visible" white-space="normal"/><path fill="#fff" fill-rule="evenodd" style="line-height:normal;text-indent:0;text-align:start;text-decoration-line:none;text-decoration-style:solid;text-decoration-color:#000;text-transform:none;block-progression:tb;isolation:auto;mix-blend-mode:normal" d="M8.5136719 1045.3652a.50005.50005 0 1 0 0 1l1 0a.50005.50005 0 1 0 0-1l-1 0zM8.5078125 1049.3652a.50005.50005 0 1 0 0 1l1 0a.50005.50005 0 1 0 0-1l-1 0z" color="#000" font-family="sans-serif" font-weight="400" overflow="visible" white-space="normal"/><path fill="#fff" style="line-height:normal;text-indent:0;text-align:start;text-decoration-line:none;text-decoration-style:solid;text-decoration-color:#000;text-transform:none;block-progression:tb;isolation:auto;mix-blend-mode:normal" d="m 9.4375,1045.3652 a 0.50004997,0.50004997 0 1 0 0,1 c 0.892236,0 1.578125,0.6703 1.578125,1.5 0,0.8294 -0.685918,1.5 -1.578125,1.5 a 0.50004997,0.50004997 0 1 0 0,1 c 1.409077,0 2.578125,-1.1133 2.578125,-2.5 0,-1.3869 -1.169077,-2.5 -2.578125,-2.5 z" color="#000" font-family="sans-serif" font-weight="400" overflow="visible" white-space="normal"/><path fill="#fff" fill-rule="evenodd" style="line-height:normal;text-indent:0;text-align:start;text-decoration-line:none;text-decoration-style:solid;text-decoration-color:#000;text-transform:none;block-progression:tb;isolation:auto;mix-blend-mode:normal" d="M 8.4921875,1045.3516 A 0.50005,0.50005 0 0 0 8,1045.8594 l 0,4 a 0.50005,0.50005 0 1 0 1,0 l 0,-4 a 0.50005,0.50005 0 0 0 -0.5078125,-0.5078 z" color="#000" font-family="sans-serif" font-weight="400" overflow="visible" white-space="normal"/></g></svg>