<svg xmlns="http://www.w3.org/2000/svg" width="32" height="32" viewBox="0 0 32 32"><g transform="translate(0 -1020.362)"><path fill="none" stroke="#000" stroke-linecap="round" stroke-linejoin="round" d="m 26.49644,1027.8658 0,21.5 c 0,0.831 -0.66899,1.5 -1.49998,1.5 l -18.00004,0 c -0.83099,0 -1.49998,-0.669 -1.49998,-1.5 l 0,-26 c 0,-0.831 0.66899,-1.5 1.49998,-1.5 l 13.50002,0 z"/><path d="M 5 24.003906 L 5 26.003906 L 5 28.003906 L 5 29.003906 C 5 30.111906 5.89198 31.003906 7 31.003906 L 25 31.003906 C 26.10802 31.003906 27 30.111906 27 29.003906 L 27 28.003906 L 27 26.003906 L 27 24.003906 L 25 24.003906 L 7 24.003906 L 5 24.003906 z M 8.453125 24.998047 A 0.50005 0.50005 0 0 1 8.4921875 24.998047 A 0.50005 0.50005 0 0 1 8.5039062 24.998047 A 0.50005 0.50005 0 0 1 8.5429688 24.998047 L 11.492188 24.998047 A 0.50005 0.50005 0 1 1 11.492188 25.998047 L 9 25.998047 L 9 26.998047 L 10.492188 26.998047 A 0.50005 0.50005 0 1 1 10.492188 27.998047 L 9 27.998047 L 9 28.998047 L 11.492188 28.998047 A 0.50005 0.50005 0 1 1 11.492188 29.998047 L 8.53125 29.998047 A 0.50005 0.50005 0 0 1 8.3242188 29.966797 A 0.50005 0.50005 0 0 0 8.3222656 29.966797 A 0.50005 0.50005 0 0 0 8.3203125 29.966797 A 0.50005 0.50005 0 0 1 8.2324219 29.923828 A 0.50005 0.50005 0 0 1 8.2246094 29.923828 A 0.50005 0.50005 0 0 1 8.1914062 29.898438 A 0.50005 0.50005 0 0 1 8.1835938 29.888672 A 0.50005 0.50005 0 0 1 8.1699219 29.876953 A 0.50005 0.50005 0 0 1 8.1484375 29.857422 A 0.50005 0.50005 0 0 1 8.1386719 29.847656 A 0.50005 0.50005 0 0 1 8 29.445312 L 8 27.556641 A 0.50005 0.50005 0 0 1 8 27.445312 L 8 25.556641 A 0.50005 0.50005 0 0 1 8.3457031 25.029297 A 0.50005 0.50005 0 0 1 8.3554688 25.029297 A 0.50005 0.50005 0 0 1 8.375 25.019531 A 0.50005 0.50005 0 0 1 8.4023438 25.009766 A 0.50005 0.50005 0 0 0 8.4042969 25.009766 A 0.50005 0.50005 0 0 1 8.453125 25 L 8.453125 24.998047 z M 14.5 25 L 14.5 25.003906 C 15.322505 25.003906 16 25.681406 16 26.503906 C 16 27.326406 15.322505 28.003906 14.5 28.003906 C 14.324336 28.003906 14.157248 27.967156 14 27.910156 L 14 29.498047 A 0.50005 0.50005 0 1 1 13 29.498047 L 13 26.503906 L 13 26.494141 A 0.50005 0.50005 0 0 1 13.013672 26.369141 C 13.081868 25.607841 13.722228 25 14.5 25 z M 18.455078 25 A 0.50005 0.50005 0 0 1 18.505859 25 A 0.50005 0.50005 0 0 1 18.541016 25 L 20.505859 25 A 0.50005 0.50005 0 1 1 20.505859 26 L 18.505859 26 C 18.220211 26 18.005859 26.2144 18.005859 26.5 C 18.005859 26.7857 18.220211 27 18.505859 27 A 0.50005 0.50005 0 0 1 18.541016 27 L 19.505859 27 A 0.50005 0.50005 0 0 1 19.613281 27.009766 C 20.385595 27.066466 21.005859 27.7144 21.005859 28.5 C 21.005859 29.287 20.383445 29.933281 19.609375 29.988281 A 0.50005 0.50005 0 0 1 19.505859 30 L 17.505859 30 A 0.50005 0.50005 0 1 1 17.505859 29 L 19.505859 29 C 19.791508 29 20.005859 28.7857 20.005859 28.5 C 20.005859 28.2144 19.791508 28 19.505859 28 L 18.505859 28 A 0.50005 0.50005 0 0 1 18.412109 27.990234 C 17.633413 27.940334 17.005859 27.2904 17.005859 26.5 C 17.005859 25.7164 17.623081 25.071719 18.392578 25.011719 A 0.50005 0.50005 0 0 1 18.455078 25 z M 14.5 25.996094 C 14.219951 25.996094 14.0031 26.211234 14 26.490234 L 14 26.5 C 14 26.7821 14.217935 27 14.5 27 C 14.782065 27 15 26.7821 15 26.5 C 15 26.218 14.782065 26 14.5 26 L 14.5 25.996094 z " transform="translate(0 1020.362)"/><path stroke="#000" stroke-linecap="round" stroke-linejoin="round" d="m 26.49644,1027.8658 -4.49997,0 c -0.83099,0 -1.49998,-0.6691 -1.49998,-1.5 l 0,-4.5"/><path style="line-height:normal;text-indent:0;text-align:start;text-decoration-line:none;text-decoration-style:solid;text-decoration-color:#000;text-transform:none;block-progression:tb;isolation:auto;mix-blend-mode:normal" d="m 13.5,1031.3661 0,2 -2.59375,0 c -0.208482,-0.579 -0.759409,-1 -1.40625,-1 -0.8225048,0 -1.5,0.6775 -1.5,1.5 0,0.8225 0.6774952,1.5 1.5,1.5 0.64619,0 1.197277,-0.4219 1.40625,-1 l 1.388672,0 c -2.02776,1.1786 -3.2949007,3.2474 -3.294922,5.5 l 0,0.5 1,0 0,-0.5 c 1.8e-5,-1.9509 1.123713,-3.7623 2.984375,-4.7539 0.167278,-0.089 0.341739,-0.1613 0.515625,-0.2344 l 0,0.9883 0,0.5 5,0 0,-1.4883 c 0.173886,0.073 0.348347,0.1453 0.515625,0.2344 1.860662,0.9916 2.984357,2.803 2.984375,4.7539 l 0,0.5 1,0 0,-0.5 c -2.1e-5,-2.2526 -1.267162,-4.3214 -3.294922,-5.5 l 1.388672,0 c 0.208973,0.5781 0.76006,1 1.40625,1 0.822505,0 1.5,-0.6775 1.5,-1.5 0,-0.8225 -0.677495,-1.5 -1.5,-1.5 -0.646841,0 -1.197768,0.421 -1.40625,1 l -2.59375,0 0,-2 -5,0 z m 1,1 3,0 0,1 -1.46875,0 c -0.02086,-10e-5 -0.04164,-10e-5 -0.0625,0 l -1.46875,0 0,-1 z m -5,1 c 0.2820647,0 0.5,0.218 0.5,0.5 0,0.2821 -0.2179353,0.5 -0.5,0.5 -0.2820647,0 -0.5,-0.2179 -0.5,-0.5 0,-0.282 0.2179353,-0.5 0.5,-0.5 z m 13,0 c 0.282065,0 0.5,0.218 0.5,0.5 0,0.2821 -0.217935,0.5 -0.5,0.5 -0.282065,0 -0.5,-0.2179 -0.5,-0.5 0,-0.282 0.217935,-0.5 0.5,-0.5 z m -6.5,1.002 c 0.504127,0 1.008568,0.06 1.5,0.1757 l 0,0.8223 -3,0 0,-0.8223 c 0.491432,-0.1159 0.995873,-0.1757 1.5,-0.1757 z" color="#000" font-family="sans-serif" font-weight="400" overflow="visible" white-space="normal"/></g></svg>