<svg xmlns="http://www.w3.org/2000/svg" width="32" height="32" viewBox="0 0 32 32"><g transform="translate(0 -1020.362)"><path fill="none" stroke="#000" stroke-linecap="round" stroke-linejoin="round" d="m 26.49644,1027.8658 0,21.5 c 0,0.831 -0.66899,1.5 -1.49998,1.5 l -18.00004,0 c -0.83099,0 -1.49998,-0.669 -1.49998,-1.5 l 0,-26 c 0,-0.831 0.66899,-1.5 1.49998,-1.5 l 13.50002,0 z"/><path d="M 5 24.003906 L 5 26.003906 L 5 28.003906 L 5 29.003906 C 5 30.111906 5.89198 31.003906 7 31.003906 L 25 31.003906 C 26.10802 31.003906 27 30.111906 27 29.003906 L 27 28.003906 L 27 26.003906 L 27 24.003906 L 25 24.003906 L 7 24.003906 L 5 24.003906 z M 9.5703125 24.994141 L 10.496094 24.994141 A 0.50005 0.50005 0 1 1 10.496094 25.994141 L 9.5703125 25.994141 C 9.2437373 25.994141 8.9960938 26.241859 8.9960938 26.568359 L 8.9960938 26.994141 L 9.9960938 26.994141 A 0.50005 0.50005 0 1 1 9.9960938 27.994141 L 8.9960938 27.994141 L 8.9960938 29.494141 A 0.50005 0.50005 0 1 1 7.9960938 29.494141 L 7.9960938 27.5 L 7.9960938 26.568359 C 7.9960938 25.705159 8.7070717 24.994141 9.5703125 24.994141 z M 12.488281 24.994141 L 12.488281 25 A 0.50005 0.50005 0 0 1 12.996094 25.507812 L 12.996094 29.001953 L 14.492188 29.001953 A 0.50005 0.50005 0 1 1 14.492188 30.001953 L 12.503906 30.001953 A 0.50005 0.50005 0 0 1 12.46875 30.001953 A 0.50005 0.50005 0 0 1 12.330078 29.974609 A 0.50005 0.50005 0 0 1 12.314453 29.964844 A 0.50005 0.50005 0 0 1 12 29.556641 A 0.50005 0.50005 0 0 1 11.998047 29.542969 A 0.50005 0.50005 0 0 1 11.996094 29.519531 A 0.50005 0.50005 0 0 1 11.996094 29.5 A 0.50005 0.50005 0 0 1 11.996094 29.490234 L 11.996094 25.501953 A 0.50005 0.50005 0 0 1 12.488281 24.994141 z M 15.453125 24.994141 A 0.50005 0.50005 0 0 1 15.503906 24.994141 A 0.50005 0.50005 0 0 1 15.962891 25.326172 L 16.994141 28.076172 L 18.025391 25.326172 A 0.5002831 0.5002831 0 0 1 18.962891 25.675781 L 17.462891 29.675781 A 0.50005 0.50005 0 0 1 16.525391 29.675781 L 15.025391 25.675781 A 0.50005 0.50005 0 0 1 15.453125 24.994141 z " transform="translate(0 1020.362)"/><path stroke="#000" stroke-linecap="round" stroke-linejoin="round" d="m 26.49644,1027.8658 -4.49997,0 c -0.83099,0 -1.49998,-0.6691 -1.49998,-1.5 l 0,-4.5"/><path style="line-height:normal;text-indent:0;text-align:start;text-decoration-line:none;text-decoration-style:solid;text-decoration-color:#000;text-transform:none;block-progression:tb;isolation:auto;mix-blend-mode:normal" d="m 19,1030.3739 c -0.953702,0 -1.694552,0.1334 -2.279297,0.4024 -0.584745,0.269 -1.001019,0.6862 -1.253906,1.164 -0.505775,0.9555 -0.433594,2.0703 -0.433594,3.1035 0,1.0332 -0.05827,2.1643 -0.464844,2.961 -0.406573,0.7967 -1.082826,1.3476 -2.716797,1.3476 l 0,1 c 1.890827,0 3.056057,-0.8083 3.609376,-1.8925 0.553316,-1.0843 0.572265,-2.3578 0.572265,-3.4161 0,-0.023 0.002,-0.042 0.002,-0.064 l 2.964844,0 0,-1 -2.939453,0 c 0.02493,-0.6165 0.0826,-1.1803 0.289062,-1.5703 0.160703,-0.3036 0.38421,-0.5383 0.789063,-0.7246 0.404852,-0.1863 1.003284,-0.3106 1.861328,-0.3106 l 0,-1 z" color="#000" font-family="sans-serif" font-weight="400" overflow="visible" white-space="normal"/></g></svg>