<svg xmlns="http://www.w3.org/2000/svg" width="32" height="32" viewBox="0 0 32 32"><g transform="translate(0 -1020.362)"><path fill="none" stroke="#000" stroke-linecap="round" stroke-linejoin="round" d="m 26.49644,1027.8658 0,21.5 c 0,0.831 -0.66899,1.5 -1.49998,1.5 l -18.00004,0 c -0.83099,0 -1.49998,-0.669 -1.49998,-1.5 l 0,-26 c 0,-0.831 0.66899,-1.5 1.49998,-1.5 l 13.50002,0 z"/><path d="M 5 24.003906 L 5 26.003906 L 5 28.003906 L 5 29.003906 C 5 30.111906 5.89198 31.003906 7 31.003906 L 25 31.003906 C 26.10802 31.003906 27 30.111906 27 29.003906 L 27 28.003906 L 27 26.003906 L 27 24.003906 L 25 24.003906 L 7 24.003906 L 5 24.003906 z M 20.464844 24.990234 A 0.50005 0.50005 0 0 1 20.515625 24.990234 A 0.50005 0.50005 0 0 1 20.998047 25.533203 L 20.998047 29.496094 A 0.50005 0.50005 0 1 1 19.998047 29.496094 L 19.998047 26.994141 L 19.398438 27.794922 A 0.50005 0.50005 0 0 1 18.496094 27.65625 L 17.998047 26.992188 L 17.998047 29.496094 A 0.50005 0.50005 0 1 1 16.998047 29.496094 L 16.998047 25.505859 A 0.50005 0.50005 0 0 1 17.490234 25 A 0.50005 0.50005 0 0 1 17.898438 25.199219 L 17.902344 25.199219 L 19 26.666016 L 20.095703 25.199219 A 0.50005 0.50005 0 0 1 20.464844 24.992188 L 20.464844 24.990234 z M 8.4921875 25.001953 A 0.50005 0.50005 0 0 1 9 25.507812 L 9 27.003906 L 11 27.003906 L 11 25.507812 A 0.50005 0.50005 0 0 1 11.492188 25.001953 A 0.50005 0.50005 0 0 1 12 25.507812 L 12 27.421875 A 0.50005 0.50005 0 0 1 12 27.582031 L 12 29.498047 A 0.50005 0.50005 0 1 1 11 29.498047 L 11 28.003906 L 9 28.003906 L 9 29.498047 A 0.50005 0.50005 0 1 1 8 29.498047 L 8 27.509766 L 8 25.507812 A 0.50005 0.50005 0 0 1 8.4921875 25.001953 z M 13.5 25.001953 L 14.441406 25.001953 A 0.50005 0.50005 0 0 1 14.492188 25.001953 A 0.50005 0.50005 0 0 1 14.552734 25.001953 L 15.5 25.001953 A 0.50005 0.50005 0 1 1 15.5 26.001953 L 15 26.001953 L 15 29.496094 A 0.50005 0.50005 0 1 1 14 29.496094 L 14 26.001953 L 13.5 26.001953 A 0.50005 0.50005 0 1 1 13.5 25.001953 z M 22.490234 25.001953 A 0.50005 0.50005 0 0 1 22.998047 25.507812 L 22.998047 29.003906 L 24.492188 29.003906 A 0.50005 0.50005 0 1 1 24.492188 30.003906 L 22.505859 30.003906 A 0.50005 0.50005 0 0 1 22.337891 29.976562 A 0.50005 0.50005 0 0 1 22.310547 29.966797 A 0.50005 0.50005 0 0 1 22.234375 29.927734 A 0.50005 0.50005 0 0 1 22.199219 29.904297 A 0.50005 0.50005 0 0 1 22.1875 29.894531 A 0.50005 0.50005 0 0 1 22.173828 29.880859 A 0.50005 0.50005 0 0 1 22.148438 29.859375 A 0.50005 0.50005 0 0 1 22.136719 29.845703 A 0.50005 0.50005 0 0 1 22.111328 29.818359 A 0.50005 0.50005 0 0 1 22.087891 29.789062 A 0.50005 0.50005 0 0 1 22.082031 29.779297 A 0.50005 0.50005 0 0 1 22.0625 29.748047 A 0.50005 0.50005 0 0 1 22.035156 29.691406 A 0.50005 0.50005 0 0 1 22.021484 29.65625 A 0.50005 0.50005 0 0 1 22.017578 29.642578 A 0.50005 0.50005 0 0 1 21.998047 29.460938 L 21.998047 25.507812 A 0.50005 0.50005 0 0 1 22.490234 25.001953 z " transform="translate(0 1020.362)"/><path stroke="#000" stroke-linecap="round" stroke-linejoin="round" d="m 26.49644,1027.8658 -4.49997,0 c -0.83099,0 -1.49998,-0.6691 -1.49998,-1.5 l 0,-4.5"/><path fill-rule="evenodd" style="line-height:normal;text-indent:0;text-align:start;text-decoration-line:none;text-decoration-style:solid;text-decoration-color:#000;text-transform:none;block-progression:tb;isolation:auto;mix-blend-mode:normal" d="m 13.523438,1032.3642 a 0.50005,0.50005 0 0 0 -0.34375,0.1503 l -3.029297,2.9922 a 0.50005,0.50005 0 0 0 -0.01367,0.014 0.50005,0.50005 0 0 0 0.05273,0.7441 l 2.990235,2.9551 a 0.50005,0.50005 0 1 0 0.703124,-0.7109 l -2.673828,-2.6426 2.673828,-2.6406 a 0.50005,0.50005 0 0 0 -0.359374,-0.8613 z m 4.93164,0 a 0.50005,0.50005 0 0 0 -0.34375,0.8613 l 2.671875,2.6406 -2.671875,2.6426 a 0.50005,0.50005 0 1 0 0.703125,0.7109 l 2.988281,-2.9551 a 0.50005,0.50005 0 0 0 0.169922,-0.5468 0.50005,0.50005 0 0 0 -0.03906,-0.092 0.50005,0.50005 0 0 0 -0.01953,-0.035 0.50005,0.50005 0 0 0 -0.0059,-0.01 0.50005,0.50005 0 0 0 -0.0059,-0.01 0.50005,0.50005 0 0 0 -0.02539,-0.031 0.50005,0.50005 0 0 0 -0.0059,-0.01 0.50005,0.50005 0 0 0 -0.02734,-0.029 0.50005,0.50005 0 0 0 -0.002,0 l -0.01953,-0.018 a 0.50005,0.50005 0 0 0 -0.01563,-0.016 l -2.992188,-2.9589 a 0.50005,0.50005 0 0 0 -0.359375,-0.1504 z" color="#000" font-family="sans-serif" font-weight="400" overflow="visible" white-space="normal"/></g></svg>