<svg xmlns="http://www.w3.org/2000/svg" width="32" height="32" viewBox="0 0 32 32"><g transform="translate(0 -1020.362)"><path fill="none" stroke="#000" stroke-linecap="round" stroke-linejoin="round" d="m 26.49644,1027.8658 0,21.5 c 0,0.831 -0.66899,1.5 -1.49998,1.5 l -18.00004,0 c -0.83099,0 -1.49998,-0.669 -1.49998,-1.5 l 0,-26 c 0,-0.831 0.66899,-1.5 1.49998,-1.5 l 13.50002,0 z"/><path d="M 5 24.003906 L 5 26.003906 L 5 28.003906 L 5 29.003906 C 5 30.111906 5.89198 31.003906 7 31.003906 L 25 31.003906 C 26.10802 31.003906 27 30.111906 27 29.003906 L 27 28.003906 L 27 26.003906 L 27 24.003906 L 25 24.003906 L 7 24.003906 L 5 24.003906 z M 18.453125 24.986328 A 0.50005 0.50005 0 0 1 18.460938 24.986328 A 0.50005 0.50005 0 0 1 18.503906 24.986328 A 0.50005 0.50005 0 0 1 18.511719 24.986328 L 19.511719 24.986328 A 0.50005 0.50005 0 0 1 19.625 24.998047 C 20.390858 25.061547 21.003906 25.705228 21.003906 26.486328 C 21.003906 27.053028 20.678258 27.543928 20.208984 27.798828 L 20.945312 29.271484 A 0.50006575 0.50006575 0 1 1 20.050781 29.71875 L 19.1875 27.994141 L 19.011719 27.994141 L 19.011719 29.494141 A 0.50005 0.50005 0 1 1 18.011719 29.494141 L 18.011719 27.574219 A 0.50005 0.50005 0 0 1 18.011719 27.414062 L 18.011719 25.566406 A 0.50005 0.50005 0 0 1 18.404297 24.996094 A 0.50005 0.50005 0 0 1 18.453125 24.986328 z M 14.503906 24.996094 A 0.50005 0.50005 0 0 1 14.949219 25.273438 L 16.949219 29.273438 A 0.50006575 0.50006575 0 1 1 16.054688 29.720703 L 15.695312 29.001953 L 13.308594 29.001953 L 12.949219 29.720703 A 0.50006575 0.50006575 0 1 1 12.054688 29.273438 L 14.054688 25.273438 A 0.50005 0.50005 0 0 1 14.503906 24.996094 z M 10.496094 25.003906 A 0.50005 0.50005 0 0 1 11.003906 25.511719 L 11.003906 28.503906 C 11.003906 28.503906 11.00392 28.513672 11.003906 28.513672 A 0.50005 0.50005 0 0 1 10.988281 28.646484 C 10.914937 29.402684 10.277845 30.005859 9.5039062 30.005859 C 8.6815617 30.005859 8.0039062 29.328259 8.0039062 28.505859 A 0.50005 0.50005 0 0 1 8.4960938 28 A 0.50005 0.50005 0 0 1 9.0039062 28.505859 C 9.0039062 28.791559 9.2182769 29.005859 9.5039062 29.005859 C 9.7895372 29.005859 10.003906 28.791559 10.003906 28.505859 L 10.003906 25.513672 A 0.50005 0.50005 0 0 1 10.496094 25.005859 L 10.496094 25.003906 z M 19.011719 25.992188 L 19.011719 26.992188 L 19.423828 26.992188 A 0.50005 0.50005 0 0 1 19.457031 26.992188 A 0.50005 0.50005 0 0 1 19.503906 26.992188 C 19.789555 26.992188 20.003906 26.777787 20.003906 26.492188 C 20.003906 26.206488 19.789555 25.992188 19.503906 25.992188 L 19.011719 25.992188 z M 14.501953 26.619141 L 13.808594 28.005859 L 15.195312 28.005859 L 14.501953 26.619141 z " transform="translate(0 1020.362)"/><path stroke="#000" stroke-linecap="round" stroke-linejoin="round" d="m 26.49644,1027.8658 -4.49997,0 c -0.83099,0 -1.49998,-0.6691 -1.49998,-1.5 l 0,-4.5"/><path style="line-height:normal;text-indent:0;text-align:start;text-decoration-line:none;text-decoration-style:solid;text-decoration-color:#000;text-transform:none;block-progression:tb;isolation:auto;mix-blend-mode:normal" d="M 11.492188,1026.3563 A 0.50004997,0.50004997 0 0 0 11,1026.8622 l 0,2 a 0.50004997,0.50004997 0 1 0 1,0 l 0,-2 a 0.50004997,0.50004997 0 0 0 -0.507812,-0.5059 z m 4,0 A 0.50004997,0.50004997 0 0 0 15,1026.8622 l 0,2 a 0.50004997,0.50004997 0 1 0 1,0 l 0,-2 a 0.50004997,0.50004997 0 0 0 -0.507812,-0.5059 z M 13.5,1027.3622 a 0.5,0.5 0 0 0 -0.5,0.5 0.5,0.5 0 0 0 0.5,0.5 0.5,0.5 0 0 0 0.5,-0.5 0.5,0.5 0 0 0 -0.5,-0.5 z m -0.0078,1.9863 A 0.50004997,0.50004997 0 0 0 13,1029.8563 l 0,1 a 0.50004997,0.50004997 0 1 0 1,0 l 0,-1 a 0.50004997,0.50004997 0 0 0 -0.507812,-0.5078 z m -1.9922,1.0137 a 0.5,0.5 0 0 0 -0.5,0.5 0.5,0.5 0 0 0 0.5,0.5 0.5,0.5 0 0 0 0.5,-0.5 0.5,0.5 0 0 0 -0.5,-0.5 z m 4,0 a 0.5,0.5 0 0 0 -0.5,0.5 0.5,0.5 0 0 0 0.5,0.5 0.5,0.5 0 0 0 0.5,-0.5 0.5,0.5 0 0 0 -0.5,-0.5 z m -5,2 a 0.50005,0.50005 0 0 0 -0.5,0.5 l 0,1.4648 a 0.50005,0.50005 0 0 0 0,0.035 l 0,3.6875 0,1.3125 c 0,1.0994 0.900634,2 2,2 l 5,0 c 1.099366,0 2,-0.9006 2,-2 l 1,0 c 1.099351,0 2,-0.9006 2,-2 l 0,-1 c 0,-1.0993 -0.900649,-2 -2,-2 l -1,0 0,-1.5 a 0.50005,0.50005 0 0 0 -0.5,-0.5 l -8,0 z m 0.5,1 7,0 0,1 0,1 0,4 c 0,0.5627 -0.437324,1 -1,1 l -5,0 c -0.562676,0 -1,-0.4373 -1,-1 l 0,-1.2793 a 0.50005,0.50005 0 0 0 0,-0.033 l 0,-3.6875 0,-1 z m 8,2 1,0 c 0.562649,0 1,0.4374 1,1 l 0,1 c 0,0.5627 -0.437351,1 -1,1 l -1,0 0,-0.2793 a 0.50005,0.50005 0 0 0 0,-0.033 l 0,-2.6875 z" color="#000" font-family="sans-serif" font-weight="400" overflow="visible" white-space="normal"/></g></svg>