<svg xmlns="http://www.w3.org/2000/svg" width="32" height="32" viewBox="0 0 32 32"><g transform="translate(0 -1020.362)"><path fill="none" stroke="#000" stroke-linecap="round" stroke-linejoin="round" d="m 26.49644,1027.8622 0,21.5 c 0,0.831 -0.66899,1.5 -1.49998,1.5 l -18.00004,0 c -0.83099,0 -1.49998,-0.669 -1.49998,-1.5 l 0,-26 c 0,-0.831 0.66899,-1.5 1.49998,-1.5 l 13.50002,0 z"/><path stroke="#000" stroke-linecap="round" stroke-linejoin="round" d="m 26.49644,1027.8658 -4.49997,0 c -0.83099,0 -1.49998,-0.6691 -1.49998,-1.5 l 0,-4.5"/><path d="m 6,1044.3625 0,5.9963 3.5,0 c -0.8223447,0 -1.5,-0.6772 -1.5,-1.4991 A 0.50005,0.49974183 0 0 1 8.4921875,1048.3541 0.50005,0.49974183 0 0 1 9,1048.8597 c 0,0.2856 0.2143707,0.4997 0.5,0.4997 0.2856308,0 0.5,-0.2141 0.5,-0.4997 l 0,-2.9903 a 0.50005,0.49974183 0 0 1 0.492188,-0.5095 A 0.50005,0.49974183 0 0 1 11,1045.8675 l 0,2.9902 c 0,0 1.4e-5,0.01 0,0.01 a 0.50005,0.49974183 0 0 1 -0.01563,0.1327 c -0.07334,0.7558 -0.710436,1.3586 -1.484375,1.3586 l 2.933594,0 A 0.50005,0.49974183 0 0 1 12,1049.8571 l 0,-2.9922 0,-0.01 a 0.50005,0.49974183 0 0 1 0.01367,-0.1269 c 3e-4,0 0.0016,-0.01 0.002,-0.01 0.0729,-0.7562 0.709974,-1.3585 1.484375,-1.3585 l 0,0.01 c 0.822505,0 1.5,0.6771 1.5,1.4991 0,0.8219 -0.677495,1.499 -1.5,1.499 -0.175664,0 -0.342752,-0.037 -0.5,-0.094 l 0,1.5868 a 0.50005,0.49974183 0 0 1 -0.429688,0.5017 l 5.003907,0 C 16.710921,1050.3588 16,1049.6483 16,1048.7856 l 0,-1.8505 c 0,-0.8628 0.710977,-1.5733 1.574219,-1.5752 l 0,0 1.925781,0 a 0.50005,0.49974183 0 1 1 0,0.9994 l -1.925781,0 c -0.326578,0 -0.574219,0.2474 -0.574219,0.5738 l 0,1.8505 c 0,0.3264 0.247739,0.5741 0.574219,0.5738 l 0.851562,0 C 18.752303,1049.3574 19,1049.11 19,1048.7836 l 0,-0.4217 -0.492188,0 a 0.50005,0.49974183 0 1 1 0,-0.9994 l 0.984376,0 a 0.50005,0.49974183 0 0 0 0.002,0 0.50005,0.49974183 0 0 1 0.01953,0 0.50005,0.49974183 0 0 1 0.04883,0 0.50005,0.49974183 0 0 1 0.05078,0.01 0.50005,0.49974183 0 0 1 0.04687,0.014 A 0.50005,0.49974183 0 0 1 20,1047.8681 l 0,0.9175 0,0.068 a 0.50005,0.49974183 0 0 1 -0.02344,0.1562 c -0.110956,0.7576 -0.764082,1.3488 -1.550781,1.3488 l 7.574219,0 0,-5.9963 -20,0 z m 7.5,1.989 c -0.280049,0 -0.4969,0.2149 -0.5,0.4939 l 0,0.01 c 0,0.2819 0.217935,0.4997 0.5,0.4997 0.282065,0 0.5,-0.2178 0.5,-0.4997 0,-0.2819 -0.217935,-0.4997 -0.5,-0.4997 l 0,0 z"/><path fill-rule="evenodd" d="M 11 9.0039062 A 2 2 0 0 0 9 11.003906 A 2 2 0 0 0 11 13.003906 A 2 2 0 0 0 13 11.003906 A 2 2 0 0 0 11 9.0039062 z M 18 12.003906 L 13.96875 17.761719 L 12 15.003906 L 7 22.003906 L 11 22.003906 L 17 22.003906 L 25 22.003906 L 18 12.003906 z " transform="translate(0 1020.362)"/></g></svg>