<svg xmlns="http://www.w3.org/2000/svg" width="32" height="32" viewBox="0 0 32 32"><g transform="translate(0 -1020.362)"><path fill="none" stroke="#000" stroke-linecap="round" stroke-linejoin="round" d="m 26.49644,1027.8658 0,21.5 c 0,0.831 -0.66899,1.5 -1.49998,1.5 l -18.00004,0 c -0.83099,0 -1.49998,-0.669 -1.49998,-1.5 l 0,-26 c 0,-0.831 0.66899,-1.5 1.49998,-1.5 l 13.50002,0 z"/><path d="M 5 24.003906 L 5 26.003906 L 5 28.003906 L 5 29.003906 C 5 30.111906 5.89198 31.003906 7 31.003906 L 25 31.003906 C 26.10802 31.003906 27 30.111906 27 29.003906 L 27 28.003906 L 27 26.003906 L 27 24.003906 L 25 24.003906 L 7 24.003906 L 5 24.003906 z M 22.517578 24.982422 A 0.50005 0.50005 0 0 1 22.900391 25.189453 L 24.998047 27.990234 L 24.998047 25.5 A 0.50005 0.50005 0 0 1 25.490234 24.992188 A 0.50005 0.50005 0 0 1 25.998047 25.5 L 25.998047 29.488281 A 0.50005 0.50005 0 0 1 25.095703 29.789062 L 25.082031 29.771484 A 0.50005 0.50005 0 0 0 25.080078 29.771484 L 22.998047 26.992188 L 22.998047 29.492188 A 0.50005 0.50005 0 1 1 21.998047 29.492188 L 21.998047 25.529297 A 0.50005 0.50005 0 0 1 22.466797 24.988281 A 0.50005 0.50005 0 0 1 22.517578 24.988281 L 22.517578 24.982422 z M 9.4921875 24.998047 A 0.50005 0.50005 0 0 1 10 25.505859 L 10 28.498047 C 10 28.498047 10.000014 28.507812 10 28.507812 A 0.50005 0.50005 0 0 1 9.984375 28.640625 C 9.911031 29.396825 9.2739392 30 8.5 30 C 7.6776553 30 7 29.3224 7 28.5 A 0.50005 0.50005 0 0 1 7.4921875 27.994141 A 0.50005 0.50005 0 0 1 8 28.5 C 8 28.7857 8.2143707 29 8.5 29 C 8.7856308 29 9 28.7857 9 28.5 L 9 25.507812 A 0.50005 0.50005 0 0 1 9.4921875 25 L 9.4921875 24.998047 z M 12.441406 25 A 0.50005 0.50005 0 0 1 12.492188 25 A 0.50005 0.50005 0 0 1 12.527344 25 L 14.492188 25 A 0.50005 0.50005 0 1 1 14.492188 26 L 12.492188 26 C 12.206539 26 11.992188 26.2144 11.992188 26.5 C 11.992188 26.7857 12.206539 27 12.492188 27 A 0.50005 0.50005 0 0 1 12.527344 27 L 13.492188 27 A 0.50005 0.50005 0 0 1 13.599609 27.009766 C 14.371922 27.066566 14.992188 27.7144 14.992188 28.5 C 14.992187 29.287 14.369772 29.933281 13.595703 29.988281 A 0.50005 0.50005 0 0 1 13.492188 30 L 11.492188 30 A 0.50005 0.50005 0 1 1 11.492188 29 L 13.492188 29 C 13.777836 29 13.992188 28.7857 13.992188 28.5 C 13.992188 28.2144 13.777836 28 13.492188 28 L 12.492188 28 A 0.50005 0.50005 0 0 1 12.398438 27.990234 C 11.61974 27.940334 10.992188 27.2904 10.992188 26.5 C 10.992187 25.7164 11.609409 25.071719 12.378906 25.011719 A 0.50005 0.50005 0 0 1 12.441406 25 z M 18.5 25 C 19.874789 25 21 26.1252 21 27.5 C 21 28.8748 19.874789 30 18.5 30 C 17.125211 30 16 28.8748 16 27.5 C 16 26.1252 17.125211 25 18.5 25 z M 18.5 26 C 17.665651 26 17 26.6657 17 27.5 C 17 28.3344 17.665651 29 18.5 29 C 19.334349 29 20 28.3344 20 27.5 C 20 26.6657 19.334349 26 18.5 26 z " transform="translate(0 1020.362)"/><path stroke="#000" stroke-linecap="round" stroke-linejoin="round" d="m 26.49644,1027.8658 -4.49997,0 c -0.83099,0 -1.49998,-0.6691 -1.49998,-1.5 l 0,-4.5"/><path style="line-height:normal;text-indent:0;text-align:start;text-decoration-line:none;text-decoration-style:solid;text-decoration-color:#000;text-transform:none;block-progression:tb;isolation:auto;mix-blend-mode:normal" d="m 13.507812,1030.3661 c -1.099351,0 -1.999999,0.9007 -2,2 l 0,0.9551 0,0.045 c 0,0.5627 -0.43735,1 -1,1 a 0.50005,0.50005 0 0 0 -0.498046,0.4063 0.50005,0.50005 0 0 0 0,0 0.50005,0.50005 0 0 0 0.148437,0.455 0.50005,0.50005 0 0 0 0.07813,0.061 0.50005,0.50005 0 0 0 0.138672,0.059 0.50005,0.50005 0 0 0 0.09766,0.016 0.50005,0.50005 0 0 0 0.03516,0 c 0.56265,0 1,0.4374 1,1 l 0,0.047 0,0.9531 c 0,1.0994 0.90065,2 2,2 a 0.50005,0.50005 0 1 0 0,-1 c -0.562647,0 -1,-0.4373 -1,-1 l 0,-0.9531 0,-0.047 c 0,-0.5983 -0.272971,-1.1325 -0.693359,-1.5 0.420928,-0.3675 0.693359,-0.9012 0.693359,-1.5 l 0,-0.045 0,-0.9551 c 0,-0.5626 0.437352,-1 1,-1 a 0.50005,0.50005 0 1 0 0,-1 z m 3.933594,0 a 0.50064429,0.50064429 0 0 0 0.05078,1 c 0.562647,0 1,0.4374 1,1 l 0,0.9551 0,0.045 c 0,0.5988 0.272431,1.1325 0.693359,1.5 -0.420388,0.3675 -0.693359,0.9017 -0.693359,1.5 l 0,0.047 0,0.9531 c 0,0.5627 -0.437353,1 -1,1 a 0.50005,0.50005 0 1 0 0,1 c 1.09935,0 2,-0.9006 2,-2 l 0,-0.9531 0,-0.047 c 0,-0.5626 0.43735,-1 1,-1 a 0.50005,0.50005 0 0 0 0.324218,-0.1133 0.50005,0.50005 0 0 0 0.03711,-0.035 0.50005,0.50005 0 0 0 -0.361328,-0.8516 c -0.56265,0 -1,-0.4373 -1,-1 l 0,-0.045 0,-0.9551 c 0,-1.0993 -0.90065,-2 -2,-2 a 0.50005,0.50005 0 0 0 -0.05078,0 z M 15.5,1032.3622 a 0.5,0.5 0 0 0 -0.5,0.5 0.5,0.5 0 0 0 0.5,0.5 0.5,0.5 0 0 0 0.5,-0.5 0.5,0.5 0 0 0 -0.5,-0.5 z m -0.0078,1.9941 A 0.50005,0.50005 0 0 0 15,1034.8622 l 0,3 a 0.50005,0.50005 0 1 0 1,0 l 0,-3 a 0.50005,0.50005 0 0 0 -0.507812,-0.5059 z" color="#000" font-family="sans-serif" font-weight="400" overflow="visible" white-space="normal"/></g></svg>