<svg xmlns="http://www.w3.org/2000/svg" width="32" height="32" viewBox="0 0 32 32"><g transform="translate(0 -1020.362)"><path fill="none" stroke="#000" stroke-linecap="round" stroke-linejoin="round" d="m 26.49822,1027.8658 0,21.5 c 0,0.831 -0.66899,1.5 -1.49998,1.5 l -18.00004,0 c -0.83099,0 -1.49998,-0.669 -1.49998,-1.5 l 0,-26 c 0,-0.831 0.66899,-1.5 1.49998,-1.5 l 13.50002,0 z"/><path d="M 4.9980469 24.003906 L 4.9980469 26.003906 L 4.9980469 28.003906 L 4.9980469 29.003906 C 4.9980469 30.111906 5.8900269 31.003906 6.9980469 31.003906 L 24.998047 31.003906 C 26.106067 31.003906 26.998047 30.111906 26.998047 29.003906 L 26.998047 28.003906 L 26.998047 26.003906 L 26.998047 24.003906 L 24.998047 24.003906 L 6.9980469 24.003906 L 4.9980469 24.003906 z M 11.464844 24.984375 A 0.50005 0.50005 0 0 1 11.515625 24.984375 A 0.50005 0.50005 0 0 1 12.001953 25.513672 L 12.001953 29.490234 A 0.50005 0.50005 0 1 1 11.001953 29.490234 L 11.001953 26.988281 L 10.400391 27.791016 A 0.5001928 0.5001928 0 0 1 9.5996094 27.791016 L 8.9980469 26.988281 L 8.9980469 29.490234 A 0.50005 0.50005 0 1 1 7.9980469 29.490234 L 7.9980469 25.501953 A 0.50005 0.50005 0 0 1 8.4902344 24.994141 A 0.50005 0.50005 0 0 1 8.8984375 25.195312 L 8.9023438 25.195312 L 10 26.660156 L 11.097656 25.195312 A 0.50005 0.50005 0 0 1 11.464844 24.988281 L 11.464844 24.984375 z M 19.460938 24.998047 A 0.50005 0.50005 0 0 1 19.511719 24.998047 A 0.50005 0.50005 0 0 1 19.970703 25.330078 L 21.001953 28.080078 L 22.033203 25.330078 A 0.5002831 0.5002831 0 0 1 22.970703 25.679688 L 21.470703 29.679688 A 0.50005 0.50005 0 0 1 20.533203 29.679688 L 19.033203 25.679688 A 0.50005 0.50005 0 0 1 19.460938 24.998047 z M 15.501953 25.007812 C 16.876743 25.007812 18.001953 26.133012 18.001953 27.507812 C 18.001953 28.882613 16.876743 30.007812 15.501953 30.007812 C 14.127164 30.007812 13.001953 28.882613 13.001953 27.507812 C 13.001953 26.133012 14.127164 25.007812 15.501953 25.007812 z M 15.501953 26.007812 C 14.667604 26.007812 14.001953 26.673513 14.001953 27.507812 C 14.001953 28.342212 14.667604 29.007812 15.501953 29.007812 C 16.336303 29.007812 17.001953 28.342212 17.001953 27.507812 C 17.001953 26.673513 16.336303 26.007812 15.501953 26.007812 z " transform="translate(0 1020.362)"/><path stroke="#000" stroke-linecap="round" stroke-linejoin="round" d="m 26.49466,1027.8658 -4.49997,0 c -0.83099,0 -1.49998,-0.6691 -1.49998,-1.5 l 0,-4.5"/><path style="line-height:normal;text-indent:0;text-align:start;text-decoration-line:none;text-decoration-style:solid;text-decoration-color:#000;text-transform:none;block-progression:tb;isolation:auto;mix-blend-mode:normal" d="m 15.998047,1027.8622 c -3.860071,0 -7.0000004,3.14 -7.0000001,7 -3e-7,3.8601 3.1399291,7 7.0000001,7 3.860071,0 7,-3.1399 7,-7 0,-3.86 -3.139929,-7 -7,-7 z m 0,1 c 3.319631,0 6,2.6804 6,6 0,3.3197 -2.680369,6 -6,6 -3.319631,0 -6.0000004,-2.6803 -6.0000001,-6 -3e-7,-3.3196 2.6803691,-6 6.0000001,-6 z m -1.992188,1.9629 0,0 a 0.50004997,0.50004997 0 0 0 -0.507812,0.5 l 0,7.0723 a 0.50004997,0.50004997 0 0 0 0.789062,0.4082 l 4.992188,-3.5371 a 0.50004997,0.50004997 0 0 0 0,-0.8165 l -4.992188,-3.5351 a 0.50004997,0.50004997 0 0 0 -0.28125,-0.094 z m 0.492188,1.4687 3.626953,2.5684 -3.626953,2.5703 0,-5.1387 z" color="#000" font-family="sans-serif" font-weight="400" overflow="visible" white-space="normal"/></g></svg>