<svg xmlns="http://www.w3.org/2000/svg" width="32" height="32" viewBox="0 0 32 32"><g transform="translate(0 -1020.362)"><path fill="none" stroke="#000" stroke-linecap="round" stroke-linejoin="round" d="m 26.49644,1027.8658 0,21.5 c 0,0.831 -0.66899,1.5 -1.49998,1.5 l -18.00004,0 c -0.83099,0 -1.49998,-0.669 -1.49998,-1.5 l 0,-26 c 0,-0.831 0.66899,-1.5 1.49998,-1.5 l 13.50002,0 z"/><path d="M 5 24.003906 L 5 26.003906 L 5 28.003906 L 5 29.003906 C 5 30.111906 5.89198 31.003906 7 31.003906 L 25 31.003906 C 26.10802 31.003906 27 30.111906 27 29.003906 L 27 28.003906 L 27 26.003906 L 27 24.003906 L 25 24.003906 L 7 24.003906 L 5 24.003906 z M 11.458984 24.990234 A 0.50005 0.50005 0 0 1 11.509766 24.990234 A 0.50005 0.50005 0 0 1 11.992188 25.550781 L 11.992188 29.496094 A 0.50005 0.50005 0 1 1 10.992188 29.496094 L 10.992188 26.996094 L 10.394531 27.794922 A 0.50005 0.50005 0 0 1 9.515625 27.689453 L 8.9921875 26.990234 L 8.9921875 29.496094 A 0.50005 0.50005 0 1 1 7.9921875 29.496094 L 7.9921875 25.505859 A 0.50005 0.50005 0 0 1 8.4863281 25 A 0.50005 0.50005 0 0 1 8.8925781 25.199219 L 8.8964844 25.199219 L 9.9941406 26.664062 L 11.091797 25.199219 A 0.50005 0.50005 0 0 1 11.458984 24.992188 L 11.458984 24.990234 z M 14.492188 25.003906 L 14.492188 25.007812 C 15.314692 25.007812 15.992188 25.685313 15.992188 26.507812 C 15.992187 27.330312 15.314692 28.007812 14.492188 28.007812 C 14.316522 28.007812 14.149435 27.971063 13.992188 27.914062 L 13.992188 29.501953 A 0.50005 0.50005 0 1 1 12.992188 29.501953 L 12.992188 26.507812 L 12.992188 26.498047 A 0.50005 0.50005 0 0 1 13.005859 26.380859 C 13.070328 25.615859 13.711773 25.003906 14.492188 25.003906 z M 18.623047 25.011719 C 19.28198 25.092619 19.81733 25.588981 19.957031 26.238281 C 20.053907 26.688481 19.936626 27.141447 19.673828 27.498047 C 19.940408 27.858347 20.056205 28.320791 19.955078 28.775391 C 19.8108 29.423991 19.271124 29.916187 18.611328 29.992188 C 17.951542 30.068088 17.312843 29.711228 17.027344 29.111328 A 0.50005 0.50005 0 1 1 17.929688 28.681641 C 18.034903 28.903041 18.259644 29.025047 18.496094 28.998047 C 18.732547 28.970847 18.925086 28.798694 18.978516 28.558594 C 19.025639 28.346794 18.946769 28.137253 18.789062 28.001953 L 18.5 28.001953 A 0.50005 0.50005 0 1 1 18.5 27.001953 L 18.785156 27.001953 C 18.944019 26.868153 19.026109 26.661219 18.980469 26.449219 C 18.928734 26.208719 18.736155 26.034859 18.5 26.005859 C 18.263841 25.976859 18.038539 26.100212 17.931641 26.320312 A 0.50005 0.50005 0 1 1 17.033203 25.882812 C 17.32333 25.285413 17.964102 24.932672 18.623047 25.013672 L 18.623047 25.011719 z M 14.492188 26 C 14.212137 26 13.995287 26.215141 13.992188 26.494141 L 13.992188 26.503906 C 13.992188 26.786006 14.210123 27.003906 14.492188 27.003906 C 14.774251 27.003906 14.992188 26.786006 14.992188 26.503906 C 14.992186 26.221906 14.774252 26.003906 14.492188 26.003906 L 14.492188 26 z " transform="translate(0 1020.362)"/><path stroke="#000" stroke-linecap="round" stroke-linejoin="round" d="m 26.49644,1027.8658 -4.49997,0 c -0.83099,0 -1.49998,-0.6691 -1.49998,-1.5 l 0,-4.5"/><path fill-rule="evenodd" style="line-height:normal;text-indent:0;text-align:start;text-decoration-line:none;text-decoration-style:solid;text-decoration-color:#000;text-transform:none;block-progression:tb;isolation:auto;mix-blend-mode:normal" d="m 20.492188,1029.3602 a 0.50005,0.50005 0 0 0 -0.232422,0.062 l -7.908204,1.5938 a 0.43032057,0.43032057 0 0 0 -0.34375,0.4551 0.50005,0.50005 0 0 0 -0.0078,0.096 l 0,3.2539 a 0.43011362,0.43011362 0 0 0 0,0.2402 l 0,4.3965 c -0.157248,-0.057 -0.324336,-0.092 -0.5,-0.092 -0.822505,0 -1.5,0.6775 -1.5,1.5 0,0.8225 0.677495,1.5 1.5,1.5 0.78287,0 1.42731,-0.6164 1.488281,-1.3848 A 0.50005,0.50005 0 0 0 13,1040.8661 l 0,-5.6055 7,-1.4121 0,3.6094 c -0.157248,-0.057 -0.324336,-0.092 -0.5,-0.092 -0.822505,0 -1.5,0.6775 -1.5,1.5 0,0.8225 0.677495,1.5 1.5,1.5 0.78287,0 1.42731,-0.6164 1.488281,-1.3848 A 0.50005,0.50005 0 0 0 21,1038.8661 l 0,-9 a 0.50005,0.50005 0 0 0 -0.0059,-0.078 0.43011362,0.43011362 0 0 0 -0.386719,-0.416 0.50005,0.50005 0 0 0 -0.115234,-0.012 z M 20,1030.3524 l 0,2.6192 -7,1.4121 0,-2.6192 7,-1.4121 z m -0.5,8.0137 c 0.282065,0 0.5,0.218 0.5,0.5 0,0.2821 -0.217935,0.5 -0.5,0.5 -0.282065,0 -0.5,-0.2179 -0.5,-0.5 0,-0.282 0.217935,-0.5 0.5,-0.5 z m -8,2 c 0.282065,0 0.5,0.218 0.5,0.5 0,0.2821 -0.217935,0.5 -0.5,0.5 -0.282065,0 -0.5,-0.2179 -0.5,-0.5 0,-0.282 0.217935,-0.5 0.5,-0.5 z" color="#000" font-family="sans-serif" font-weight="400" overflow="visible" white-space="normal"/></g></svg>