<svg xmlns="http://www.w3.org/2000/svg" width="32" height="32" viewBox="0 0 32 32"><g transform="translate(0 -1020.362)"><path fill="none" stroke="#000" stroke-linecap="round" stroke-linejoin="round" d="m 26.49644,1027.8658 0,21.5 c 0,0.831 -0.66899,1.5 -1.49998,1.5 l -18.00004,0 c -0.83099,0 -1.49998,-0.669 -1.49998,-1.5 l 0,-26 c 0,-0.831 0.66899,-1.5 1.49998,-1.5 l 13.50002,0 z"/><path d="M 5 24.003906 L 5 26.003906 L 5 28.003906 L 5 29.003906 C 5 30.111906 5.89198 31.003906 7 31.003906 L 25 31.003906 C 26.10802 31.003906 27 30.111906 27 29.003906 L 27 28.003906 L 27 26.003906 L 27 24.003906 L 25 24.003906 L 7 24.003906 L 5 24.003906 z M 11.455078 24.984375 A 0.50005 0.50005 0 0 1 11.505859 24.984375 A 0.50005 0.50005 0 0 1 11.992188 25.513672 L 11.992188 29.490234 A 0.50005 0.50005 0 1 1 10.992188 29.490234 L 10.992188 26.988281 L 10.390625 27.791016 A 0.50005 0.50005 0 0 1 9.5058594 27.675781 L 8.9902344 26.988281 L 8.9902344 29.490234 A 0.50005 0.50005 0 1 1 7.9902344 29.490234 L 7.9902344 25.501953 A 0.50005 0.50005 0 0 1 8.4824219 24.994141 A 0.50005 0.50005 0 0 1 8.5039062 24.994141 A 0.50005 0.50005 0 0 1 8.6523438 25.019531 A 0.50005 0.50005 0 0 1 8.6992188 25.037109 A 0.50005 0.50005 0 0 1 8.7441406 25.060547 A 0.50005 0.50005 0 0 1 8.8261719 25.119141 A 0.50005 0.50005 0 0 1 8.8945312 25.191406 L 9.9921875 26.660156 L 11.087891 25.195312 A 0.50005 0.50005 0 0 1 11.455078 24.988281 L 11.455078 24.984375 z M 19.486328 24.998047 A 0.50005 0.50005 0 0 1 19.992188 25.505859 L 19.992188 26.492188 L 19.992188 27.498047 L 20.492188 27.498047 A 0.50005 0.50005 0 1 1 20.492188 28.498047 L 19.992188 28.498047 L 19.992188 28.507812 A 0.50005 0.50005 0 0 1 19.992188 28.541016 L 19.992188 29.494141 A 0.50005 0.50005 0 1 1 18.992188 29.494141 L 18.992188 28.507812 L 18.992188 28.498047 L 17.632812 28.498047 A 0.50005 0.50005 0 0 1 17.001953 28.123047 A 0.50005 0.50005 0 0 1 17.021484 27.808594 L 17.501953 25.410156 A 0.50005 0.50005 0 0 1 17.986328 25.001953 A 0.50005 0.50005 0 0 1 18.482422 25.605469 L 18.103516 27.5 L 18.992188 27.5 L 18.992188 26.494141 A 0.50005 0.50005 0 0 1 18.992188 26.455078 L 18.992188 25.507812 A 0.50005 0.50005 0 0 1 19.486328 25 L 19.486328 24.998047 z M 14.492188 25 L 14.492188 25.003906 C 15.314692 25.003906 15.992188 25.681406 15.992188 26.503906 C 15.992187 27.326406 15.314692 28.003906 14.492188 28.003906 C 14.316522 28.003906 14.149435 27.967156 13.992188 27.910156 L 13.992188 29.498047 A 0.50005 0.50005 0 1 1 12.992188 29.498047 L 12.992188 26.503906 L 12.992188 26.494141 A 0.50005 0.50005 0 0 1 13.005859 26.376953 C 13.070328 25.611853 13.711773 25 14.492188 25 z M 14.492188 25.996094 C 14.212138 25.996094 13.995287 26.211234 13.992188 26.490234 L 13.992188 26.5 C 13.992188 26.7821 14.210123 27 14.492188 27 C 14.774251 27 14.992188 26.7821 14.992188 26.5 C 14.992187 26.218 14.774252 26 14.492188 26 L 14.492188 25.996094 z " transform="translate(0 1020.362)"/><path stroke="#000" stroke-linecap="round" stroke-linejoin="round" d="m 26.49644,1027.8658 -4.49997,0 c -0.83099,0 -1.49998,-0.6691 -1.49998,-1.5 l 0,-4.5"/><path style="line-height:normal;text-indent:0;text-align:start;text-decoration-line:none;text-decoration-style:solid;text-decoration-color:#000;text-transform:none;block-progression:tb;isolation:auto;mix-blend-mode:normal" d="m 13.507812,1030.8251 0,0 A 0.50004997,0.50004997 0 0 0 13,1031.327 l 0,7.0723 a 0.50004997,0.50004997 0 0 0 0.789062,0.4082 l 4.992188,-3.5371 a 0.50004997,0.50004997 0 0 0 0,-0.8144 l -4.992188,-3.5372 a 0.50004997,0.50004997 0 0 0 -0.28125,-0.094 z M 14,1032.2938 l 3.628906,2.5704 -3.628906,2.5683 0,-5.1387 z" color="#000" font-family="sans-serif" font-weight="400" overflow="visible" white-space="normal"/></g></svg>