<svg xmlns="http://www.w3.org/2000/svg" width="32" height="32" viewBox="0 0 32 32"><g transform="translate(0 -1020.362)"><path fill="none" stroke="#000" stroke-linecap="round" stroke-linejoin="round" d="m 26.49644,1027.8658 0,21.5 c 0,0.831 -0.66899,1.5 -1.49998,1.5 l -18.00004,0 c -0.83099,0 -1.49998,-0.669 -1.49998,-1.5 l 0,-26 c 0,-0.831 0.66899,-1.5 1.49998,-1.5 l 13.50002,0 z"/><path d="M 5 24.003906 L 5 26.003906 L 5 28.003906 L 5 29.003906 C 5 30.111906 5.89198 31.003906 7 31.003906 L 25 31.003906 C 26.10802 31.003906 27 30.111906 27 29.003906 L 27 28.003906 L 27 26.003906 L 27 24.003906 L 25 24.003906 L 7 24.003906 L 5 24.003906 z M 12.474609 24.990234 A 0.50005 0.50005 0 0 1 12.597656 25.003906 L 13.369141 25.003906 L 13.419922 25.003906 L 13.496094 25.003906 A 0.50005 0.50005 0 0 1 13.646484 25.025391 C 14.950387 25.138591 15.996094 26.193106 15.996094 27.503906 C 15.996094 28.817706 14.945213 29.873722 13.636719 29.982422 A 0.50005 0.50005 0 0 1 13.488281 30.001953 L 12.490234 30.001953 A 0.50005 0.50005 0 0 1 12.322266 29.976562 A 0.50005 0.50005 0 0 1 12.294922 29.964844 A 0.50005 0.50005 0 0 1 12.21875 29.925781 A 0.50005 0.50005 0 0 1 12.183594 29.904297 A 0.50005 0.50005 0 0 1 12.171875 29.894531 A 0.50005 0.50005 0 0 1 12.158203 29.880859 A 0.50005 0.50005 0 0 1 12.132812 29.859375 A 0.50005 0.50005 0 0 1 12.121094 29.845703 A 0.50005 0.50005 0 0 1 12.095703 29.818359 A 0.50005 0.50005 0 0 1 12.072266 29.789062 A 0.50005 0.50005 0 0 1 12.066406 29.779297 A 0.50005 0.50005 0 0 1 12.046875 29.748047 A 0.50005 0.50005 0 0 1 12.019531 29.691406 A 0.50005 0.50005 0 0 1 12.005859 29.65625 A 0.50005 0.50005 0 0 1 12.001953 29.642578 A 0.50005 0.50005 0 0 1 11.982422 29.460938 L 11.982422 25.498047 A 0.50005 0.50005 0 0 1 12.474609 24.990234 z M 9.4960938 25 L 9.4960938 25.003906 C 10.318599 25.003906 10.996094 25.681406 10.996094 26.503906 C 10.996094 27.326406 10.318599 28.003906 9.4960938 28.003906 C 9.3204293 28.003906 9.1533422 27.967156 8.9960938 27.910156 L 8.9960938 29.498047 A 0.50005 0.50005 0 1 1 7.9960938 29.498047 L 7.9960938 26.503906 L 7.9960938 26.494141 A 0.50005 0.50005 0 0 1 8.0097656 26.369141 C 8.0779613 25.607841 8.7183219 25 9.4960938 25 z M 18.5625 25 L 19.490234 25 A 0.50005 0.50005 0 1 1 19.490234 26 L 18.5625 26 C 18.235925 26 17.990234 26.247719 17.990234 26.574219 L 17.990234 27 L 18.990234 27 A 0.50005 0.50005 0 1 1 18.990234 28 L 17.990234 28 L 17.990234 29.5 A 0.50005 0.50005 0 1 1 16.990234 29.5 L 16.990234 27.53125 A 0.50005 0.50005 0 0 1 16.990234 27.457031 L 16.990234 26.574219 C 16.990234 25.711019 17.699259 25 18.5625 25 z M 9.4960938 25.996094 C 9.2160445 25.996094 8.9991738 26.211234 8.9960938 26.490234 L 8.9960938 26.5 C 8.9960937 26.7821 9.2140291 27 9.4960938 27 C 9.7781584 27 9.9960938 26.7821 9.9960938 26.5 C 9.9960938 26.218 9.7781583 26 9.4960938 26 L 9.4960938 25.996094 z M 12.982422 26 L 12.982422 29 L 13.419922 29 C 14.312128 29 14.996094 28.3294 14.996094 27.5 C 14.996094 26.6703 14.312157 26 13.419922 26 L 12.982422 26 z " transform="translate(0 1020.362)"/><path stroke="#000" stroke-linecap="round" stroke-linejoin="round" d="m 26.49644,1027.8658 -4.49997,0 c -0.83099,0 -1.49998,-0.6691 -1.49998,-1.5 l 0,-4.5"/><path fill-rule="evenodd" style="line-height:normal;text-indent:0;text-align:start;text-decoration-line:none;text-decoration-style:solid;text-decoration-color:#000;text-transform:none;block-progression:tb;isolation:auto;mix-blend-mode:normal" d="m 7.5,1023.3622 a 0.50005,0.50005 0 0 0 -0.5,0.5 l 0,4 a 0.50005,0.50005 0 0 0 0.5,0.5 l 5,0 a 0.50005,0.50005 0 0 0 0.5,-0.5 l 0,-4 a 0.50005,0.50005 0 0 0 -0.5,-0.5 l -5,0 z m 6.957031,0 a 0.50064426,0.50064426 0 0 0 0.05078,1 l 3.992189,0 a 0.50005,0.50005 0 1 0 0,-1 l -3.992188,0 a 0.50005,0.50005 0 0 0 -0.05078,0 z m -6.457031,1 4,0 0,3 -4,0 0,-3 z m 6.457031,1 a 0.50064426,0.50064426 0 0 0 0.05078,1 l 3.992189,0 a 0.50005,0.50005 0 1 0 0,-1 l -3.992188,0 a 0.50005,0.50005 0 0 0 -0.05078,0 z m 0,2 a 0.50064426,0.50064426 0 0 0 0.05078,1 l 3.992189,0 a 0.50005,0.50005 0 1 0 0,-1 l -3.992188,0 a 0.50005,0.50005 0 0 0 -0.05078,0 z m -6.9999998,2 a 0.50064427,0.50064427 0 0 0 0.050781,1 l 3.9999998,0 a 0.50005,0.50005 0 1 0 0,-1 l -3.9999995,0 a 0.50005,0.50005 0 0 0 -0.050781,0 z m 5.9999998,0 a 0.50064426,0.50064426 0 0 0 0.05078,1 l 1,0 a 0.50005,0.50005 0 1 0 0,-1 l -1,0 a 0.50005,0.50005 0 0 0 -0.05078,0 z m 3,0 a 0.50064426,0.50064426 0 0 0 0.05078,1 l 7.992189,0 a 0.50005,0.50005 0 1 0 0,-1 l -7.992188,0 a 0.50005,0.50005 0 0 0 -0.05078,0 z m -8.9999998,2 a 0.50064427,0.50064427 0 0 0 0.050781,1 l 5.9999998,0 a 0.50005,0.50005 0 1 0 0,-1 l -5.9999998,0 a 0.50005,0.50005 0 0 0 -0.050781,0 z m 7.9999998,0 a 0.50064426,0.50064426 0 0 0 0.05078,1 l 1,0 a 0.50005,0.50005 0 1 0 0,-1 l -1,0 a 0.50005,0.50005 0 0 0 -0.05078,0 z m 3,0 a 0.50064426,0.50064426 0 0 0 0.05078,1 l 5.992189,0 a 0.50005,0.50005 0 1 0 0,-1 l -5.992188,0 a 0.50005,0.50005 0 0 0 -0.05078,0 z m -10.9999998,2 a 0.50064427,0.50064427 0 0 0 0.050781,1 l 7.9999998,0 a 0.50005,0.50005 0 1 0 0,-1 l -7.9999998,0 a 0.50005,0.50005 0 0 0 -0.050781,0 z m 9.9999998,0 a 0.50064426,0.50064426 0 0 0 0.05078,1 l 1,0 a 0.50005,0.50005 0 1 0 0,-1 l -1,0 a 0.50005,0.50005 0 0 0 -0.05078,0 z m 3,0 a 0.50064426,0.50064426 0 0 0 0.05078,1 l 3.992189,0 a 0.50005,0.50005 0 1 0 0,-1 l -3.992188,0 a 0.50005,0.50005 0 0 0 -0.05078,0 z m -12.9999998,2 a 0.50064427,0.50064427 0 0 0 0.050781,1 l 3.9999998,0 a 0.50005,0.50005 0 1 0 0,-1 l -3.9999998,0 a 0.50005,0.50005 0 0 0 -0.050781,0 z m 5.9999998,0 a 0.50064426,0.50064426 0 0 0 0.05078,1 l 1,0 a 0.50005,0.50005 0 1 0 0,-1 l -1,0 a 0.50005,0.50005 0 0 0 -0.05078,0 z m 3,0 a 0.50064426,0.50064426 0 0 0 0.05078,1 l 4.53125,0 3.460939,0 a 0.50005,0.50005 0 0 0 0,-1 l -3.425781,0 -4.566407,0 a 0.50005,0.50005 0 0 0 -0.05078,0 z" color="#000" font-family="sans-serif" font-weight="400" overflow="visible" white-space="normal"/></g></svg>