<svg xmlns="http://www.w3.org/2000/svg" width="32" height="32" viewBox="0 0 32 32"><g transform="translate(0 -1020.362)"><path fill="none" stroke="#000" stroke-linecap="round" stroke-linejoin="round" d="m 26.496439,1027.8658 0,21.5 c 0,0.831 -0.66899,1.5 -1.49998,1.5 l -18.00004,0 c -0.83099,0 -1.49998,-0.669 -1.49998,-1.5 l 0,-26 c 0,-0.831 0.66899,-1.5 1.49998,-1.5 l 13.50002,0 z"/><path d="M 5 24.003906 L 5 26.003906 L 5 28.003906 L 5 29.003906 C 5 30.111906 5.89198 31.003906 7 31.003906 L 25 31.003906 C 26.10802 31.003906 27 30.111906 27 29.003906 L 27 28.003906 L 27 26.003906 L 27 24.003906 L 25 24.003906 L 7 24.003906 L 5 24.003906 z M 9.4902344 25.001953 L 9.4902344 25.005859 C 10.312739 25.005859 10.990234 25.683359 10.990234 26.505859 C 10.990234 27.328359 10.312739 28.005859 9.4902344 28.005859 C 9.3145699 28.005859 9.1474828 27.969109 8.9902344 27.912109 L 8.9902344 29.5 A 0.50005 0.50005 0 1 1 7.9902344 29.5 L 7.9902344 26.505859 L 7.9902344 26.496094 A 0.50005 0.50005 0 0 1 8.0039062 26.371094 C 8.0041962 26.371094 8.005542 26.361328 8.0058594 26.361328 C 8.0787563 25.604628 8.7158337 25.001953 9.4902344 25.001953 z M 12.482422 25.001953 A 0.50005 0.50005 0 0 1 12.990234 25.507812 L 12.990234 27.003906 L 14.988281 27.003906 L 14.988281 25.507812 A 0.50005 0.50005 0 0 1 15.482422 25.001953 A 0.50005 0.50005 0 0 1 15.988281 25.507812 L 15.988281 27.408203 A 0.50005 0.50005 0 0 1 15.988281 27.595703 L 15.988281 29.498047 A 0.50005 0.50005 0 1 1 14.988281 29.498047 L 14.988281 28.003906 L 12.990234 28.003906 L 12.990234 29.498047 A 0.50005 0.50005 0 1 1 11.990234 29.498047 L 11.990234 27.535156 A 0.50005 0.50005 0 0 1 11.990234 27.460938 L 11.990234 25.507812 A 0.50005 0.50005 0 0 1 12.482422 25.001953 z M 18.490234 25.001953 C 19.312739 25.001953 19.990234 25.679453 19.990234 26.501953 C 19.990234 27.324453 19.312739 28.001953 18.490234 28.001953 C 18.31457 28.001953 18.147483 27.965203 17.990234 27.908203 L 17.990234 29.496094 A 0.50005 0.50005 0 1 1 16.990234 29.496094 L 16.990234 26.496094 A 0.50005 0.50005 0 0 1 17.003906 26.371094 C 17.072102 25.609694 17.712463 25.001953 18.490234 25.001953 z M 9.4902344 25.998047 C 9.2101852 25.998047 8.9933144 26.213088 8.9902344 26.492188 L 8.9902344 26.501953 C 8.9902344 26.784053 9.2081697 27.001953 9.4902344 27.001953 C 9.7722991 27.001953 9.9902344 26.784053 9.9902344 26.501953 C 9.9902344 26.219953 9.7722991 26.001953 9.4902344 26.001953 L 9.4902344 25.998047 z M 18.490234 25.998047 C 18.210186 25.998047 17.993334 26.213088 17.990234 26.492188 L 17.990234 26.501953 C 17.990234 26.784053 18.20817 27.001953 18.490234 27.001953 C 18.772299 27.001953 18.990234 26.784053 18.990234 26.501953 C 18.990234 26.219953 18.772299 26.001953 18.490234 26.001953 L 18.490234 25.998047 z " transform="translate(0 1020.362)"/><path stroke="#000" stroke-linecap="round" stroke-linejoin="round" d="m 26.496439,1027.8658 -4.49997,0 c -0.83099,0 -1.49998,-0.6691 -1.49998,-1.5 l 0,-4.5"/><path fill-rule="evenodd" style="line-height:normal;text-indent:0;text-align:start;text-decoration-line:none;text-decoration-style:solid;text-decoration-color:#000;text-transform:none;block-progression:tb;isolation:auto;mix-blend-mode:normal" d="m 15.507812,1031.3661 c -0.467931,-0 -0.940103,0.1268 -1.359374,0.3965 -1.118112,0.7188 -1.479068,2.2005 -0.814454,3.3516 a 0.5005035,0.5005035 0 1 0 0.867188,-0.5 c -0.40282,-0.6977 -0.189374,-1.5762 0.488281,-2.0118 0.677679,-0.4358 1.563682,-0.2635 2.03125,0.3926 0.466994,0.6554 0.340073,1.5482 -0.291015,2.0469 0,0 -0.002,0 -0.002,0 l -0.326172,0.248 c -0.688422,0.4645 -1.101522,1.2418 -1.101516,2.0723 l 0,2.5 a 0.50005,0.50005 0 1 0 1,0 l 0,-2.5 c -4e-6,-0.4992 0.24634,-0.963 0.660156,-1.2422 a 0.50005,0.50005 0 0 0 0.02344,-0.019 l 0.355468,-0.2715 a 0.50005,0.50005 0 0 0 0.0078,0 c 1.044369,-0.8222 1.259641,-2.3335 0.488281,-3.416 -0.385697,-0.5412 -0.951707,-0.8824 -1.5625,-1 -0.152698,-0.029 -0.308866,-0.046 -0.464844,-0.047 z m -3.978515,2 a 0.50005,0.50005 0 0 0 -0.34375,0.1484 l -2.9921876,2.9571 a 0.50005,0.50005 0 0 0 -0.1777344,0.2812 0.50005,0.50005 0 0 0 -0.00391,0.014 0.50005,0.50005 0 0 0 -0.00195,0.016 0.50005,0.50005 0 0 0 -0.00781,0.092 0.50005,0.50005 0 0 0 0.00195,0.025 0.50005,0.50005 0 0 0 0.00195,0.024 0.50005,0.50005 0 0 0 0.00391,0.031 0.50005,0.50005 0 0 0 0.00391,0.02 0.50005,0.50005 0 0 0 0.00391,0.014 0.50005,0.50005 0 0 0 0.171875,0.2734 l 2.996094,2.959 a 0.50005,0.50005 0 1 0 0.701172,-0.7109 l -2.6718822,-2.6406 2.6718752,-2.6426 a 0.50005,0.50005 0 0 0 -0.357422,-0.8594 z m 7.925781,0 a 0.50005,0.50005 0 0 0 -0.341797,0.8594 l 2.671875,2.6426 -2.671875,2.6406 a 0.50005,0.50005 0 1 0 0.701172,0.7109 l 2.998047,-2.9609 a 0.50005,0.50005 0 0 0 0.185547,-0.3887 0.50005,0.50005 0 0 0 0,-0.018 0.50005,0.50005 0 0 0 -0.002,-0.033 0.50005,0.50005 0 0 0 -0.002,-0.016 0.50005,0.50005 0 0 0 -0.0059,-0.033 0.50005,0.50005 0 0 0 -0.183593,-0.3008 l -2.990235,-2.9551 a 0.50005,0.50005 0 0 0 -0.359375,-0.1484 z m -3.990234,8 a 0.5,0.5 0 0 0 -0.464844,0.5 0.5,0.5 0 0 0 0.5,0.5 0.5,0.5 0 0 0 0.5,-0.5 0.5,0.5 0 0 0 -0.5,-0.5 0.5,0.5 0 0 0 -0.03516,0 z" color="#000" font-family="sans-serif" font-weight="400" overflow="visible" white-space="normal"/></g></svg>