<svg xmlns="http://www.w3.org/2000/svg" width="32" height="32" viewBox="0 0 32 32"><g transform="translate(0 -1020.362)"><path fill="none" stroke="#000" stroke-linecap="round" stroke-linejoin="round" d="m 26.49644,1027.8658 0,21.5 c 0,0.831 -0.66899,1.5 -1.49998,1.5 l -18.00004,0 c -0.83099,0 -1.49998,-0.669 -1.49998,-1.5 l 0,-26 c 0,-0.831 0.66899,-1.5 1.49998,-1.5 l 13.50002,0 z"/><path d="M 5 24.003906 L 5 26.003906 L 5 28.003906 L 5 29.003906 C 5 30.111906 5.89198 31.003906 7 31.003906 L 25 31.003906 C 26.10802 31.003906 27 30.111906 27 29.003906 L 27 28.003906 L 27 26.003906 L 27 24.003906 L 25 24.003906 L 7 24.003906 L 5 24.003906 z M 9.453125 24.998047 A 0.50005 0.50005 0 0 1 9.5039062 24.998047 A 0.50005 0.50005 0 0 1 9.5390625 24.998047 L 11.503906 24.998047 A 0.50005 0.50005 0 1 1 11.503906 25.998047 L 9.5039062 25.998047 C 9.2182577 25.998047 9.0039062 26.212447 9.0039062 26.498047 C 9.0039062 26.783747 9.2182576 26.998047 9.5039062 26.998047 A 0.50005 0.50005 0 0 1 9.5390625 26.998047 L 10.503906 26.998047 A 0.50005 0.50005 0 0 1 10.611328 27.007812 C 11.383642 27.064613 12.003906 27.712447 12.003906 28.498047 C 12.003906 29.285047 11.381492 29.931328 10.607422 29.986328 A 0.50005 0.50005 0 0 1 10.503906 29.998047 L 8.5039062 29.998047 A 0.50005 0.50005 0 1 1 8.5039062 28.998047 L 10.503906 28.998047 C 10.789555 28.998047 11.003906 28.783747 11.003906 28.498047 C 11.003906 28.212447 10.789555 27.998047 10.503906 27.998047 L 9.5039062 27.998047 A 0.50005 0.50005 0 0 1 9.4101562 27.988281 C 8.6314595 27.938381 8.0039062 27.288447 8.0039062 26.498047 C 8.0039062 25.714447 8.6211281 25.069766 9.390625 25.009766 A 0.50005 0.50005 0 0 1 9.453125 24.998047 z M 15.503906 24.998047 C 16.878696 24.998047 18.003906 26.123247 18.003906 27.498047 C 18.003906 28.006447 17.849417 28.4791 17.585938 28.875 L 17.851562 29.140625 A 0.50004997 0.50004997 0 1 1 17.144531 29.847656 L 16.876953 29.580078 C 16.48183 29.842078 16.010752 29.998047 15.503906 29.998047 C 14.129117 29.998047 13.003906 28.872847 13.003906 27.498047 C 13.003906 26.123247 14.129117 24.998047 15.503906 24.998047 z M 19.496094 24.998047 A 0.50005 0.50005 0 0 1 20.003906 25.505859 L 20.003906 29 L 21.5 29 A 0.50005 0.50005 0 1 1 21.5 30 L 19.511719 30 A 0.50005 0.50005 0 0 1 19.34375 29.972656 A 0.50005 0.50005 0 0 1 19.316406 29.962891 A 0.50005 0.50005 0 0 1 19.240234 29.923828 A 0.50005 0.50005 0 0 1 19.205078 29.900391 A 0.50005 0.50005 0 0 1 19.193359 29.890625 A 0.50005 0.50005 0 0 1 19.160156 29.863281 A 0.50005 0.50005 0 0 1 19.154297 29.853516 A 0.50005 0.50005 0 0 1 19.142578 29.839844 A 0.50005 0.50005 0 0 1 19.087891 29.773438 A 0.50005 0.50005 0 0 1 19.068359 29.742188 A 0.50005 0.50005 0 0 1 19.041016 29.685547 A 0.50005 0.50005 0 0 1 19.027344 29.650391 A 0.50005 0.50005 0 0 1 19.023438 29.636719 A 0.50005 0.50005 0 0 1 19.011719 29.591797 A 0.50005 0.50005 0 0 1 19.003906 29.457031 L 19.003906 25.505859 A 0.50005 0.50005 0 0 1 19.496094 24.998047 z M 15.503906 25.994141 C 14.669557 25.994141 14.003906 26.659841 14.003906 27.494141 C 14.003906 28.328541 14.669557 28.994141 15.503906 28.994141 C 15.735676 28.994141 15.951402 28.937703 16.146484 28.845703 A 0.50004997 0.50004997 0 0 1 16.503906 27.994141 A 0.50004997 0.50004997 0 0 1 16.853516 28.140625 C 16.946936 27.944425 17.003906 27.727741 17.003906 27.494141 C 17.003906 26.659841 16.338256 25.994141 15.503906 25.994141 z " transform="translate(0 1020.362)"/><path stroke="#000" stroke-linecap="round" stroke-linejoin="round" d="m 26.49644,1027.8658 -4.49997,0 c -0.83099,0 -1.49998,-0.6691 -1.49998,-1.5 l 0,-4.5"/><path style="line-height:normal;text-indent:0;text-align:start;text-decoration-line:none;text-decoration-style:solid;text-decoration-color:#000;text-transform:none;block-progression:tb;isolation:auto;mix-blend-mode:normal" d="m 10.5,1029.3622 0,1.5 -1.5,0 0,1 1.5,0 0,1.5 1,0 0,-1.5 1.5,0 0,-1 -1.5,0 0,-1.5 -1,0 z m 3,3 c -0.416667,0 -0.774948,0.1929 -1.041016,0.459 C 12.192917,1033.0873 12,1033.4456 12,1033.8622 l 0,1 c 0,0.3969 0.177291,0.7384 0.423828,1 -0.246434,0.2617 -0.423828,0.6033 -0.423828,1 l 0,1 c 0,0.3969 0.177291,0.7384 0.423828,1 -0.246434,0.2617 -0.423828,0.6033 -0.423828,1 l 0,1 c 0,0.4167 0.192917,0.775 0.458984,1.041 0.266068,0.2661 0.624349,0.459 1.041016,0.459 l 2.199219,0 0.867187,0 1.933594,0 c 0.416667,0 0.774948,-0.1929 1.041016,-0.459 C 19.807083,1041.6372 20,1041.2789 20,1040.8622 l 0,-1 c 0,-0.3967 -0.177394,-0.7383 -0.423828,-1 0.246537,-0.2616 0.423828,-0.6031 0.423828,-1 l 0,-1 c 0,-0.3967 -0.177394,-0.7383 -0.423828,-1 0.246537,-0.2616 0.423828,-0.6031 0.423828,-1 l 0,-1 c 0,-0.4166 -0.192917,-0.7749 -0.458984,-1.041 -0.266068,-0.2661 -0.624349,-0.459 -1.041016,-0.459 l -1.933594,0 -0.867187,0 -2.199219,0 z m 0,1 2.199219,0 0.867187,0 1.933594,0 c 0.08333,0 0.225052,0.057 0.333984,0.166 0.108933,0.109 0.166016,0.2507 0.166016,0.334 l 0,1 c 0,0.083 -0.05708,0.2251 -0.166016,0.334 -0.108932,0.1089 -0.250651,0.166 -0.333984,0.166 l -1.933594,0 -0.867187,0 -2.199219,0 c -0.08333,0 -0.225052,-0.057 -0.333984,-0.166 C 13.057083,1035.0873 13,1034.9456 13,1034.8622 l 0,-1 c 0,-0.083 0.05708,-0.225 0.166016,-0.334 0.108932,-0.1089 0.250651,-0.166 0.333984,-0.166 z m 0,3 2.199219,0 0.867187,0 1.933594,0 c 0.08333,0 0.225052,0.057 0.333984,0.166 0.108933,0.109 0.166016,0.2507 0.166016,0.334 l 0,1 c 0,0.083 -0.05708,0.2251 -0.166016,0.334 -0.108932,0.1089 -0.250651,0.166 -0.333984,0.166 l -1.933594,0 -0.867187,0 -2.199219,0 c -0.08333,0 -0.225052,-0.057 -0.333984,-0.166 C 13.057083,1038.0873 13,1037.9456 13,1037.8622 l 0,-1 c 0,-0.083 0.05708,-0.225 0.166016,-0.334 0.108932,-0.1089 0.250651,-0.166 0.333984,-0.166 z m 0,3 2.199219,0 0.867187,0 1.933594,0 c 0.08333,0 0.225052,0.057 0.333984,0.166 0.108933,0.109 0.166016,0.2507 0.166016,0.334 l 0,1 c 0,0.083 -0.05708,0.2251 -0.166016,0.334 -0.108932,0.1089 -0.250651,0.166 -0.333984,0.166 l -1.933594,0 -0.867187,0 -2.199219,0 c -0.08333,0 -0.225052,-0.057 -0.333984,-0.166 C 13.057083,1041.0873 13,1040.9456 13,1040.8622 l 0,-1 c 0,-0.083 0.05708,-0.225 0.166016,-0.334 0.108932,-0.1089 0.250651,-0.166 0.333984,-0.166 z" color="#000" font-family="sans-serif" font-weight="400" overflow="visible" white-space="normal"/></g></svg>