<svg xmlns="http://www.w3.org/2000/svg" width="32" height="32" viewBox="0 0 32 32"><g transform="translate(0 -1020.362)"><path fill="none" stroke="#000" stroke-linecap="round" stroke-linejoin="round" d="m 26.49644,1027.8658 0,21.5 c 0,0.831 -0.66899,1.5 -1.49998,1.5 l -18.00004,0 c -0.83099,0 -1.49998,-0.669 -1.49998,-1.5 l 0,-26 c 0,-0.831 0.66899,-1.5 1.49998,-1.5 l 13.50002,0 z"/><path d="M 5 24.003906 L 5 26.003906 L 5 28.003906 L 5 29.003906 C 5 30.111906 5.89198 31.003906 7 31.003906 L 25 31.003906 C 26.10802 31.003906 27 30.111906 27 29.003906 L 27 28.003906 L 27 26.003906 L 27 24.003906 L 25 24.003906 L 7 24.003906 L 5 24.003906 z M 8.4492188 25 A 0.50005 0.50005 0 0 1 8.5 25 L 10.488281 25 A 0.50005 0.50005 0 1 1 10.488281 26 L 9.9941406 26 L 9.9941406 29.496094 A 0.50005 0.50005 0 1 1 8.9941406 29.496094 L 8.9941406 26 L 8.5 26 A 0.50064427 0.50064427 0 0 1 8.4492188 25 z M 12.451172 25 A 0.50005 0.50005 0 0 1 12.501953 25 L 14.488281 25 A 0.50005 0.50005 0 1 1 14.488281 26 L 13.996094 26 L 13.996094 29.496094 A 0.50005 0.50005 0 1 1 12.996094 29.496094 L 12.996094 26 L 12.501953 26 A 0.50064426 0.50064426 0 0 1 12.451172 25 z M 17.568359 25 L 18.496094 25 A 0.50005 0.50005 0 1 1 18.496094 26 L 17.568359 26 C 17.241784 26 16.996094 26.247719 16.996094 26.574219 L 16.996094 27 L 17.996094 27 A 0.50005 0.50005 0 1 1 17.996094 28 L 16.996094 28 L 16.996094 29.5 A 0.50005 0.50005 0 1 1 15.996094 29.5 L 15.996094 27.53125 A 0.50005 0.50005 0 0 1 15.996094 27.457031 L 15.996094 26.574219 C 15.996094 25.711019 16.705119 25 17.568359 25 z " transform="translate(0 1020.362)"/><path stroke="#000" stroke-linecap="round" stroke-linejoin="round" d="m 26.49644,1027.8658 -4.49997,0 c -0.83099,0 -1.49998,-0.6691 -1.49998,-1.5 l 0,-4.5"/><path fill-rule="evenodd" style="line-height:normal;text-indent:0;text-align:start;text-decoration-line:none;text-decoration-style:solid;text-decoration-color:#000;text-transform:none;block-progression:tb;isolation:auto;mix-blend-mode:normal" d="m 12.511719,1033.3642 a 0.50005,0.50005 0 0 0 -0.451172,0.2753 l -2.9941408,5.9903 a 0.50006588,0.50006588 0 1 0 0.8945313,0.4472 l 0.6054685,-1.2109 a 0.50005,0.50005 0 0 0 0.0039,0 l 3.88086,0 0.605469,1.2109 a 0.50006575,0.50006575 0 1 0 0.894531,-0.4472 l -2.996094,-5.9903 a 0.50005,0.50005 0 0 0 -0.443359,-0.2753 z m -0.0039,1.6171 1.44336,2.8848 -2.884766,0 1.441406,-2.8848 z m 5.994141,0.2286 c -0.832006,0 -1.5,0.7042 -1.5,1.5371 a 0.50005,0.50005 0 1 0 1,0 c 0,-0.3149 0.224136,-0.5371 0.5,-0.5371 0.275862,0 0.5,0.2222 0.5,0.5371 1e-6,0.3114 -0.227761,0.5351 -0.5,0.5351 a 0.50005,0.50005 0 0 0 -0.167969,0.025 c -0.541159,0.064 -1.012834,0.4127 -1.21875,0.9277 -0.227417,0.5689 -0.104994,1.2215 0.320313,1.6622 0.425311,0.4407 1.0837,0.5793 1.646484,0.3378 0.159191,-0.068 0.297067,-0.1675 0.419922,-0.2812 0.264795,0.2445 0.61105,0.4004 0.996094,0.4004 a 0.50005,0.50005 0 1 0 0,-1 c -0.265433,0 -0.485103,-0.2163 -0.496094,-0.5156 l 0,-2.0586 a 0.50005,0.50005 0 0 0 0,-0.033 0.50005,0.50005 0 0 0 -0.01172,-0.1172 c -0.05967,-0.7802 -0.696013,-1.4199 -1.488281,-1.4199 z m 0.5,2.9765 0,0.5684 a 0.50005,0.50005 0 0 0 -0.0039,0.062 c 0,0 0.0019,0.01 0.002,0.01 -0.004,0.2206 -0.130926,0.4103 -0.3125,0.4883 -0.184485,0.079 -0.386597,0.041 -0.533203,-0.1114 -0.146605,-0.1519 -0.193419,-0.3923 -0.111328,-0.5976 0.0821,-0.2054 0.262622,-0.3242 0.458984,-0.3242 a 0.50005,0.50005 0 0 0 0.109375,-0.012 c 0.136254,-0.01 0.267139,-0.039 0.390625,-0.084 z" color="#000" font-family="sans-serif" font-weight="400" overflow="visible" white-space="normal"/></g></svg>