<svg xmlns="http://www.w3.org/2000/svg" width="32" height="32" viewBox="0 0 32 32"><g transform="translate(0 -1020.362)"><path fill="none" stroke="#000" stroke-linecap="round" stroke-linejoin="round" d="m 26.496439,1027.8658 0,21.5 c 0,0.831 -0.66899,1.5 -1.49998,1.5 l -18.00004,0 c -0.83099,0 -1.49998,-0.669 -1.49998,-1.5 l 0,-26 c 0,-0.831 0.66899,-1.5 1.49998,-1.5 l 13.50002,0 z"/><path d="M 5 24.003906 L 5 26.003906 L 5 28.003906 L 5 29.003906 C 5 30.111906 5.89198 31.003906 7 31.003906 L 25 31.003906 C 26.10802 31.003906 27 30.111906 27 29.003906 L 27 28.003906 L 27 26.003906 L 27 24.003906 L 25 24.003906 L 7 24.003906 L 5 24.003906 z M 12.519531 24.986328 A 0.50005 0.50005 0 0 1 12.902344 25.193359 L 14 26.658203 L 15.097656 25.193359 A 0.50005 0.50005 0 0 1 15.464844 24.988281 A 0.50005 0.50005 0 0 1 15.898438 25.792969 L 14.625 27.494141 L 15.898438 29.193359 A 0.50019595 0.50019595 0 0 1 15.097656 29.792969 L 14 28.328125 L 12.902344 29.792969 A 0.50019595 0.50019595 0 0 1 12.101562 29.193359 L 13.375 27.494141 L 12.101562 25.792969 A 0.50005 0.50005 0 0 1 12.46875 24.988281 A 0.50005 0.50005 0 0 1 12.519531 24.988281 L 12.519531 24.986328 z M 9.5 24.988281 A 0.50005 0.50005 0 0 1 9.6152344 25 L 10.507812 25 A 0.50005 0.50005 0 1 1 10.507812 26 L 10.007812 26 L 10.007812 29.490234 A 0.50005 0.50005 0 1 1 9.0078125 29.490234 L 9.0078125 26 L 8.5078125 26 A 0.50005 0.50005 0 1 1 8.5078125 25 L 9.3945312 25 A 0.50005 0.50005 0 0 1 9.5 24.988281 z M 18.492188 24.988281 A 0.50005 0.50005 0 0 1 18.607422 25 L 19.492188 25 A 0.50005 0.50005 0 1 1 19.492188 26 L 19 26 L 19 29.490234 A 0.50005 0.50005 0 1 1 18 29.490234 L 18 26 L 17.492188 26 A 0.50005 0.50005 0 1 1 17.492188 25 L 18.386719 25 A 0.50005 0.50005 0 0 1 18.492188 24.988281 z " transform="translate(0 1020.362)"/><path stroke="#000" stroke-linecap="round" stroke-linejoin="round" d="m 26.496439,1027.8658 -4.49997,0 c -0.83099,0 -1.49998,-0.6691 -1.49998,-1.5 l 0,-4.5"/><path fill-rule="evenodd" style="line-height:normal;text-indent:0;text-align:start;text-decoration-line:none;text-decoration-style:solid;text-decoration-color:#000;text-transform:none;block-progression:tb;isolation:auto;mix-blend-mode:normal" d="m 7.475435,1024.3628 a 0.50064427,0.50064427 0 1 0 0.05078,1 l 4.992187,0 a 0.50005,0.50005 0 1 0 0,-1 l -4.992187,0 a 0.50005,0.50005 0 0 0 -0.05078,0 z m 0,2 a 0.50064427,0.50064427 0 1 0 0.05078,1 l 8.999999,0 a 0.50005,0.50005 0 1 0 0,-1 l -8.999999,0 a 0.50005,0.50005 0 0 0 -0.05078,0 z m 0,3 a 0.50064427,0.50064427 0 1 0 0.05078,1 l 3.999999,0 a 0.50005,0.50005 0 1 0 0,-1 l -3.999999,0 a 0.50005,0.50005 0 0 0 -0.05078,0 z m 5.999999,0 a 0.50064426,0.50064426 0 1 0 0.05078,1 l 1,0 a 0.50005,0.50005 0 1 0 0,-1 l -1,0 a 0.50005,0.50005 0 0 0 -0.05078,0 z m 3,0 a 0.50064426,0.50064426 0 1 0 0.05078,1 l 7.992188,0 a 0.50005,0.50005 0 1 0 0,-1 l -7.992188,0 a 0.50005,0.50005 0 0 0 -0.05078,0 z m -8.999999,2 a 0.50064427,0.50064427 0 1 0 0.05078,1 l 5.999999,0 a 0.50005,0.50005 0 1 0 0,-1 l -5.999999,0 a 0.50005,0.50005 0 0 0 -0.05078,0 z m 7.999999,0 a 0.50064426,0.50064426 0 1 0 0.05078,1 l 1,0 a 0.50005,0.50005 0 1 0 0,-1 l -1,0 a 0.50005,0.50005 0 0 0 -0.05078,0 z m 3,0 a 0.50064426,0.50064426 0 1 0 0.05078,1 l 5.992188,0 a 0.50005,0.50005 0 1 0 0,-1 l -5.992188,0 a 0.50005,0.50005 0 0 0 -0.05078,0 z m -10.999999,2 a 0.50064427,0.50064427 0 1 0 0.05078,1 l 7.999999,0 a 0.50005,0.50005 0 1 0 0,-1 l -7.999999,0 a 0.50005,0.50005 0 0 0 -0.05078,0 z m 9.999999,0 a 0.50064426,0.50064426 0 1 0 0.05078,1 l 1,0 a 0.50005,0.50005 0 1 0 0,-1 l -1,0 a 0.50005,0.50005 0 0 0 -0.05078,0 z m 3,0 a 0.50064426,0.50064426 0 1 0 0.05078,1 l 3.992188,0 a 0.50005,0.50005 0 1 0 0,-1 l -3.992188,0 a 0.50005,0.50005 0 0 0 -0.05078,0 z m -12.999999,2 a 0.50064427,0.50064427 0 1 0 0.05078,1 l 3.999999,0 a 0.50005,0.50005 0 1 0 0,-1 l -3.999999,0 a 0.50005,0.50005 0 0 0 -0.05078,0 z m 5.999999,0 a 0.50064426,0.50064426 0 1 0 0.05078,1 l 1,0 a 0.50005,0.50005 0 1 0 0,-1 l -1,0 a 0.50005,0.50005 0 0 0 -0.05078,0 z m 3,0 a 0.50064426,0.50064426 0 1 0 0.05078,1 l 4.53125,0 3.460938,0 a 0.50005,0.50005 0 0 0 0,-1 l -3.425781,0 -4.566407,0 a 0.50005,0.50005 0 0 0 -0.05078,0 z" color="#000" font-family="sans-serif" font-weight="400" overflow="visible" white-space="normal"/></g></svg>