<svg xmlns="http://www.w3.org/2000/svg" width="32" height="32" viewBox="0 0 32 32"><g transform="translate(0 -1020.362)"><path fill="none" stroke="#000" stroke-linecap="round" stroke-linejoin="round" d="m 26.49644,1027.8658 0,21.5 c 0,0.831 -0.66899,1.5 -1.49998,1.5 l -18.00004,0 c -0.83099,0 -1.49998,-0.669 -1.49998,-1.5 l 0,-26 c 0,-0.831 0.66899,-1.5 1.49998,-1.5 l 13.50002,0 z"/><path d="M 5 24.003906 L 5 26.003906 L 5 28.003906 L 5 29.003906 C 5 30.111906 5.89198 31.003906 7 31.003906 L 25 31.003906 C 26.10802 31.003906 27 30.111906 27 29.003906 L 27 28.003906 L 27 26.003906 L 27 24.003906 L 25 24.003906 L 7 24.003906 L 5 24.003906 z M 19.462891 24.988281 A 0.50005 0.50005 0 0 1 19.513672 24.988281 A 0.50005 0.50005 0 0 1 20 25.517578 L 20 29.494141 A 0.50005 0.50005 0 1 1 19 29.494141 L 19 26.992188 L 18.398438 27.791016 A 0.50019296 0.50019296 0 0 1 17.666016 27.863281 A 0.50005 0.50005 0 0 1 17.634766 27.833984 A 0.50019296 0.50019296 0 0 1 17.630859 27.824219 A 0.50005 0.50005 0 0 1 17.601562 27.791016 A 0.50019296 0.50019296 0 0 1 17.597656 27.791016 L 16.996094 26.988281 L 16.996094 29.490234 A 0.50005 0.50005 0 1 1 15.996094 29.490234 L 15.996094 25.501953 A 0.50005 0.50005 0 0 1 16.488281 24.994141 A 0.50005 0.50005 0 0 1 16.511719 24.994141 A 0.50005 0.50005 0 0 1 16.660156 25.019531 A 0.50005 0.50005 0 0 1 16.707031 25.037109 A 0.50005 0.50005 0 0 1 16.75 25.060547 A 0.50005 0.50005 0 0 1 16.832031 25.119141 A 0.50005 0.50005 0 0 1 16.900391 25.191406 L 18 26.658203 L 19.095703 25.195312 A 0.50005 0.50005 0 0 1 19.462891 24.988281 z M 8.453125 24.992188 A 0.44703951 0.44703951 0 0 1 8.8632812 25.287109 L 9.9960938 28.273438 L 11.078125 25.322266 A 0.44626335 0.44626335 0 0 1 11.195312 25.126953 A 0.44626335 0.44626335 0 0 1 11.265625 25.070312 A 0.44626335 0.44626335 0 0 1 11.519531 24.998047 A 0.44626335 0.44626335 0 0 1 11.523438 24.998047 A 0.44737342 0.44737342 0 0 1 11.947266 25.355469 L 13.015625 28.28125 L 14.142578 25.296875 A 0.44657099 0.44657099 0 0 1 14.978516 25.611328 L 13.427734 29.720703 A 0.44626335 0.44626335 0 0 1 12.589844 29.710938 L 11.507812 26.748047 L 10.421875 29.705078 A 0.44703951 0.44703951 0 0 1 9.5839844 29.716797 L 8.0273438 25.609375 A 0.44703951 0.44703951 0 0 1 8.453125 24.998047 L 8.453125 24.992188 z M 21.453125 24.998047 A 0.50005 0.50005 0 0 1 21.503906 24.998047 A 0.50005 0.50005 0 0 1 21.962891 25.330078 L 22.994141 28.080078 L 24.025391 25.330078 A 0.5002831 0.5002831 0 0 1 24.962891 25.679688 L 23.462891 29.679688 A 0.50005 0.50005 0 0 1 22.525391 29.679688 L 21.025391 25.679688 A 0.50005 0.50005 0 0 1 21.453125 24.998047 z " transform="translate(0 1020.362)"/><path stroke="#000" stroke-linecap="round" stroke-linejoin="round" d="m 26.49644,1027.8658 -4.49997,0 c -0.83099,0 -1.49998,-0.6691 -1.49998,-1.5 l 0,-4.5"/><path fill-rule="evenodd" style="line-height:normal;text-indent:0;text-align:start;text-decoration-line:none;text-decoration-style:solid;text-decoration-color:#000;text-transform:none;block-progression:tb;isolation:auto;mix-blend-mode:normal" d="m 14.492188,1030.3563 a 0.50005,0.50005 0 0 0 -0.453126,0.3106 0.50005,0.50005 0 0 0 -0.01758,0.049 0.50005,0.50005 0 0 0 -0.01172,0.047 0.50005,0.50005 0 0 0 -0.0078,0.051 0.50005,0.50005 0 0 0 -0.002,0.049 l 0,2.9473 a 0.50005,0.50005 0 0 0 0,0.1 l 0,4.7363 c -0.295903,-0.1736 -0.634503,-0.2793 -1,-0.2793 -1.098647,0 -2,0.9014 -2,2 0,1.0987 0.901353,2 2,2 1.060451,0 1.928609,-0.8422 1.988281,-1.8887 A 0.50005,0.50005 0 0 0 15,1040.3661 l 0,-5.8125 4.337891,1.4258 a 0.50030513,0.50030513 0 0 0 0.634765,-0.6172 l 0.02734,0 0,-2.7227 a 0.50005,0.50005 0 0 0 0,-0.2597 l 0,-0.018 -0.0059,0 a 0.50005,0.50005 0 0 0 -0.345703,-0.334 l -4.914063,-1.6152 -0.002,0 a 0.50005,0.50005 0 0 0 -0.240234,-0.057 z M 15,1031.5517 l 4,1.3144 0,1.9492 -4,-1.3144 0,-1.9492 z m -2,7.8144 c 0.558207,0 1,0.4418 1,1 0,0.5582 -0.441793,1 -1,1 -0.558207,0 -1,-0.4418 -1,-1 0,-0.5582 0.441793,-1 1,-1 z" color="#000" font-family="sans-serif" font-weight="400" overflow="visible" white-space="normal"/></g></svg>