<svg xmlns="http://www.w3.org/2000/svg" width="32" height="32" viewBox="0 0 32 32"><g transform="translate(0 -1020.362)"><path fill="none" stroke="#000" stroke-linecap="round" stroke-linejoin="round" d="m 26.49644,1027.8658 0,21.5 c 0,0.831 -0.66899,1.5 -1.49998,1.5 l -18.00004,0 c -0.83099,0 -1.49998,-0.669 -1.49998,-1.5 l 0,-26 c 0,-0.831 0.66899,-1.5 1.49998,-1.5 l 13.50002,0 z"/><path d="M 5 24.003906 L 5 26.003906 L 5 28.003906 L 5 29.003906 C 5 30.111906 5.89198 31.003906 7 31.003906 L 25 31.003906 C 26.10802 31.003906 27 30.111906 27 29.003906 L 27 28.003906 L 27 26.003906 L 27 24.003906 L 25 24.003906 L 7 24.003906 L 5 24.003906 z M 8.5175781 24.996094 A 0.50005 0.50005 0 0 1 8.9003906 25.203125 L 9.9980469 26.667969 L 11.095703 25.203125 A 0.50005 0.50005 0 0 1 11.464844 24.998047 A 0.50005 0.50005 0 0 1 11.896484 25.802734 L 10.623047 27.503906 L 11.896484 29.203125 A 0.50019555 0.50019555 0 1 1 11.095703 29.802734 L 9.9980469 28.337891 L 8.9003906 29.802734 A 0.50019563 0.50019563 0 1 1 8.0996094 29.203125 L 9.3730469 27.503906 L 8.0996094 25.802734 A 0.50005 0.50005 0 0 1 8.4667969 24.998047 A 0.50005 0.50005 0 0 1 8.5175781 24.998047 L 8.5175781 24.996094 z M 13.488281 24.998047 L 13.488281 25.003906 A 0.50005 0.50005 0 0 1 13.996094 25.511719 L 13.996094 29.005859 L 15.492188 29.005859 A 0.50005 0.50005 0 1 1 15.492188 30.005859 L 13.503906 30.005859 A 0.50005 0.50005 0 0 1 13.46875 30.005859 A 0.50005 0.50005 0 0 1 13.330078 29.978516 A 0.50005 0.50005 0 0 1 13.314453 29.96875 A 0.50005 0.50005 0 0 1 13 29.560547 A 0.50005 0.50005 0 0 1 12.998047 29.546875 A 0.50005 0.50005 0 0 1 12.996094 29.523438 A 0.50005 0.50005 0 0 1 12.996094 29.503906 A 0.50005 0.50005 0 0 1 12.996094 29.494141 L 12.996094 25.505859 A 0.50005 0.50005 0 0 1 13.488281 24.998047 z M 18.453125 24.998047 A 0.50005 0.50005 0 0 1 18.503906 24.998047 A 0.50005 0.50005 0 0 1 18.539062 24.998047 L 20.503906 24.998047 A 0.50005 0.50005 0 1 1 20.503906 25.998047 L 18.503906 25.998047 C 18.218258 25.998047 18.003906 26.212447 18.003906 26.498047 C 18.003906 26.783747 18.218258 26.998047 18.503906 26.998047 A 0.50005 0.50005 0 0 1 18.539062 26.998047 L 19.503906 26.998047 A 0.50005 0.50005 0 0 1 19.611328 27.007812 C 20.383642 27.064512 21.003906 27.712447 21.003906 28.498047 C 21.003906 29.285047 20.381492 29.931328 19.607422 29.986328 A 0.50005 0.50005 0 0 1 19.503906 29.998047 L 17.503906 29.998047 A 0.50005 0.50005 0 1 1 17.503906 28.998047 L 19.503906 28.998047 C 19.789555 28.998047 20.003906 28.783747 20.003906 28.498047 C 20.003906 28.212447 19.789555 27.998047 19.503906 27.998047 L 18.503906 27.998047 A 0.50005 0.50005 0 0 1 18.410156 27.988281 C 17.63146 27.938381 17.003906 27.288447 17.003906 26.498047 C 17.003906 25.714447 17.621128 25.069766 18.390625 25.009766 A 0.50005 0.50005 0 0 1 18.453125 24.998047 z " transform="translate(0 1020.362)"/><path stroke="#000" stroke-linecap="round" stroke-linejoin="round" d="m 26.49644,1027.8658 -4.49997,0 c -0.83099,0 -1.49998,-0.6691 -1.49998,-1.5 l 0,-4.5"/><path style="line-height:normal;text-indent:0;text-align:start;text-decoration-line:none;text-decoration-style:solid;text-decoration-color:#000;text-transform:none;block-progression:tb;isolation:auto;mix-blend-mode:normal" d="m 8.5,1030.3622 a 0.50005,0.50005 0 0 0 -0.5,0.5 l 0,2 0,2 0,2 0,2 0,2 a 0.50005,0.50005 0 0 0 0.5,0.5 l 5,0 5,0 5,0 a 0.50005,0.50005 0 0 0 0.5,-0.5 l 0,-2 0,-2 0,-2 0,-2 0,-2 a 0.50005,0.50005 0 0 0 -0.5,-0.5 l -5,0 -4.964844,0 a 0.50005,0.50005 0 0 0 -0.03516,0 l -5,0 z m 0.5,1 4,0 0,1 -4,0 0,-1 z m 5,0 4,0 0,1 -4,0 0,-1 z m 5,0 4,0 0,1 -4,0 0,-1 z m -10,2 4,0 0,1 -4,0 0,-1 z m 5,0 4,0 0,1 -4,0 0,-1 z m 5,0 4,0 0,1 -4,0 0,-1 z m -10,2 4,0 0,1 -4,0 0,-1 z m 5,0 4,0 0,1 -4,0 0,-1 z m 5,0 4,0 0,1 -4,0 0,-1 z m -10,2 4,0 0,1 -4,0 0,-1 z m 5,0 4,0 0,1 -4,0 0,-1 z m 5,0 4,0 0,1 -4,0 0,-1 z m -10,2 4,0 0,1 -4,0 0,-1 z m 5,0 4,0 0,1 -4,0 0,-1 z m 5,0 4,0 0,1 -4,0 0,-1 z" color="#000" font-family="sans-serif" font-weight="400" overflow="visible" white-space="normal"/></g></svg>